<svg width="216" height="56" viewBox="0 0 216 56" fill="none" xmlns="http://www.w3.org/2000/svg">
    <g clip-path="url(#clip0_49_4755)">
        <path d="M2.99616 31.8242V38.5576H12.2738V31.8242H15.2699V48.3021H12.2738V41.5687H2.99616V48.3021H0V31.8242H2.99616Z" fill="#FF2122"/>
        <path d="M17.8721 36.0163C17.8721 35.4351 17.9828 34.891 18.1981 34.3778C18.4196 33.8708 18.7149 33.4256 19.0902 33.0485C19.4655 32.6713 19.9085 32.3745 20.413 32.1519C20.9174 31.9355 21.465 31.8242 22.0433 31.8242H28.9769C29.5552 31.8242 30.0966 31.9355 30.6073 32.1519C31.1118 32.3745 31.5547 32.6713 31.93 33.0485C32.3053 33.4256 32.6006 33.8708 32.8221 34.3778C33.0374 34.891 33.1482 35.4351 33.1482 36.0163V44.11C33.1482 44.6912 33.0374 45.2353 32.8221 45.7485C32.6006 46.2617 32.3053 46.7007 31.93 47.0778C31.5547 47.455 31.1118 47.7518 30.6073 47.9744C30.0966 48.1908 29.5552 48.3021 28.9769 48.3021H22.0433C21.465 48.3021 20.9236 48.1908 20.413 47.9744C19.9023 47.7518 19.4655 47.455 19.0902 47.0778C18.7149 46.7007 18.4196 46.2555 18.1981 45.7485C17.9767 45.2353 17.8721 44.6912 17.8721 44.11V36.0163ZM28.9708 45.2909C29.2845 45.2909 29.5552 45.1796 29.7767 44.9509C30.0043 44.7221 30.1151 44.4562 30.1151 44.1409V36.0411C30.1151 35.7257 30.0043 35.4537 29.7767 35.2311C29.5491 35.0023 29.2784 34.891 28.9708 34.891H22.0125C21.6988 34.891 21.4281 35.0023 21.2066 35.2311C20.979 35.4599 20.8682 35.7257 20.8682 36.0411V44.1409C20.8682 44.4562 20.979 44.7283 21.2066 44.9509C21.4342 45.1796 21.7049 45.2909 22.0125 45.2909H28.9708Z" fill="#FF2122"/>
        <path d="M40.5864 31.8245L46.3018 45.2851L52.0173 31.8245H56.9329V48.3024H53.9368V34.8419L49.5318 45.2913L48.2459 48.3024H44.3577L43.4226 46.0641L38.6915 34.8357V48.2962H35.6953V31.8184H40.5925L40.5864 31.8245Z" fill="#FF2122"/>
        <path d="M73.6798 31.8245V34.8357H62.7411V38.5579H71.5942V41.5691H62.7411V45.2851H73.6798V48.2962H59.7695V31.8184H73.6798V31.8245Z" fill="#FF2122"/>
        <path d="M139.042 31.7744C139.62 31.7744 140.161 31.8857 140.672 32.1021C141.176 32.3247 141.619 32.6215 141.995 32.9987C142.37 33.3758 142.665 33.821 142.887 34.328C143.108 34.8412 143.213 35.3853 143.213 35.9665V41.049C143.213 41.6302 143.102 42.1743 142.887 42.6875C142.665 43.2007 142.37 43.6397 141.995 44.0169C141.619 44.394 141.176 44.6908 140.672 44.9134C140.161 45.136 139.62 45.2411 139.042 45.2411H130.939V48.2523H127.943V31.7744H139.042ZM139.042 42.2238C139.355 42.2238 139.626 42.1125 139.848 41.8837C140.075 41.6549 140.186 41.3891 140.186 41.0737V35.9913C140.186 35.6759 140.075 35.4039 139.848 35.1813C139.62 34.9525 139.349 34.8412 139.042 34.8412H130.939V42.2794L139.042 42.23V42.2238Z" fill="#FF2122"/>
        <path d="M156.606 31.7747C157.185 31.7747 157.726 31.886 158.237 32.1024C158.741 32.325 159.184 32.6218 159.559 32.999C159.935 33.3761 160.23 33.8213 160.451 34.3283C160.673 34.8415 160.777 35.3856 160.777 35.9669V41.0493C160.777 41.5192 160.704 41.9644 160.556 42.3911C160.408 42.8115 160.205 43.201 159.947 43.5535C159.689 43.9059 159.375 44.2151 159.012 44.4686C158.643 44.7283 158.249 44.9199 157.831 45.0436L160.784 48.2464H156.637L153.899 45.2353H148.51V48.2464H145.514V31.7686H156.612L156.606 31.7747ZM156.606 42.2241C156.92 42.2241 157.191 42.1128 157.412 41.884C157.64 41.6553 157.751 41.3894 157.751 41.0741V35.9916C157.751 35.6762 157.64 35.4042 157.412 35.1816C157.185 34.9528 156.914 34.8415 156.606 34.8415H148.504V42.2798H156.606V42.2303V42.2241Z" fill="#FF2122"/>
        <path d="M163.023 36.0163C163.023 35.4351 163.134 34.891 163.349 34.3778C163.571 33.8708 163.866 33.4256 164.241 33.0485C164.616 32.6713 165.059 32.3745 165.564 32.1519C166.068 31.9355 166.616 31.8242 167.194 31.8242H174.128C174.706 31.8242 175.247 31.9355 175.758 32.1519C176.263 32.3745 176.706 32.6713 177.081 33.0485C177.456 33.4256 177.751 33.8708 177.973 34.3778C178.188 34.891 178.299 35.4351 178.299 36.0163V44.11C178.299 44.6912 178.188 45.2353 177.973 45.7485C177.751 46.2617 177.456 46.7007 177.081 47.0778C176.706 47.455 176.263 47.7518 175.758 47.9744C175.247 48.1908 174.706 48.3021 174.128 48.3021H167.194C166.616 48.3021 166.074 48.1908 165.564 47.9744C165.053 47.7518 164.616 47.455 164.241 47.0778C163.866 46.7007 163.571 46.2555 163.349 45.7485C163.128 45.2353 163.023 44.6912 163.023 44.11V36.0163ZM174.122 45.2909C174.435 45.2909 174.706 45.1796 174.928 44.9509C175.155 44.7221 175.266 44.4562 175.266 44.1409V36.0411C175.266 35.7257 175.155 35.4537 174.928 35.2311C174.7 35.0023 174.429 34.891 174.122 34.891H167.163C166.85 34.891 166.579 35.0023 166.357 35.2311C166.13 35.4599 166.019 35.7257 166.019 36.0411V44.1409C166.019 44.4562 166.13 44.7283 166.357 44.9509C166.585 45.1796 166.856 45.2909 167.163 45.2909H174.122Z" fill="#FF2122"/>
        <path d="M179.37 31.8242H183.282L188.272 37.7352L193.237 31.8242H197.15L190.216 40.0601L197.15 48.2959H193.237L188.272 42.3911L183.282 48.2959H179.37L186.303 40.0601L179.37 31.8242Z" fill="#FF2122"/>
        <path d="M198.245 31.8242H202.157L207.122 37.7352L212.087 31.8242H216L208.599 40.6042V48.3021H205.603V40.6042L198.251 31.8242H198.245Z" fill="#FF2122"/>
        <path d="M100.38 38.0879H97.3042V41.1794H100.38V38.0879Z" fill="#FF2122"/>
        <path d="M104.995 38.0879H101.918V41.1794H104.995V38.0879Z" fill="#FF2122"/>
        <path d="M100.38 33.4385H97.3042V36.53H100.38V33.4385Z" fill="#FF2122"/>
        <path d="M104.995 33.4385H101.918V36.53H104.995V33.4385Z" fill="#FF2122"/>
        <path d="M79.5615 55.9997H85.5415H85.7507H116.549H122.486H122.744V37.333H116.549V49.7733H85.7507V37.333H79.5615V55.9997Z" fill="#FF2122"/>
        <path d="M122.744 30.1297L119.649 28.485V18.6663C119.649 18.6354 119.649 18.5983 119.649 18.5674C119.649 8.3159 111.381 0.00585938 101.18 0.00585938C90.9798 0.00585938 82.7112 8.3159 82.7112 18.5674C82.7112 18.5983 82.7112 18.6354 82.7112 18.6663H82.6804V28.5036L79.5674 30.1545V37.333L101.18 25.8449L122.75 37.3083V30.1297H122.744ZM88.8327 18.6663H88.8635C88.8635 18.6354 88.8635 18.5983 88.8635 18.5674C88.8635 11.7351 94.3759 6.19511 101.174 6.19511C107.972 6.19511 113.485 11.7351 113.485 18.5674C113.485 18.6045 113.485 18.6354 113.485 18.6663V25.2142L101.174 18.6663L88.8327 25.2266V18.6663Z" fill="#FF2122"/>
    </g>
    <defs>
        <clipPath id="clip0_49_4755">
            <rect width="216" height="56" fill="white"/>
        </clipPath>
    </defs>
</svg>
