<svg width="24" height="21" viewBox="0 0 24 21" fill="none" xmlns="http://www.w3.org/2000/svg">
    <path d="M19.5 1H4.5C4.10218 1 3.72064 1.15804 3.43934 1.43934C3.15804 1.72064 3 2.10218 3 2.5V7.75C3 12.6925 5.3925 15.6878 7.39969 17.3303C9.56156 19.0984 11.7122 19.6984 11.8059 19.7238C11.9348 19.7588 12.0708 19.7588 12.1997 19.7238C12.2934 19.6984 14.4413 19.0984 16.6059 17.3303C18.6075 15.6878 21 12.6925 21 7.75V2.5C21 2.10218 20.842 1.72064 20.5607 1.43934C20.2794 1.15804 19.8978 1 19.5 1ZM19.5 7.75C19.5 11.2253 18.2194 14.0462 15.6937 16.1331C14.5943 17.0385 13.344 17.743 12 18.2144C10.6736 17.7512 9.4387 17.0592 8.35125 16.1697C5.79563 14.0791 4.5 11.2469 4.5 7.75V2.5H19.5V7.75ZM7.71937 10.5306C7.57864 10.3899 7.49958 10.199 7.49958 10C7.49958 9.80098 7.57864 9.61011 7.71937 9.46937C7.86011 9.32864 8.05098 9.24958 8.25 9.24958C8.44902 9.24958 8.63989 9.32864 8.78063 9.46937L10.5 11.1897L15.2194 6.46937C15.2891 6.39969 15.3718 6.34442 15.4628 6.3067C15.5539 6.26899 15.6515 6.24958 15.75 6.24958C15.8485 6.24958 15.9461 6.26899 16.0372 6.3067C16.1282 6.34442 16.2109 6.39969 16.2806 6.46937C16.3503 6.53906 16.4056 6.62178 16.4433 6.71283C16.481 6.80387 16.5004 6.90145 16.5004 7C16.5004 7.09855 16.481 7.19613 16.4433 7.28717C16.4056 7.37822 16.3503 7.46094 16.2806 7.53063L11.0306 12.7806C10.961 12.8504 10.8783 12.9057 10.7872 12.9434C10.6962 12.9812 10.5986 13.0006 10.5 13.0006C10.4014 13.0006 10.3038 12.9812 10.2128 12.9434C10.1217 12.9057 10.039 12.8504 9.96937 12.7806L7.71937 10.5306Z" fill="url(#paint0_linear_49_4787)"/>
    <path opacity="0.2" d="M20.25 4.53906V9.07814C20.25 16.8594 12 18.8047 12 18.8047C12 18.8047 3.75 16.8594 3.75 9.07814V4.53906C3.75 4.36709 3.82902 4.20215 3.96967 4.08055C4.11032 3.95894 4.30109 3.89062 4.5 3.89062H19.5C19.6989 3.89062 19.8897 3.95894 20.0303 4.08055C20.171 4.20215 20.25 4.36709 20.25 4.53906Z" fill="url(#paint1_linear_49_4787)"/>
    <defs>
        <linearGradient id="paint0_linear_49_4787" x1="20.7731" y1="2.04167" x2="1.6592" y2="3.54068" gradientUnits="userSpaceOnUse">
            <stop offset="0.0001" stop-color="#0019FF"/>
            <stop offset="1" stop-color="#F200FF"/>
        </linearGradient>
        <linearGradient id="paint1_linear_49_4787" x1="20.042" y1="4.71918" x2="2.55601" y2="6.29958" gradientUnits="userSpaceOnUse">
            <stop offset="0.0001" stop-color="#0019FF"/>
            <stop offset="1" stop-color="#F200FF"/>
        </linearGradient>
    </defs>
</svg>
