<svg width="27" height="27" viewBox="0 0 27 27" fill="none" xmlns="http://www.w3.org/2000/svg">
    <g clip-path="url(#clip0_60_6915)">
        <path fill-rule="evenodd" clip-rule="evenodd" d="M10.4523 4.04266C11.7606 2.21104 14.4828 2.21104 15.7911 4.04266L15.9994 4.33426C16.2296 4.65662 16.6163 4.82922 17.0099 4.78548L17.9383 4.68232C20.0277 4.45018 21.7931 6.21561 21.561 8.30496L21.4578 9.23335C21.4141 9.62705 21.5867 10.0136 21.909 10.2439L22.2006 10.4522C24.0322 11.7604 24.0322 14.4826 22.2006 15.791L21.909 15.9993C21.5867 16.2295 21.4141 16.6161 21.4578 17.0098L21.561 17.9381C21.7931 20.0276 20.0277 21.793 17.9383 21.5608L17.0099 21.4577C16.6163 21.414 16.2296 21.5865 15.9994 21.9089L15.7911 22.2005C14.4828 24.0321 11.7607 24.0321 10.4523 22.2005L10.244 21.9089C10.0138 21.5865 9.62718 21.414 9.23346 21.4577L8.30508 21.5608C6.21573 21.793 4.4503 20.0276 4.68244 17.9381L4.7856 17.0098C4.82934 16.6161 4.65674 16.2295 4.33438 15.9993L4.04278 15.791C2.21116 14.4826 2.21116 11.7605 4.04278 10.4522L4.33438 10.2439C4.65674 10.0136 4.82934 9.62705 4.7856 9.23334L4.68244 8.30496C4.4503 6.21561 6.21573 4.45018 8.30508 4.68232L9.23347 4.78548C9.62718 4.82922 10.0138 4.65662 10.244 4.33426L10.4523 4.04266ZM17.1753 10.1614C17.6023 10.5885 17.6023 11.2808 17.1753 11.7078L12.9995 15.8837C12.4631 16.4202 11.5934 16.4202 11.057 15.8837L9.06807 13.8948C8.64104 13.4678 8.64104 12.7754 9.06807 12.3484C9.4951 11.9214 10.1875 11.9214 10.6145 12.3484L12.0282 13.7622L15.6289 10.1614C16.056 9.7344 16.7483 9.7344 17.1753 10.1614Z" fill="#00B507"/>
    </g>
    <defs>
        <clipPath id="clip0_60_6915">
            <rect width="26.2435" height="26.2435" fill="white"/>
        </clipPath>
    </defs>
</svg>
