<svg width="44" height="44" viewBox="0 0 44 44" fill="none" xmlns="http://www.w3.org/2000/svg">
    <rect width="44" height="44" rx="22" fill="#FDE6D2"/>
    <path d="M27.25 18.3972V17.875C27.25 15.5238 23.7034 13.75 19 13.75C14.2966 13.75 10.75 15.5238 10.75 17.875V21.625C10.75 23.5834 13.2109 25.1397 16.75 25.6056V26.125C16.75 28.4762 20.2966 30.25 25 30.25C29.7034 30.25 33.25 28.4762 33.25 26.125V22.375C33.25 20.4344 30.8669 18.8762 27.25 18.3972ZM15.25 23.7691C13.4134 23.2562 12.25 22.4116 12.25 21.625V20.3059C13.015 20.8478 14.0397 21.2847 15.25 21.5781V23.7691ZM22.75 21.5781C23.9603 21.2847 24.985 20.8478 25.75 20.3059V21.625C25.75 22.4116 24.5866 23.2562 22.75 23.7691V21.5781ZM21.25 28.2691C19.4134 27.7562 18.25 26.9116 18.25 26.125V25.7341C18.4966 25.7434 18.7459 25.75 19 25.75C19.3638 25.75 19.7191 25.7378 20.0678 25.7172C20.4552 25.8559 20.8499 25.9736 21.25 26.0697V28.2691ZM21.25 24.0859C20.5051 24.196 19.753 24.2508 19 24.25C18.247 24.2508 17.4949 24.196 16.75 24.0859V21.8556C17.496 21.9528 18.2477 22.0011 19 22C19.7523 22.0011 20.504 21.9528 21.25 21.8556V24.0859ZM27.25 28.5859C25.758 28.8047 24.242 28.8047 22.75 28.5859V26.35C23.4958 26.4503 24.2475 26.5004 25 26.5C25.7523 26.5011 26.504 26.4528 27.25 26.3556V28.5859ZM31.75 26.125C31.75 26.9116 30.5866 27.7562 28.75 28.2691V26.0781C29.9603 25.7847 30.985 25.3478 31.75 24.8059V26.125Z" fill="#FF7901"/>
</svg>
