<svg width="700" height="331" viewBox="0 0 700 331" fill="none" xmlns="http://www.w3.org/2000/svg">
    <rect x="0.5" y="0.5" width="699" height="273" rx="15.5" fill="white"/>
    <rect x="0.5" y="0.5" width="699" height="273" rx="15.5" fill="url(#paint0_linear_26_15753)" fill-opacity="0.4"/>
    <rect x="0.5" y="0.5" width="699" height="273" rx="15.5" stroke="#6BFDFF"/>
    <rect x="40.5" y="32.5" width="132.25" height="124" rx="7.5" stroke="#535355"/>
    <rect x="48" y="40" width="117.25" height="22" rx="4" fill="white"/>
    <path d="M70.403 55V47.0034H71.8727V53.7249H75.8494V55H70.403ZM79.2802 49.1647C79.6476 49.1647 79.9502 49.2259 80.188 49.3484C80.4257 49.4636 80.613 49.5933 80.7499 49.7374C80.8868 49.8743 80.9804 49.9859 81.0308 50.0724H81.0957V49.2727H82.5329V55H81.0957V54.2003H81.0308C80.9804 54.2868 80.8868 54.4021 80.7499 54.5461C80.613 54.6902 80.4257 54.8199 80.188 54.9352C79.9502 55.0504 79.6476 55.1081 79.2802 55.1081C78.8552 55.1081 78.4842 55.0252 78.1672 54.8595C77.8502 54.6866 77.5837 54.4597 77.3675 54.1787C77.1586 53.8906 77.0001 53.57 76.8921 53.217C76.7912 52.864 76.7408 52.5038 76.7408 52.1364C76.7408 51.769 76.7912 51.4087 76.8921 51.0557C77.0001 50.7027 77.1586 50.3858 77.3675 50.1048C77.5837 49.8166 77.8502 49.5897 78.1672 49.424C78.4842 49.2511 78.8552 49.1647 79.2802 49.1647ZM79.6584 50.3425C79.3343 50.3425 79.0605 50.4326 78.8372 50.6127C78.6211 50.7856 78.459 51.0089 78.3509 51.2827C78.2428 51.5564 78.1888 51.841 78.1888 52.1364C78.1888 52.4317 78.2428 52.7163 78.3509 52.9901C78.459 53.2638 78.6211 53.4907 78.8372 53.6708C79.0605 53.8437 79.3343 53.9302 79.6584 53.9302C79.9826 53.9302 80.2528 53.8437 80.4689 53.6708C80.685 53.4907 80.8471 53.2638 80.9552 52.9901C81.0633 52.7163 81.1173 52.4317 81.1173 52.1364C81.1173 51.841 81.0633 51.5564 80.9552 51.2827C80.8471 51.0089 80.685 50.7856 80.4689 50.6127C80.2528 50.4326 79.9826 50.3425 79.6584 50.3425ZM86.1891 55.1081C85.7208 55.1081 85.3354 55.0468 85.0328 54.9244C84.7303 54.7947 84.4889 54.6362 84.3088 54.4489C84.1359 54.2544 84.0062 54.0635 83.9198 53.8762C83.8333 53.6889 83.7757 53.534 83.7469 53.4115C83.7253 53.2818 83.7145 53.217 83.7145 53.217H85.0761C85.0761 53.217 85.0869 53.2566 85.1085 53.3358C85.1373 53.4151 85.1877 53.5087 85.2598 53.6168C85.339 53.7177 85.4579 53.8077 85.6164 53.887C85.7749 53.9662 85.9838 54.0058 86.2431 54.0058C86.5529 54.0058 86.7762 53.941 86.9131 53.8113C87.05 53.6744 87.1184 53.5232 87.1184 53.3575C87.1184 53.199 87.0572 53.0729 86.9347 52.9792C86.8195 52.8784 86.6466 52.8027 86.416 52.7523L85.6272 52.5902C85.3102 52.5254 85.0148 52.4317 84.7411 52.3093C84.4673 52.1796 84.244 52.0067 84.0711 51.7906C83.8982 51.5672 83.8117 51.2827 83.8117 50.9369C83.8117 50.4254 84.0062 50.0039 84.3953 49.6726C84.7843 49.334 85.3138 49.1647 85.9838 49.1647C86.4088 49.1647 86.7582 49.2223 87.032 49.3376C87.3129 49.4528 87.5363 49.5969 87.702 49.7698C87.8749 49.9427 88.0009 50.1156 88.0802 50.2885C88.1666 50.4614 88.2207 50.6091 88.2423 50.7316C88.2711 50.8468 88.2855 50.9045 88.2855 50.9045H86.9671C86.9671 50.9045 86.9563 50.872 86.9347 50.8072C86.9131 50.7352 86.8663 50.6559 86.7942 50.5695C86.7294 50.483 86.6285 50.4074 86.4917 50.3425C86.362 50.2705 86.1855 50.2345 85.9622 50.2345C85.6596 50.2345 85.4435 50.2993 85.3138 50.429C85.1913 50.5587 85.1301 50.6955 85.1301 50.8396C85.1301 50.9981 85.1985 51.1206 85.3354 51.207C85.4723 51.2935 85.6488 51.3583 85.8649 51.4015L86.6105 51.5636C87.1436 51.6717 87.5795 51.859 87.9181 52.1256C88.2639 52.3921 88.4368 52.7775 88.4368 53.2818C88.4368 53.6204 88.3467 53.9302 88.1666 54.2111C87.9937 54.4849 87.738 54.7046 87.3994 54.8703C87.068 55.0288 86.6646 55.1081 86.1891 55.1081ZM92.0523 55.1081C91.6633 55.1081 91.3427 55.0504 91.0905 54.9352C90.8384 54.8199 90.6403 54.6686 90.4962 54.4813C90.3593 54.294 90.2621 54.0887 90.2044 53.8654C90.1468 53.642 90.118 53.4223 90.118 53.2062V50.429H89.1346V49.2727H90.118V47.8463H91.5552V49.2727H92.8411V50.429H91.5552V53.1738C91.5552 53.6852 91.8434 53.941 92.4197 53.941C92.5566 53.941 92.6826 53.9338 92.7979 53.9194C92.9204 53.8978 92.9816 53.887 92.9816 53.887V55.0108C92.9816 55.0108 92.888 55.0252 92.7007 55.054C92.5206 55.0901 92.3044 55.1081 92.0523 55.1081ZM96.6888 55V53.9842L98.1909 52.6551C98.7384 52.1868 99.2103 51.7834 99.6065 51.4448C100.003 51.099 100.309 50.7748 100.525 50.4722C100.741 50.1696 100.849 49.8382 100.849 49.478C100.849 49.2043 100.781 48.9702 100.644 48.7756C100.514 48.5811 100.345 48.4334 100.136 48.3326C99.9271 48.2317 99.7109 48.1813 99.4876 48.1813C99.1778 48.1813 98.9257 48.2425 98.7312 48.365C98.5439 48.4875 98.3998 48.6352 98.2989 48.8081C98.2053 48.981 98.1404 49.1503 98.1044 49.316C98.0684 49.4744 98.0504 49.5933 98.0504 49.6726H96.6456C96.6456 49.5141 96.6708 49.3196 96.7212 49.089C96.7789 48.8513 96.8725 48.6063 97.0022 48.3542C97.1319 48.1021 97.3048 47.8643 97.5209 47.641C97.737 47.4177 98.0108 47.2376 98.3422 47.1007C98.6735 46.9638 99.0662 46.8954 99.52 46.8954C100.024 46.8954 100.485 46.9962 100.903 47.1979C101.328 47.3997 101.667 47.6878 101.919 48.0624C102.178 48.437 102.308 48.8873 102.308 49.4132C102.308 49.8959 102.186 50.3353 101.941 50.7316C101.703 51.1278 101.375 51.5168 100.957 51.8986C100.539 52.2732 100.064 52.6767 99.5308 53.1089L98.8609 53.7141H102.449V55H96.6888ZM107.307 55V53.2926L103.427 53.2818V51.9959L106.961 47.0034H108.766V52.0499H110.062V53.2926H108.766V55H107.307ZM104.875 52.0499H107.307V48.6136L104.875 52.0499ZM113.923 55V46.7873H115.36V50.094H115.425C115.483 49.9931 115.573 49.8707 115.695 49.7266C115.818 49.5753 115.987 49.4456 116.203 49.3376C116.419 49.2223 116.693 49.1647 117.025 49.1647C117.464 49.1647 117.824 49.2655 118.105 49.4672C118.393 49.6617 118.606 49.9211 118.743 50.2453C118.887 50.5695 118.959 50.9189 118.959 51.2935V55H117.522V51.488C117.522 51.1782 117.435 50.9117 117.262 50.6883C117.089 50.465 116.83 50.3533 116.484 50.3533C116.218 50.3533 116.002 50.4218 115.836 50.5587C115.67 50.6883 115.548 50.8576 115.469 51.0666C115.396 51.2755 115.36 51.4952 115.36 51.7257V55H113.923ZM123.105 55.1081C122.479 55.1081 121.945 54.9676 121.506 54.6866C121.067 54.4057 120.732 54.0419 120.501 53.5952C120.278 53.1413 120.166 52.6551 120.166 52.1364C120.166 51.6177 120.278 51.135 120.501 50.6883C120.732 50.2345 121.067 49.8671 121.506 49.5861C121.945 49.3051 122.479 49.1647 123.105 49.1647C123.739 49.1647 124.272 49.3051 124.705 49.5861C125.144 49.8671 125.475 50.2345 125.699 50.6883C125.929 51.135 126.045 51.6177 126.045 52.1364C126.045 52.6551 125.929 53.1413 125.699 53.5952C125.475 54.0419 125.144 54.4057 124.705 54.6866C124.272 54.9676 123.739 55.1081 123.105 55.1081ZM123.105 53.9086C123.429 53.9086 123.7 53.8257 123.916 53.66C124.139 53.4943 124.308 53.2782 124.424 53.0117C124.539 52.7379 124.597 52.4461 124.597 52.1364C124.597 51.8194 124.539 51.5276 124.424 51.2611C124.308 50.9945 124.139 50.7784 123.916 50.6127C123.7 50.447 123.429 50.3642 123.105 50.3642C122.788 50.3642 122.518 50.447 122.295 50.6127C122.071 50.7784 121.902 50.9945 121.787 51.2611C121.672 51.5276 121.614 51.8194 121.614 52.1364C121.614 52.4461 121.672 52.7379 121.787 53.0117C121.902 53.2782 122.071 53.4943 122.295 53.66C122.518 53.8257 122.788 53.9086 123.105 53.9086ZM129.117 55.1081C128.519 55.1081 128.065 54.9244 127.756 54.5569C127.453 54.1895 127.302 53.7177 127.302 53.1413V49.2727H128.728V52.9036C128.728 53.2134 128.811 53.4619 128.977 53.6492C129.142 53.8293 129.377 53.9194 129.679 53.9194C129.946 53.9194 130.162 53.8509 130.328 53.7141C130.493 53.5772 130.612 53.4007 130.684 53.1846C130.763 52.9684 130.803 52.7451 130.803 52.5146V49.2727H132.24V55H130.803V54.1787H130.738C130.666 54.3084 130.562 54.4453 130.425 54.5894C130.295 54.7334 130.122 54.8559 129.906 54.9568C129.697 55.0576 129.434 55.1081 129.117 55.1081ZM133.581 55V49.2727H135.007V50.0616H135.061C135.162 49.8382 135.328 49.6329 135.558 49.4456C135.789 49.2583 136.135 49.1647 136.596 49.1647C136.74 49.1647 136.859 49.1755 136.952 49.1971C137.046 49.2115 137.093 49.2187 137.093 49.2187V50.6127C137.093 50.6127 137.039 50.6055 136.931 50.5911C136.83 50.5767 136.704 50.5695 136.552 50.5695C136.048 50.5695 135.666 50.7099 135.407 50.9909C135.148 51.2719 135.018 51.7257 135.018 52.3525V55H133.581ZM140.389 55.1081C139.921 55.1081 139.535 55.0468 139.233 54.9244C138.93 54.7947 138.689 54.6362 138.509 54.4489C138.336 54.2544 138.206 54.0635 138.12 53.8762C138.033 53.6889 137.975 53.534 137.947 53.4115C137.925 53.2818 137.914 53.217 137.914 53.217H139.276C139.276 53.217 139.287 53.2566 139.308 53.3358C139.337 53.4151 139.387 53.5087 139.459 53.6168C139.539 53.7177 139.658 53.8077 139.816 53.887C139.975 53.9662 140.183 54.0058 140.443 54.0058C140.753 54.0058 140.976 53.941 141.113 53.8113C141.25 53.6744 141.318 53.5232 141.318 53.3575C141.318 53.199 141.257 53.0729 141.134 52.9792C141.019 52.8784 140.846 52.8027 140.616 52.7523L139.827 52.5902C139.51 52.5254 139.215 52.4317 138.941 52.3093C138.667 52.1796 138.444 52.0067 138.271 51.7906C138.098 51.5672 138.011 51.2827 138.011 50.9369C138.011 50.4254 138.206 50.0039 138.595 49.6726C138.984 49.334 139.514 49.1647 140.183 49.1647C140.609 49.1647 140.958 49.2223 141.232 49.3376C141.513 49.4528 141.736 49.5969 141.902 49.7698C142.075 49.9427 142.201 50.1156 142.28 50.2885C142.366 50.4614 142.42 50.6091 142.442 50.7316C142.471 50.8468 142.485 50.9045 142.485 50.9045H141.167C141.167 50.9045 141.156 50.872 141.134 50.8072C141.113 50.7352 141.066 50.6559 140.994 50.5695C140.929 50.483 140.828 50.4074 140.691 50.3425C140.562 50.2705 140.385 50.2345 140.162 50.2345C139.859 50.2345 139.643 50.2993 139.514 50.429C139.391 50.5587 139.33 50.6955 139.33 50.8396C139.33 50.9981 139.398 51.1206 139.535 51.207C139.672 51.2935 139.849 51.3583 140.065 51.4015L140.81 51.5636C141.343 51.6717 141.779 51.859 142.118 52.1256C142.464 52.3921 142.637 52.7775 142.637 53.2818C142.637 53.6204 142.546 53.9302 142.366 54.2111C142.193 54.4849 141.938 54.7046 141.599 54.8703C141.268 55.0288 140.864 55.1081 140.389 55.1081Z" fill="#535355"/>
    <path d="M73.7975 93C74.5975 93 75.2908 93.1493 75.8775 93.448C76.4748 93.736 76.9655 94.1307 77.3495 94.632C77.7335 95.1333 78.0162 95.7093 78.1975 96.36C78.3895 97.0107 78.4855 97.6933 78.4855 98.408C78.4855 99.016 78.4108 99.64 78.2615 100.28C78.1228 100.909 77.8988 101.517 77.5895 102.104C77.2908 102.68 76.8962 103.203 76.4055 103.672C75.9148 104.131 75.3282 104.493 74.6455 104.76C73.9628 105.027 73.1735 105.16 72.2775 105.16C71.7975 105.16 71.3762 105.128 71.0135 105.064C70.6615 105 70.4855 104.968 70.4855 104.968V103.016C70.4855 103.016 70.5762 103.032 70.7575 103.064C70.9495 103.096 71.1788 103.128 71.4455 103.16C71.7228 103.192 72.0002 103.208 72.2775 103.208C72.9602 103.208 73.5468 103.096 74.0375 102.872C74.5282 102.648 74.9282 102.355 75.2375 101.992C75.5468 101.619 75.7815 101.219 75.9415 100.792C76.1122 100.365 76.2082 99.9547 76.2295 99.56C76.1335 99.72 75.9735 99.912 75.7495 100.136C75.5362 100.36 75.2322 100.557 74.8375 100.728C74.4535 100.899 73.9628 100.984 73.3655 100.984C72.5015 100.984 71.7815 100.797 71.2055 100.424C70.6295 100.051 70.1975 99.5707 69.9095 98.984C69.6215 98.3867 69.4775 97.7627 69.4775 97.112C69.4775 96.6 69.5682 96.104 69.7495 95.624C69.9308 95.1333 70.1975 94.6907 70.5495 94.296C70.9122 93.9013 71.3602 93.5867 71.8935 93.352C72.4375 93.1173 73.0722 93 73.7975 93ZM73.7975 94.808C73.1895 94.808 72.6668 95.0107 72.2295 95.416C71.8028 95.8107 71.5895 96.3547 71.5895 97.048C71.5895 97.7413 71.8028 98.2907 72.2295 98.696C72.6668 99.0907 73.1895 99.288 73.7975 99.288C74.4055 99.288 74.9282 99.0907 75.3655 98.696C75.8028 98.2907 76.0215 97.7413 76.0215 97.048C76.0215 96.3547 75.8028 95.8107 75.3655 95.416C74.9282 95.0107 74.4055 94.808 73.7975 94.808ZM84.8913 93C85.6913 93 86.3846 93.1493 86.9713 93.448C87.5686 93.736 88.0593 94.1307 88.4433 94.632C88.8273 95.1333 89.1099 95.7093 89.2913 96.36C89.4833 97.0107 89.5793 97.6933 89.5793 98.408C89.5793 99.016 89.5046 99.64 89.3553 100.28C89.2166 100.909 88.9926 101.517 88.6833 102.104C88.3846 102.68 87.9899 103.203 87.4993 103.672C87.0086 104.131 86.4219 104.493 85.7393 104.76C85.0566 105.027 84.2673 105.16 83.3713 105.16C82.8913 105.16 82.4699 105.128 82.1073 105.064C81.7553 105 81.5793 104.968 81.5793 104.968V103.016C81.5793 103.016 81.6699 103.032 81.8513 103.064C82.0433 103.096 82.2726 103.128 82.5393 103.16C82.8166 103.192 83.0939 103.208 83.3713 103.208C84.0539 103.208 84.6406 103.096 85.1313 102.872C85.6219 102.648 86.0219 102.355 86.3313 101.992C86.6406 101.619 86.8753 101.219 87.0353 100.792C87.2059 100.365 87.3019 99.9547 87.3233 99.56C87.2273 99.72 87.0673 99.912 86.8433 100.136C86.6299 100.36 86.3259 100.557 85.9313 100.728C85.5473 100.899 85.0566 100.984 84.4593 100.984C83.5953 100.984 82.8753 100.797 82.2993 100.424C81.7233 100.051 81.2913 99.5707 81.0033 98.984C80.7153 98.3867 80.5713 97.7627 80.5713 97.112C80.5713 96.6 80.6619 96.104 80.8433 95.624C81.0246 95.1333 81.2913 94.6907 81.6432 94.296C82.0059 93.9013 82.4539 93.5867 82.9873 93.352C83.5313 93.1173 84.1659 93 84.8913 93ZM84.8913 94.808C84.2833 94.808 83.7606 95.0107 83.3233 95.416C82.8966 95.8107 82.6833 96.3547 82.6833 97.048C82.6833 97.7413 82.8966 98.2907 83.3233 98.696C83.7606 99.0907 84.2833 99.288 84.8913 99.288C85.4993 99.288 86.0219 99.0907 86.4593 98.696C86.8966 98.2907 87.1153 97.7413 87.1153 97.048C87.1153 96.3547 86.8966 95.8107 86.4593 95.416C86.0219 95.0107 85.4993 94.808 84.8913 94.808ZM91.937 107.192L93.201 105.128C92.8703 105.107 92.5983 104.979 92.385 104.744C92.1717 104.509 92.065 104.221 92.065 103.88C92.065 103.517 92.1877 103.224 92.433 103C92.6783 102.765 92.977 102.648 93.329 102.648C93.7023 102.648 94.0117 102.765 94.257 103C94.513 103.224 94.641 103.539 94.641 103.944C94.641 104.285 94.513 104.68 94.257 105.128C94.001 105.576 93.5797 106.211 92.993 107.032L92.865 107.192H91.937ZM101.298 93C102.098 93 102.791 93.1493 103.378 93.448C103.975 93.736 104.466 94.1307 104.85 94.632C105.234 95.1333 105.516 95.7093 105.698 96.36C105.89 97.0107 105.986 97.6933 105.986 98.408C105.986 99.016 105.911 99.64 105.762 100.28C105.623 100.909 105.399 101.517 105.09 102.104C104.791 102.68 104.396 103.203 103.906 103.672C103.415 104.131 102.828 104.493 102.146 104.76C101.463 105.027 100.674 105.16 99.7775 105.16C99.2975 105.16 98.8762 105.128 98.5135 105.064C98.1615 105 97.9855 104.968 97.9855 104.968V103.016C97.9855 103.016 98.0762 103.032 98.2575 103.064C98.4495 103.096 98.6788 103.128 98.9455 103.16C99.2228 103.192 99.5002 103.208 99.7775 103.208C100.46 103.208 101.047 103.096 101.538 102.872C102.028 102.648 102.428 102.355 102.738 101.992C103.047 101.619 103.282 101.219 103.442 100.792C103.612 100.365 103.708 99.9547 103.73 99.56C103.634 99.72 103.474 99.912 103.25 100.136C103.036 100.36 102.732 100.557 102.338 100.728C101.954 100.899 101.463 100.984 100.866 100.984C100.002 100.984 99.2815 100.797 98.7055 100.424C98.1295 100.051 97.6975 99.5707 97.4095 98.984C97.1215 98.3867 96.9775 97.7627 96.9775 97.112C96.9775 96.6 97.0682 96.104 97.2495 95.624C97.4308 95.1333 97.6975 94.6907 98.0495 94.296C98.4122 93.9013 98.8602 93.5867 99.3935 93.352C99.9375 93.1173 100.572 93 101.298 93ZM101.298 94.808C100.69 94.808 100.167 95.0107 99.7295 95.416C99.3028 95.8107 99.0895 96.3547 99.0895 97.048C99.0895 97.7413 99.3028 98.2907 99.7295 98.696C100.167 99.0907 100.69 99.288 101.298 99.288C101.906 99.288 102.428 99.0907 102.866 98.696C103.303 98.2907 103.522 97.7413 103.522 97.048C103.522 96.3547 103.303 95.8107 102.866 95.416C102.428 95.0107 101.906 94.808 101.298 94.808ZM109.889 105C109.932 104.008 110.06 103.069 110.273 102.184C110.497 101.299 110.769 100.483 111.089 99.736C111.42 98.9787 111.767 98.296 112.129 97.688C112.492 97.08 112.833 96.5573 113.153 96.12C113.484 95.672 113.761 95.32 113.985 95.064H107.953V93.16H116.401V94.728C116.401 94.728 116.3 94.84 116.097 95.064C115.905 95.2773 115.649 95.5973 115.329 96.024C115.02 96.44 114.684 96.952 114.321 97.56C113.959 98.1573 113.612 98.84 113.281 99.608C112.961 100.365 112.684 101.197 112.449 102.104C112.225 103.011 112.097 103.976 112.065 105H109.889ZM121.891 105.16C121.081 105.16 120.398 105.037 119.843 104.792C119.289 104.547 118.841 104.232 118.499 103.848C118.169 103.464 117.929 103.053 117.779 102.616C117.63 102.179 117.555 101.773 117.555 101.4H119.603C119.603 101.72 119.683 102.035 119.843 102.344C120.014 102.643 120.27 102.888 120.611 103.08C120.953 103.261 121.374 103.352 121.875 103.352C122.494 103.352 123.011 103.192 123.427 102.872C123.854 102.541 124.067 102.088 124.067 101.512C124.067 101 123.886 100.584 123.523 100.264C123.171 99.944 122.681 99.784 122.051 99.784H120.451V98.104H122.067C122.601 98.104 123.038 97.9547 123.379 97.656C123.721 97.3573 123.891 96.9733 123.891 96.504C123.891 95.992 123.694 95.5813 123.299 95.272C122.915 94.952 122.441 94.792 121.875 94.792C121.417 94.792 121.033 94.8933 120.723 95.096C120.414 95.288 120.179 95.5387 120.019 95.848C119.859 96.1573 119.779 96.4773 119.779 96.808H117.779C117.779 96.424 117.849 96.0133 117.987 95.576C118.137 95.1387 118.371 94.728 118.691 94.344C119.022 93.9493 119.449 93.6293 119.971 93.384C120.505 93.128 121.15 93 121.907 93C122.611 93 123.273 93.1333 123.891 93.4C124.521 93.656 125.027 94.0347 125.411 94.536C125.806 95.0267 126.003 95.6133 126.003 96.296C126.003 96.7547 125.913 97.16 125.731 97.512C125.561 97.864 125.337 98.152 125.059 98.376C124.793 98.6 124.51 98.7653 124.211 98.872V98.968C124.766 99.16 125.241 99.4747 125.635 99.912C126.03 100.349 126.227 100.92 126.227 101.624C126.227 102.371 126.025 103.011 125.619 103.544C125.225 104.067 124.697 104.467 124.035 104.744C123.374 105.021 122.659 105.16 121.891 105.16ZM134.488 98.104C133.965 98.104 133.507 97.992 133.112 97.768C132.717 97.544 132.408 97.24 132.184 96.856C131.971 96.4613 131.864 96.024 131.864 95.544C131.864 95.064 131.971 94.632 132.184 94.248C132.408 93.864 132.717 93.56 133.112 93.336C133.507 93.112 133.965 93 134.488 93C135.011 93 135.464 93.112 135.848 93.336C136.243 93.56 136.547 93.864 136.76 94.248C136.984 94.632 137.096 95.064 137.096 95.544C137.096 96.024 136.984 96.4613 136.76 96.856C136.547 97.24 136.243 97.544 135.848 97.768C135.464 97.992 135.011 98.104 134.488 98.104ZM133.768 105L140.264 93.16H142.056L135.544 105H133.768ZM134.472 96.76C134.813 96.76 135.091 96.648 135.304 96.424C135.528 96.2 135.64 95.912 135.64 95.56C135.64 95.1973 135.528 94.904 135.304 94.68C135.091 94.456 134.813 94.344 134.472 94.344C134.141 94.344 133.864 94.456 133.64 94.68C133.427 94.904 133.32 95.1973 133.32 95.56C133.32 95.912 133.427 96.2 133.64 96.424C133.864 96.648 134.141 96.76 134.472 96.76ZM141.336 105.16C140.813 105.16 140.355 105.048 139.96 104.824C139.565 104.6 139.256 104.296 139.032 103.912C138.819 103.528 138.712 103.091 138.712 102.6C138.712 102.12 138.819 101.688 139.032 101.304C139.256 100.92 139.565 100.616 139.96 100.392C140.355 100.168 140.813 100.056 141.336 100.056C141.859 100.056 142.312 100.168 142.696 100.392C143.091 100.616 143.395 100.92 143.608 101.304C143.832 101.688 143.944 102.12 143.944 102.6C143.944 103.08 143.837 103.517 143.624 103.912C143.411 104.296 143.107 104.6 142.712 104.824C142.317 105.048 141.859 105.16 141.336 105.16ZM141.336 103.832C141.667 103.832 141.939 103.72 142.152 103.496C142.376 103.261 142.488 102.968 142.488 102.616C142.488 102.253 142.376 101.96 142.152 101.736C141.939 101.512 141.667 101.4 141.336 101.4C140.995 101.4 140.712 101.512 140.488 101.736C140.275 101.96 140.168 102.253 140.168 102.616C140.168 102.968 140.275 103.261 140.488 103.496C140.712 103.72 140.995 103.832 141.336 103.832Z" fill="url(#paint1_linear_26_15753)"/>
    <rect x="202.75" y="32.5" width="132.25" height="124" rx="7.5" stroke="#535355"/>
    <rect x="210.25" y="40" width="117.25" height="22" rx="4" fill="white"/>
    <path d="M238.653 55V47.0034H240.123V53.7249H244.099V55H238.653ZM247.53 49.1647C247.898 49.1647 248.2 49.2259 248.438 49.3484C248.676 49.4636 248.863 49.5933 249 49.7374C249.137 49.8743 249.23 49.9859 249.281 50.0724H249.346V49.2727H250.783V55H249.346V54.2003H249.281C249.23 54.2868 249.137 54.4021 249 54.5461C248.863 54.6902 248.676 54.8199 248.438 54.9352C248.2 55.0504 247.898 55.1081 247.53 55.1081C247.105 55.1081 246.734 55.0252 246.417 54.8595C246.1 54.6866 245.834 54.4597 245.618 54.1787C245.409 53.8906 245.25 53.57 245.142 53.217C245.041 52.864 244.991 52.5038 244.991 52.1364C244.991 51.769 245.041 51.4087 245.142 51.0557C245.25 50.7027 245.409 50.3858 245.618 50.1048C245.834 49.8166 246.1 49.5897 246.417 49.424C246.734 49.2511 247.105 49.1647 247.53 49.1647ZM247.908 50.3425C247.584 50.3425 247.311 50.4326 247.087 50.6127C246.871 50.7856 246.709 51.0089 246.601 51.2827C246.493 51.5564 246.439 51.841 246.439 52.1364C246.439 52.4317 246.493 52.7163 246.601 52.9901C246.709 53.2638 246.871 53.4907 247.087 53.6708C247.311 53.8437 247.584 53.9302 247.908 53.9302C248.233 53.9302 248.503 53.8437 248.719 53.6708C248.935 53.4907 249.097 53.2638 249.205 52.9901C249.313 52.7163 249.367 52.4317 249.367 52.1364C249.367 51.841 249.313 51.5564 249.205 51.2827C249.097 51.0089 248.935 50.7856 248.719 50.6127C248.503 50.4326 248.233 50.3425 247.908 50.3425ZM254.439 55.1081C253.971 55.1081 253.585 55.0468 253.283 54.9244C252.98 54.7947 252.739 54.6362 252.559 54.4489C252.386 54.2544 252.256 54.0635 252.17 53.8762C252.083 53.6889 252.026 53.534 251.997 53.4115C251.975 53.2818 251.964 53.217 251.964 53.217H253.326C253.326 53.217 253.337 53.2566 253.358 53.3358C253.387 53.4151 253.438 53.5087 253.51 53.6168C253.589 53.7177 253.708 53.8077 253.866 53.887C254.025 53.9662 254.234 54.0058 254.493 54.0058C254.803 54.0058 255.026 53.941 255.163 53.8113C255.3 53.6744 255.368 53.5232 255.368 53.3575C255.368 53.199 255.307 53.0729 255.185 52.9792C255.069 52.8784 254.897 52.8027 254.666 52.7523L253.877 52.5902C253.56 52.5254 253.265 52.4317 252.991 52.3093C252.717 52.1796 252.494 52.0067 252.321 51.7906C252.148 51.5672 252.062 51.2827 252.062 50.9369C252.062 50.4254 252.256 50.0039 252.645 49.6726C253.034 49.334 253.564 49.1647 254.234 49.1647C254.659 49.1647 255.008 49.2223 255.282 49.3376C255.563 49.4528 255.786 49.5969 255.952 49.7698C256.125 49.9427 256.251 50.1156 256.33 50.2885C256.417 50.4614 256.471 50.6091 256.492 50.7316C256.521 50.8468 256.535 50.9045 256.535 50.9045H255.217C255.217 50.9045 255.206 50.872 255.185 50.8072C255.163 50.7352 255.116 50.6559 255.044 50.5695C254.979 50.483 254.879 50.4074 254.742 50.3425C254.612 50.2705 254.435 50.2345 254.212 50.2345C253.91 50.2345 253.693 50.2993 253.564 50.429C253.441 50.5587 253.38 50.6955 253.38 50.8396C253.38 50.9981 253.449 51.1206 253.585 51.207C253.722 51.2935 253.899 51.3583 254.115 51.4015L254.861 51.5636C255.394 51.6717 255.829 51.859 256.168 52.1256C256.514 52.3921 256.687 52.7775 256.687 53.2818C256.687 53.6204 256.597 53.9302 256.417 54.2111C256.244 54.4849 255.988 54.7046 255.649 54.8703C255.318 55.0288 254.915 55.1081 254.439 55.1081ZM260.302 55.1081C259.913 55.1081 259.593 55.0504 259.341 54.9352C259.088 54.8199 258.89 54.6686 258.746 54.4813C258.609 54.294 258.512 54.0887 258.454 53.8654C258.397 53.642 258.368 53.4223 258.368 53.2062V50.429H257.385V49.2727H258.368V47.8463H259.805V49.2727H261.091V50.429H259.805V53.1738C259.805 53.6852 260.093 53.941 260.67 53.941C260.807 53.941 260.933 53.9338 261.048 53.9194C261.17 53.8978 261.232 53.887 261.232 53.887V55.0108C261.232 55.0108 261.138 55.0252 260.951 55.054C260.771 55.0901 260.554 55.1081 260.302 55.1081ZM265.987 55C266.016 54.33 266.102 53.6961 266.246 53.0981C266.398 52.5002 266.581 51.9491 266.797 51.4448C267.021 50.9333 267.255 50.4722 267.5 50.0616C267.745 49.6509 267.975 49.2979 268.191 49.0026C268.415 48.7 268.602 48.4623 268.753 48.2894H264.679V47.0034H270.385V48.0624C270.385 48.0624 270.317 48.1381 270.18 48.2894C270.05 48.4334 269.877 48.6496 269.661 48.9377C269.452 49.2187 269.225 49.5645 268.98 49.9751C268.735 50.3786 268.501 50.8396 268.278 51.3583C268.062 51.8698 267.874 52.4317 267.716 53.0441C267.565 53.6564 267.478 54.3084 267.457 55H265.987ZM276.276 55.1081C275.851 55.1081 275.48 55.0252 275.163 54.8595C274.846 54.6866 274.58 54.4597 274.364 54.1787C274.155 53.8906 273.996 53.57 273.888 53.217C273.787 52.864 273.737 52.5038 273.737 52.1364C273.737 51.769 273.787 51.4087 273.888 51.0557C273.996 50.7027 274.155 50.3858 274.364 50.1048C274.58 49.8166 274.846 49.5897 275.163 49.424C275.48 49.2511 275.851 49.1647 276.276 49.1647C276.644 49.1647 276.946 49.2259 277.184 49.3484C277.422 49.4636 277.609 49.5933 277.746 49.7374C277.883 49.8743 277.977 49.9859 278.027 50.0724H278.092V46.7873H279.529V55H278.092V54.2003H278.027C277.977 54.2868 277.883 54.4021 277.746 54.5461C277.609 54.6902 277.422 54.8199 277.184 54.9352C276.946 55.0504 276.644 55.1081 276.276 55.1081ZM276.655 53.9302C276.979 53.9302 277.249 53.8437 277.465 53.6708C277.681 53.4907 277.843 53.2638 277.951 52.9901C278.059 52.7163 278.113 52.4317 278.113 52.1364C278.113 51.841 278.059 51.5564 277.951 51.2827C277.843 51.0089 277.681 50.7856 277.465 50.6127C277.249 50.4326 276.979 50.3425 276.655 50.3425C276.33 50.3425 276.057 50.4326 275.833 50.6127C275.617 50.7856 275.455 51.0089 275.347 51.2827C275.239 51.5564 275.185 51.841 275.185 52.1364C275.185 52.4317 275.239 52.7163 275.347 52.9901C275.455 53.2638 275.617 53.4907 275.833 53.6708C276.057 53.8437 276.33 53.9302 276.655 53.9302ZM283.389 49.1647C283.756 49.1647 284.059 49.2259 284.297 49.3484C284.534 49.4636 284.722 49.5933 284.859 49.7374C284.996 49.8743 285.089 49.9859 285.14 50.0724H285.204V49.2727H286.642V55H285.204V54.2003H285.14C285.089 54.2868 284.996 54.4021 284.859 54.5461C284.722 54.6902 284.534 54.8199 284.297 54.9352C284.059 55.0504 283.756 55.1081 283.389 55.1081C282.964 55.1081 282.593 55.0252 282.276 54.8595C281.959 54.6866 281.692 54.4597 281.476 54.1787C281.267 53.8906 281.109 53.57 281.001 53.217C280.9 52.864 280.85 52.5038 280.85 52.1364C280.85 51.769 280.9 51.4087 281.001 51.0557C281.109 50.7027 281.267 50.3858 281.476 50.1048C281.692 49.8166 281.959 49.5897 282.276 49.424C282.593 49.2511 282.964 49.1647 283.389 49.1647ZM283.767 50.3425C283.443 50.3425 283.169 50.4326 282.946 50.6127C282.73 50.7856 282.568 51.0089 282.46 51.2827C282.352 51.5564 282.298 51.841 282.298 52.1364C282.298 52.4317 282.352 52.7163 282.46 52.9901C282.568 53.2638 282.73 53.4907 282.946 53.6708C283.169 53.8437 283.443 53.9302 283.767 53.9302C284.091 53.9302 284.362 53.8437 284.578 53.6708C284.794 53.4907 284.956 53.2638 285.064 52.9901C285.172 52.7163 285.226 52.4317 285.226 52.1364C285.226 51.841 285.172 51.5564 285.064 51.2827C284.956 51.0089 284.794 50.7856 284.578 50.6127C284.362 50.4326 284.091 50.3425 283.767 50.3425ZM288.237 57.1072C288.05 57.1072 287.895 57.1 287.773 57.0856C287.657 57.0712 287.6 57.064 287.6 57.064V55.8861C287.6 55.8861 287.654 55.8897 287.762 55.8969C287.87 55.9113 287.996 55.9185 288.14 55.9185C288.507 55.9185 288.81 55.8573 289.048 55.7348C289.293 55.6196 289.498 55.3998 289.664 55.0756L287.513 49.2727H288.972L290.409 53.3575L291.825 49.2727H293.284L291.187 54.8595C290.899 55.6232 290.528 56.1887 290.074 56.5561C289.62 56.9235 289.008 57.1072 288.237 57.1072ZM296.366 55.1081C295.898 55.1081 295.512 55.0468 295.21 54.9244C294.907 54.7947 294.666 54.6362 294.486 54.4489C294.313 54.2544 294.183 54.0635 294.096 53.8762C294.01 53.6889 293.952 53.534 293.924 53.4115C293.902 53.2818 293.891 53.217 293.891 53.217H295.253C295.253 53.217 295.264 53.2566 295.285 53.3358C295.314 53.4151 295.364 53.5087 295.436 53.6168C295.516 53.7177 295.635 53.8077 295.793 53.887C295.952 53.9662 296.16 54.0058 296.42 54.0058C296.73 54.0058 296.953 53.941 297.09 53.8113C297.227 53.6744 297.295 53.5232 297.295 53.3575C297.295 53.199 297.234 53.0729 297.111 52.9792C296.996 52.8784 296.823 52.8027 296.593 52.7523L295.804 52.5902C295.487 52.5254 295.192 52.4317 294.918 52.3093C294.644 52.1796 294.421 52.0067 294.248 51.7906C294.075 51.5672 293.988 51.2827 293.988 50.9369C293.988 50.4254 294.183 50.0039 294.572 49.6726C294.961 49.334 295.49 49.1647 296.16 49.1647C296.586 49.1647 296.935 49.2223 297.209 49.3376C297.49 49.4528 297.713 49.5969 297.879 49.7698C298.052 49.9427 298.178 50.1156 298.257 50.2885C298.343 50.4614 298.397 50.6091 298.419 50.7316C298.448 50.8468 298.462 50.9045 298.462 50.9045H297.144C297.144 50.9045 297.133 50.872 297.111 50.8072C297.09 50.7352 297.043 50.6559 296.971 50.5695C296.906 50.483 296.805 50.4074 296.668 50.3425C296.539 50.2705 296.362 50.2345 296.139 50.2345C295.836 50.2345 295.62 50.2993 295.49 50.429C295.368 50.5587 295.307 50.6955 295.307 50.8396C295.307 50.9981 295.375 51.1206 295.512 51.207C295.649 51.2935 295.825 51.3583 296.042 51.4015L296.787 51.5636C297.32 51.6717 297.756 51.859 298.095 52.1256C298.441 52.3921 298.613 52.7775 298.613 53.2818C298.613 53.6204 298.523 53.9302 298.343 54.2111C298.17 54.4849 297.915 54.7046 297.576 54.8703C297.245 55.0288 296.841 55.1081 296.366 55.1081Z" fill="#535355"/>
    <path d="M235.094 93C235.894 93 236.588 93.1493 237.174 93.448C237.772 93.736 238.262 94.1307 238.646 94.632C239.03 95.1333 239.313 95.7093 239.494 96.36C239.686 97.0107 239.782 97.6933 239.782 98.408C239.782 99.016 239.708 99.64 239.558 100.28C239.42 100.909 239.196 101.517 238.886 102.104C238.588 102.68 238.193 103.203 237.702 103.672C237.212 104.131 236.625 104.493 235.942 104.76C235.26 105.027 234.47 105.16 233.574 105.16C233.094 105.16 232.673 105.128 232.31 105.064C231.958 105 231.782 104.968 231.782 104.968V103.016C231.782 103.016 231.873 103.032 232.054 103.064C232.246 103.096 232.476 103.128 232.742 103.16C233.02 103.192 233.297 103.208 233.574 103.208C234.257 103.208 234.844 103.096 235.334 102.872C235.825 102.648 236.225 102.355 236.534 101.992C236.844 101.619 237.078 101.219 237.238 100.792C237.409 100.365 237.505 99.9547 237.526 99.56C237.43 99.72 237.27 99.912 237.046 100.136C236.833 100.36 236.529 100.557 236.134 100.728C235.75 100.899 235.26 100.984 234.662 100.984C233.798 100.984 233.078 100.797 232.502 100.424C231.926 100.051 231.494 99.5707 231.206 98.984C230.918 98.3867 230.774 97.7627 230.774 97.112C230.774 96.6 230.865 96.104 231.046 95.624C231.228 95.1333 231.494 94.6907 231.846 94.296C232.209 93.9013 232.657 93.5867 233.19 93.352C233.734 93.1173 234.369 93 235.094 93ZM235.094 94.808C234.486 94.808 233.964 95.0107 233.526 95.416C233.1 95.8107 232.886 96.3547 232.886 97.048C232.886 97.7413 233.1 98.2907 233.526 98.696C233.964 99.0907 234.486 99.288 235.094 99.288C235.702 99.288 236.225 99.0907 236.662 98.696C237.1 98.2907 237.318 97.7413 237.318 97.048C237.318 96.3547 237.1 95.8107 236.662 95.416C236.225 95.0107 235.702 94.808 235.094 94.808ZM246.188 93C246.988 93 247.681 93.1493 248.268 93.448C248.865 93.736 249.356 94.1307 249.74 94.632C250.124 95.1333 250.407 95.7093 250.588 96.36C250.78 97.0107 250.876 97.6933 250.876 98.408C250.876 99.016 250.801 99.64 250.652 100.28C250.513 100.909 250.289 101.517 249.98 102.104C249.681 102.68 249.287 103.203 248.796 103.672C248.305 104.131 247.719 104.493 247.036 104.76C246.353 105.027 245.564 105.16 244.668 105.16C244.188 105.16 243.767 105.128 243.404 105.064C243.052 105 242.876 104.968 242.876 104.968V103.016C242.876 103.016 242.967 103.032 243.148 103.064C243.34 103.096 243.569 103.128 243.836 103.16C244.113 103.192 244.391 103.208 244.668 103.208C245.351 103.208 245.937 103.096 246.428 102.872C246.919 102.648 247.319 102.355 247.628 101.992C247.937 101.619 248.172 101.219 248.332 100.792C248.503 100.365 248.599 99.9547 248.62 99.56C248.524 99.72 248.364 99.912 248.14 100.136C247.927 100.36 247.623 100.557 247.228 100.728C246.844 100.899 246.353 100.984 245.756 100.984C244.892 100.984 244.172 100.797 243.596 100.424C243.02 100.051 242.588 99.5707 242.3 98.984C242.012 98.3867 241.868 97.7627 241.868 97.112C241.868 96.6 241.959 96.104 242.14 95.624C242.321 95.1333 242.588 94.6907 242.94 94.296C243.303 93.9013 243.751 93.5867 244.284 93.352C244.828 93.1173 245.463 93 246.188 93ZM246.188 94.808C245.58 94.808 245.057 95.0107 244.62 95.416C244.193 95.8107 243.98 96.3547 243.98 97.048C243.98 97.7413 244.193 98.2907 244.62 98.696C245.057 99.0907 245.58 99.288 246.188 99.288C246.796 99.288 247.319 99.0907 247.756 98.696C248.193 98.2907 248.412 97.7413 248.412 97.048C248.412 96.3547 248.193 95.8107 247.756 95.416C247.319 95.0107 246.796 94.808 246.188 94.808ZM253.234 107.192L254.498 105.128C254.167 105.107 253.895 104.979 253.682 104.744C253.469 104.509 253.362 104.221 253.362 103.88C253.362 103.517 253.485 103.224 253.73 103C253.975 102.765 254.274 102.648 254.626 102.648C254.999 102.648 255.309 102.765 255.554 103C255.81 103.224 255.938 103.539 255.938 103.944C255.938 104.285 255.81 104.68 255.554 105.128C255.298 105.576 254.877 106.211 254.29 107.032L254.162 107.192H253.234ZM262.594 93C263.394 93 264.088 93.1493 264.674 93.448C265.272 93.736 265.762 94.1307 266.146 94.632C266.53 95.1333 266.813 95.7093 266.994 96.36C267.186 97.0107 267.282 97.6933 267.282 98.408C267.282 99.016 267.208 99.64 267.058 100.28C266.92 100.909 266.696 101.517 266.386 102.104C266.088 102.68 265.693 103.203 265.202 103.672C264.712 104.131 264.125 104.493 263.442 104.76C262.76 105.027 261.97 105.16 261.074 105.16C260.594 105.16 260.173 105.128 259.81 105.064C259.458 105 259.282 104.968 259.282 104.968V103.016C259.282 103.016 259.373 103.032 259.554 103.064C259.746 103.096 259.976 103.128 260.242 103.16C260.52 103.192 260.797 103.208 261.074 103.208C261.757 103.208 262.344 103.096 262.834 102.872C263.325 102.648 263.725 102.355 264.034 101.992C264.344 101.619 264.578 101.219 264.738 100.792C264.909 100.365 265.005 99.9547 265.026 99.56C264.93 99.72 264.77 99.912 264.546 100.136C264.333 100.36 264.029 100.557 263.634 100.728C263.25 100.899 262.76 100.984 262.162 100.984C261.298 100.984 260.578 100.797 260.002 100.424C259.426 100.051 258.994 99.5707 258.706 98.984C258.418 98.3867 258.274 97.7627 258.274 97.112C258.274 96.6 258.365 96.104 258.546 95.624C258.728 95.1333 258.994 94.6907 259.346 94.296C259.709 93.9013 260.157 93.5867 260.69 93.352C261.234 93.1173 261.869 93 262.594 93ZM262.594 94.808C261.986 94.808 261.464 95.0107 261.026 95.416C260.6 95.8107 260.386 96.3547 260.386 97.048C260.386 97.7413 260.6 98.2907 261.026 98.696C261.464 99.0907 261.986 99.288 262.594 99.288C263.202 99.288 263.725 99.0907 264.162 98.696C264.6 98.2907 264.818 97.7413 264.818 97.048C264.818 96.3547 264.6 95.8107 264.162 95.416C263.725 95.0107 263.202 94.808 262.594 94.808ZM273.688 93C274.488 93 275.181 93.1493 275.768 93.448C276.365 93.736 276.856 94.1307 277.24 94.632C277.624 95.1333 277.907 95.7093 278.088 96.36C278.28 97.0107 278.376 97.6933 278.376 98.408C278.376 99.016 278.301 99.64 278.152 100.28C278.013 100.909 277.789 101.517 277.48 102.104C277.181 102.68 276.787 103.203 276.296 103.672C275.805 104.131 275.219 104.493 274.536 104.76C273.853 105.027 273.064 105.16 272.168 105.16C271.688 105.16 271.267 105.128 270.904 105.064C270.552 105 270.376 104.968 270.376 104.968V103.016C270.376 103.016 270.467 103.032 270.648 103.064C270.84 103.096 271.069 103.128 271.336 103.16C271.613 103.192 271.891 103.208 272.168 103.208C272.851 103.208 273.437 103.096 273.928 102.872C274.419 102.648 274.819 102.355 275.128 101.992C275.437 101.619 275.672 101.219 275.832 100.792C276.003 100.365 276.099 99.9547 276.12 99.56C276.024 99.72 275.864 99.912 275.64 100.136C275.427 100.36 275.123 100.557 274.728 100.728C274.344 100.899 273.853 100.984 273.256 100.984C272.392 100.984 271.672 100.797 271.096 100.424C270.52 100.051 270.088 99.5707 269.8 98.984C269.512 98.3867 269.368 97.7627 269.368 97.112C269.368 96.6 269.459 96.104 269.64 95.624C269.821 95.1333 270.088 94.6907 270.44 94.296C270.803 93.9013 271.251 93.5867 271.784 93.352C272.328 93.1173 272.963 93 273.688 93ZM273.688 94.808C273.08 94.808 272.557 95.0107 272.12 95.416C271.693 95.8107 271.48 96.3547 271.48 97.048C271.48 97.7413 271.693 98.2907 272.12 98.696C272.557 99.0907 273.08 99.288 273.688 99.288C274.296 99.288 274.819 99.0907 275.256 98.696C275.693 98.2907 275.912 97.7413 275.912 97.048C275.912 96.3547 275.693 95.8107 275.256 95.416C274.819 95.0107 274.296 94.808 273.688 94.808ZM285.15 105.16C284.35 105.16 283.657 105.016 283.07 104.728C282.483 104.429 281.993 104.029 281.598 103.528C281.214 103.027 280.926 102.451 280.734 101.8C280.553 101.149 280.462 100.467 280.462 99.752C280.462 99.144 280.531 98.5253 280.67 97.896C280.819 97.256 281.049 96.648 281.358 96.072C281.667 95.4853 282.062 94.9627 282.542 94.504C283.033 94.0347 283.619 93.6667 284.302 93.4C284.985 93.1333 285.774 93 286.67 93C287.161 93 287.582 93.032 287.934 93.096C288.286 93.16 288.462 93.192 288.462 93.192V95.144C288.462 95.144 288.366 95.128 288.174 95.096C287.993 95.064 287.763 95.032 287.486 95C287.219 94.968 286.947 94.952 286.67 94.952C285.987 94.952 285.401 95.064 284.91 95.288C284.43 95.512 284.03 95.8107 283.71 96.184C283.401 96.5467 283.166 96.9413 283.006 97.368C282.846 97.7947 282.75 98.2053 282.718 98.6C282.814 98.44 282.974 98.248 283.198 98.024C283.422 97.8 283.726 97.6027 284.11 97.432C284.505 97.2613 285.001 97.176 285.598 97.176C286.451 97.176 287.166 97.3627 287.742 97.736C288.318 98.1093 288.75 98.5947 289.038 99.192C289.326 99.7787 289.47 100.397 289.47 101.048C289.47 101.56 289.379 102.061 289.198 102.552C289.027 103.032 288.761 103.469 288.398 103.864C288.035 104.259 287.582 104.573 287.038 104.808C286.505 105.043 285.875 105.16 285.15 105.16ZM285.15 103.352C285.758 103.352 286.275 103.155 286.702 102.76C287.139 102.355 287.358 101.805 287.358 101.112C287.358 100.419 287.139 99.8747 286.702 99.48C286.275 99.0747 285.758 98.872 285.15 98.872C284.542 98.872 284.019 99.0747 283.582 99.48C283.155 99.8747 282.942 100.419 282.942 101.112C282.942 101.805 283.155 102.355 283.582 102.76C284.019 103.155 284.542 103.352 285.15 103.352ZM297.691 98.104C297.168 98.104 296.71 97.992 296.315 97.768C295.92 97.544 295.611 97.24 295.387 96.856C295.174 96.4613 295.067 96.024 295.067 95.544C295.067 95.064 295.174 94.632 295.387 94.248C295.611 93.864 295.92 93.56 296.315 93.336C296.71 93.112 297.168 93 297.691 93C298.214 93 298.667 93.112 299.051 93.336C299.446 93.56 299.75 93.864 299.963 94.248C300.187 94.632 300.299 95.064 300.299 95.544C300.299 96.024 300.187 96.4613 299.963 96.856C299.75 97.24 299.446 97.544 299.051 97.768C298.667 97.992 298.214 98.104 297.691 98.104ZM296.971 105L303.467 93.16H305.259L298.747 105H296.971ZM297.675 96.76C298.016 96.76 298.294 96.648 298.507 96.424C298.731 96.2 298.843 95.912 298.843 95.56C298.843 95.1973 298.731 94.904 298.507 94.68C298.294 94.456 298.016 94.344 297.675 94.344C297.344 94.344 297.067 94.456 296.843 94.68C296.63 94.904 296.523 95.1973 296.523 95.56C296.523 95.912 296.63 96.2 296.843 96.424C297.067 96.648 297.344 96.76 297.675 96.76ZM304.539 105.16C304.016 105.16 303.558 105.048 303.163 104.824C302.768 104.6 302.459 104.296 302.235 103.912C302.022 103.528 301.915 103.091 301.915 102.6C301.915 102.12 302.022 101.688 302.235 101.304C302.459 100.92 302.768 100.616 303.163 100.392C303.558 100.168 304.016 100.056 304.539 100.056C305.062 100.056 305.515 100.168 305.899 100.392C306.294 100.616 306.598 100.92 306.811 101.304C307.035 101.688 307.147 102.12 307.147 102.6C307.147 103.08 307.04 103.517 306.827 103.912C306.614 104.296 306.31 104.6 305.915 104.824C305.52 105.048 305.062 105.16 304.539 105.16ZM304.539 103.832C304.87 103.832 305.142 103.72 305.355 103.496C305.579 103.261 305.691 102.968 305.691 102.616C305.691 102.253 305.579 101.96 305.355 101.736C305.142 101.512 304.87 101.4 304.539 101.4C304.198 101.4 303.915 101.512 303.691 101.736C303.478 101.96 303.371 102.253 303.371 102.616C303.371 102.968 303.478 103.261 303.691 103.496C303.915 103.72 304.198 103.832 304.539 103.832Z" fill="url(#paint2_linear_26_15753)"/>
    <rect x="365" y="32.5" width="132.25" height="124" rx="7.5" stroke="#535355"/>
    <rect x="372.5" y="40" width="117.25" height="22" rx="4" fill="white"/>
    <path d="M396.903 55V47.0034H398.373V53.7249H402.349V55H396.903ZM405.78 49.1647C406.148 49.1647 406.45 49.2259 406.688 49.3484C406.926 49.4636 407.113 49.5933 407.25 49.7374C407.387 49.8743 407.48 49.9859 407.531 50.0724H407.596V49.2727H409.033V55H407.596V54.2003H407.531C407.48 54.2868 407.387 54.4021 407.25 54.5461C407.113 54.6902 406.926 54.8199 406.688 54.9352C406.45 55.0504 406.148 55.1081 405.78 55.1081C405.355 55.1081 404.984 55.0252 404.667 54.8595C404.35 54.6866 404.084 54.4597 403.868 54.1787C403.659 53.8906 403.5 53.57 403.392 53.217C403.291 52.864 403.241 52.5038 403.241 52.1364C403.241 51.769 403.291 51.4087 403.392 51.0557C403.5 50.7027 403.659 50.3858 403.868 50.1048C404.084 49.8166 404.35 49.5897 404.667 49.424C404.984 49.2511 405.355 49.1647 405.78 49.1647ZM406.158 50.3425C405.834 50.3425 405.561 50.4326 405.337 50.6127C405.121 50.7856 404.959 51.0089 404.851 51.2827C404.743 51.5564 404.689 51.841 404.689 52.1364C404.689 52.4317 404.743 52.7163 404.851 52.9901C404.959 53.2638 405.121 53.4907 405.337 53.6708C405.561 53.8437 405.834 53.9302 406.158 53.9302C406.483 53.9302 406.753 53.8437 406.969 53.6708C407.185 53.4907 407.347 53.2638 407.455 52.9901C407.563 52.7163 407.617 52.4317 407.617 52.1364C407.617 51.841 407.563 51.5564 407.455 51.2827C407.347 51.0089 407.185 50.7856 406.969 50.6127C406.753 50.4326 406.483 50.3425 406.158 50.3425ZM412.689 55.1081C412.221 55.1081 411.835 55.0468 411.533 54.9244C411.23 54.7947 410.989 54.6362 410.809 54.4489C410.636 54.2544 410.506 54.0635 410.42 53.8762C410.333 53.6889 410.276 53.534 410.247 53.4115C410.225 53.2818 410.214 53.217 410.214 53.217H411.576C411.576 53.217 411.587 53.2566 411.608 53.3358C411.637 53.4151 411.688 53.5087 411.76 53.6168C411.839 53.7177 411.958 53.8077 412.116 53.887C412.275 53.9662 412.484 54.0058 412.743 54.0058C413.053 54.0058 413.276 53.941 413.413 53.8113C413.55 53.6744 413.618 53.5232 413.618 53.3575C413.618 53.199 413.557 53.0729 413.435 52.9792C413.319 52.8784 413.147 52.8027 412.916 52.7523L412.127 52.5902C411.81 52.5254 411.515 52.4317 411.241 52.3093C410.967 52.1796 410.744 52.0067 410.571 51.7906C410.398 51.5672 410.312 51.2827 410.312 50.9369C410.312 50.4254 410.506 50.0039 410.895 49.6726C411.284 49.334 411.814 49.1647 412.484 49.1647C412.909 49.1647 413.258 49.2223 413.532 49.3376C413.813 49.4528 414.036 49.5969 414.202 49.7698C414.375 49.9427 414.501 50.1156 414.58 50.2885C414.667 50.4614 414.721 50.6091 414.742 50.7316C414.771 50.8468 414.785 50.9045 414.785 50.9045H413.467C413.467 50.9045 413.456 50.872 413.435 50.8072C413.413 50.7352 413.366 50.6559 413.294 50.5695C413.229 50.483 413.129 50.4074 412.992 50.3425C412.862 50.2705 412.685 50.2345 412.462 50.2345C412.16 50.2345 411.943 50.2993 411.814 50.429C411.691 50.5587 411.63 50.6955 411.63 50.8396C411.63 50.9981 411.699 51.1206 411.835 51.207C411.972 51.2935 412.149 51.3583 412.365 51.4015L413.111 51.5636C413.644 51.6717 414.079 51.859 414.418 52.1256C414.764 52.3921 414.937 52.7775 414.937 53.2818C414.937 53.6204 414.847 53.9302 414.667 54.2111C414.494 54.4849 414.238 54.7046 413.899 54.8703C413.568 55.0288 413.165 55.1081 412.689 55.1081ZM418.552 55.1081C418.163 55.1081 417.843 55.0504 417.591 54.9352C417.338 54.8199 417.14 54.6686 416.996 54.4813C416.859 54.294 416.762 54.0887 416.704 53.8654C416.647 53.642 416.618 53.4223 416.618 53.2062V50.429H415.635V49.2727H416.618V47.8463H418.055V49.2727H419.341V50.429H418.055V53.1738C418.055 53.6852 418.343 53.941 418.92 53.941C419.057 53.941 419.183 53.9338 419.298 53.9194C419.42 53.8978 419.482 53.887 419.482 53.887V55.0108C419.482 55.0108 419.388 55.0252 419.201 55.054C419.021 55.0901 418.804 55.1081 418.552 55.1081ZM426.096 55.1081C425.548 55.1081 425.087 55.0252 424.712 54.8595C424.338 54.6938 424.035 54.4813 423.805 54.222C423.581 53.9626 423.419 53.6852 423.318 53.3899C423.218 53.0945 423.167 52.8208 423.167 52.5686H424.55C424.55 52.7847 424.604 52.9973 424.712 53.2062C424.828 53.4079 425.001 53.5736 425.231 53.7033C425.462 53.8257 425.746 53.887 426.085 53.887C426.503 53.887 426.852 53.7789 427.133 53.5628C427.421 53.3395 427.565 53.0333 427.565 52.6443C427.565 52.2985 427.443 52.0175 427.198 51.8014C426.96 51.5852 426.629 51.4772 426.204 51.4772H425.123V50.3425H426.215C426.575 50.3425 426.87 50.2417 427.101 50.04C427.331 49.8383 427.446 49.5789 427.446 49.2619C427.446 48.9161 427.313 48.6388 427.047 48.4298C426.787 48.2137 426.467 48.1057 426.085 48.1057C425.775 48.1057 425.516 48.1741 425.307 48.311C425.098 48.4407 424.939 48.6099 424.831 48.8189C424.723 49.0278 424.669 49.2439 424.669 49.4672H423.318C423.318 49.2079 423.365 48.9305 423.459 48.6352C423.56 48.3398 423.718 48.0624 423.934 47.8031C424.158 47.5365 424.446 47.3204 424.799 47.1547C425.159 46.9818 425.595 46.8954 426.106 46.8954C426.582 46.8954 427.029 46.9854 427.446 47.1655C427.871 47.3384 428.214 47.5942 428.473 47.9328C428.74 48.2642 428.873 48.6604 428.873 49.1214C428.873 49.4312 428.812 49.705 428.689 49.9427C428.574 50.1804 428.423 50.375 428.235 50.5262C428.055 50.6775 427.864 50.7892 427.663 50.8612V50.9261C428.037 51.0557 428.358 51.2683 428.624 51.5636C428.891 51.859 429.024 52.2444 429.024 52.7199C429.024 53.2242 428.887 53.6564 428.614 54.0166C428.347 54.3696 427.99 54.6398 427.544 54.8271C427.097 55.0144 426.614 55.1081 426.096 55.1081ZM433.369 55.0973C432.851 55.0973 432.386 54.9892 431.975 54.7731C431.572 54.5569 431.233 54.2616 430.96 53.887C430.686 53.5051 430.477 53.0693 430.333 52.5794C430.189 52.0823 430.117 51.5528 430.117 50.9909C430.117 50.4362 430.189 49.9103 430.333 49.4132C430.477 48.9161 430.686 48.4803 430.96 48.1057C431.233 47.7238 431.572 47.4249 431.975 47.2087C432.386 46.9926 432.851 46.8846 433.369 46.8846C433.888 46.8846 434.349 46.9926 434.753 47.2087C435.163 47.4249 435.505 47.7238 435.779 48.1057C436.053 48.4803 436.262 48.9161 436.406 49.4132C436.55 49.9103 436.622 50.4362 436.622 50.9909C436.622 51.5528 436.55 52.0823 436.406 52.5794C436.262 53.0693 436.053 53.5051 435.779 53.887C435.505 54.2616 435.163 54.5569 434.753 54.7731C434.349 54.9892 433.888 55.0973 433.369 55.0973ZM433.369 53.7897C433.874 53.7897 434.288 53.5556 434.612 53.0873C434.944 52.619 435.109 51.9202 435.109 50.9909C435.109 50.0688 434.944 49.3772 434.612 48.9161C434.288 48.4479 433.874 48.2137 433.369 48.2137C432.865 48.2137 432.447 48.4479 432.116 48.9161C431.792 49.3772 431.63 50.0688 431.63 50.9909C431.63 51.913 431.792 52.6118 432.116 53.0873C432.447 53.5556 432.865 53.7897 433.369 53.7897ZM442.726 55.1081C442.301 55.1081 441.93 55.0252 441.613 54.8595C441.296 54.6866 441.029 54.4597 440.813 54.1787C440.604 53.8906 440.446 53.57 440.338 53.217C440.237 52.864 440.187 52.5038 440.187 52.1364C440.187 51.769 440.237 51.4087 440.338 51.0557C440.446 50.7027 440.604 50.3858 440.813 50.1048C441.029 49.8166 441.296 49.5897 441.613 49.424C441.93 49.2511 442.301 49.1647 442.726 49.1647C443.093 49.1647 443.396 49.2259 443.634 49.3484C443.871 49.4636 444.059 49.5933 444.196 49.7374C444.332 49.8743 444.426 49.9859 444.477 50.0724H444.541V46.7873H445.979V55H444.541V54.2003H444.477C444.426 54.2868 444.332 54.4021 444.196 54.5461C444.059 54.6902 443.871 54.8199 443.634 54.9352C443.396 55.0504 443.093 55.1081 442.726 55.1081ZM443.104 53.9302C443.428 53.9302 443.699 53.8437 443.915 53.6708C444.131 53.4907 444.293 53.2638 444.401 52.9901C444.509 52.7163 444.563 52.4317 444.563 52.1364C444.563 51.841 444.509 51.5564 444.401 51.2827C444.293 51.0089 444.131 50.7856 443.915 50.6127C443.699 50.4326 443.428 50.3425 443.104 50.3425C442.78 50.3425 442.506 50.4326 442.283 50.6127C442.067 50.7856 441.905 51.0089 441.797 51.2827C441.689 51.5564 441.635 51.841 441.635 52.1364C441.635 52.4317 441.689 52.7163 441.797 52.9901C441.905 53.2638 442.067 53.4907 442.283 53.6708C442.506 53.8437 442.78 53.9302 443.104 53.9302ZM449.839 49.1647C450.206 49.1647 450.509 49.2259 450.746 49.3484C450.984 49.4636 451.171 49.5933 451.308 49.7374C451.445 49.8743 451.539 49.9859 451.589 50.0724H451.654V49.2727H453.091V55H451.654V54.2003H451.589C451.539 54.2868 451.445 54.4021 451.308 54.5461C451.171 54.6902 450.984 54.8199 450.746 54.9352C450.509 55.0504 450.206 55.1081 449.839 55.1081C449.414 55.1081 449.043 55.0252 448.726 54.8595C448.409 54.6866 448.142 54.4597 447.926 54.1787C447.717 53.8906 447.559 53.57 447.45 53.217C447.35 52.864 447.299 52.5038 447.299 52.1364C447.299 51.769 447.35 51.4087 447.45 51.0557C447.559 50.7027 447.717 50.3858 447.926 50.1048C448.142 49.8166 448.409 49.5897 448.726 49.424C449.043 49.2511 449.414 49.1647 449.839 49.1647ZM450.217 50.3425C449.893 50.3425 449.619 50.4326 449.396 50.6127C449.179 50.7856 449.017 51.0089 448.909 51.2827C448.801 51.5564 448.747 51.841 448.747 52.1364C448.747 52.4317 448.801 52.7163 448.909 52.9901C449.017 53.2638 449.179 53.4907 449.396 53.6708C449.619 53.8437 449.893 53.9302 450.217 53.9302C450.541 53.9302 450.811 53.8437 451.027 53.6708C451.243 53.4907 451.406 53.2638 451.514 52.9901C451.622 52.7163 451.676 52.4317 451.676 52.1364C451.676 51.841 451.622 51.5564 451.514 51.2827C451.406 51.0089 451.243 50.7856 451.027 50.6127C450.811 50.4326 450.541 50.3425 450.217 50.3425ZM454.687 57.1072C454.499 57.1072 454.345 57.1 454.222 57.0856C454.107 57.0712 454.049 57.064 454.049 57.064V55.8861C454.049 55.8861 454.103 55.8897 454.211 55.8969C454.319 55.9113 454.445 55.9185 454.59 55.9185C454.957 55.9185 455.26 55.8573 455.497 55.7348C455.742 55.6196 455.948 55.3998 456.113 55.0756L453.963 49.2727H455.422L456.859 53.3575L458.274 49.2727H459.733L457.637 54.8595C457.349 55.6232 456.978 56.1887 456.524 56.5561C456.07 56.9235 455.458 57.1072 454.687 57.1072ZM462.815 55.1081C462.347 55.1081 461.962 55.0468 461.659 54.9244C461.357 54.7947 461.115 54.6362 460.935 54.4489C460.762 54.2544 460.633 54.0635 460.546 53.8762C460.46 53.6889 460.402 53.534 460.373 53.4115C460.352 53.2818 460.341 53.217 460.341 53.217H461.702C461.702 53.217 461.713 53.2566 461.735 53.3358C461.764 53.4151 461.814 53.5087 461.886 53.6168C461.965 53.7177 462.084 53.8077 462.243 53.887C462.401 53.9662 462.61 54.0058 462.869 54.0058C463.179 54.0058 463.403 53.941 463.539 53.8113C463.676 53.6744 463.745 53.5232 463.745 53.3575C463.745 53.199 463.683 53.0729 463.561 52.9792C463.446 52.8784 463.273 52.8027 463.042 52.7523L462.253 52.5902C461.936 52.5254 461.641 52.4317 461.367 52.3093C461.094 52.1796 460.87 52.0067 460.697 51.7906C460.524 51.5672 460.438 51.2827 460.438 50.9369C460.438 50.4254 460.633 50.0039 461.022 49.6726C461.411 49.334 461.94 49.1647 462.61 49.1647C463.035 49.1647 463.385 49.2223 463.658 49.3376C463.939 49.4528 464.163 49.5969 464.328 49.7698C464.501 49.9427 464.627 50.1156 464.706 50.2885C464.793 50.4614 464.847 50.6091 464.869 50.7316C464.897 50.8468 464.912 50.9045 464.912 50.9045H463.593C463.593 50.9045 463.583 50.872 463.561 50.8072C463.539 50.7352 463.493 50.6559 463.421 50.5695C463.356 50.483 463.255 50.4074 463.118 50.3425C462.988 50.2705 462.812 50.2345 462.588 50.2345C462.286 50.2345 462.07 50.2993 461.94 50.429C461.818 50.5587 461.756 50.6955 461.756 50.8396C461.756 50.9981 461.825 51.1206 461.962 51.207C462.099 51.2935 462.275 51.3583 462.491 51.4015L463.237 51.5636C463.77 51.6717 464.206 51.859 464.544 52.1256C464.89 52.3921 465.063 52.7775 465.063 53.2818C465.063 53.6204 464.973 53.9302 464.793 54.2111C464.62 54.4849 464.364 54.7046 464.026 54.8703C463.694 55.0288 463.291 55.1081 462.815 55.1081Z" fill="#535355"/>
    <path d="M397.641 93C398.441 93 399.135 93.1493 399.721 93.448C400.319 93.736 400.809 94.1307 401.193 94.632C401.577 95.1333 401.86 95.7093 402.041 96.36C402.233 97.0107 402.329 97.6933 402.329 98.408C402.329 99.016 402.255 99.64 402.105 100.28C401.967 100.909 401.743 101.517 401.433 102.104C401.135 102.68 400.74 103.203 400.249 103.672C399.759 104.131 399.172 104.493 398.489 104.76C397.807 105.027 397.017 105.16 396.121 105.16C395.641 105.16 395.22 105.128 394.857 105.064C394.505 105 394.329 104.968 394.329 104.968V103.016C394.329 103.016 394.42 103.032 394.601 103.064C394.793 103.096 395.023 103.128 395.289 103.16C395.567 103.192 395.844 103.208 396.121 103.208C396.804 103.208 397.391 103.096 397.881 102.872C398.372 102.648 398.772 102.355 399.081 101.992C399.391 101.619 399.625 101.219 399.785 100.792C399.956 100.365 400.052 99.9547 400.073 99.56C399.977 99.72 399.817 99.912 399.593 100.136C399.38 100.36 399.076 100.557 398.681 100.728C398.297 100.899 397.807 100.984 397.209 100.984C396.345 100.984 395.625 100.797 395.049 100.424C394.473 100.051 394.041 99.5707 393.753 98.984C393.465 98.3867 393.321 97.7627 393.321 97.112C393.321 96.6 393.412 96.104 393.593 95.624C393.775 95.1333 394.041 94.6907 394.393 94.296C394.756 93.9013 395.204 93.5867 395.737 93.352C396.281 93.1173 396.916 93 397.641 93ZM397.641 94.808C397.033 94.808 396.511 95.0107 396.073 95.416C395.647 95.8107 395.433 96.3547 395.433 97.048C395.433 97.7413 395.647 98.2907 396.073 98.696C396.511 99.0907 397.033 99.288 397.641 99.288C398.249 99.288 398.772 99.0907 399.209 98.696C399.647 98.2907 399.865 97.7413 399.865 97.048C399.865 96.3547 399.647 95.8107 399.209 95.416C398.772 95.0107 398.249 94.808 397.641 94.808ZM408.735 93C409.535 93 410.228 93.1493 410.815 93.448C411.412 93.736 411.903 94.1307 412.287 94.632C412.671 95.1333 412.954 95.7093 413.135 96.36C413.327 97.0107 413.423 97.6933 413.423 98.408C413.423 99.016 413.348 99.64 413.199 100.28C413.06 100.909 412.836 101.517 412.527 102.104C412.228 102.68 411.834 103.203 411.343 103.672C410.852 104.131 410.266 104.493 409.583 104.76C408.9 105.027 408.111 105.16 407.215 105.16C406.735 105.16 406.314 105.128 405.951 105.064C405.599 105 405.423 104.968 405.423 104.968V103.016C405.423 103.016 405.514 103.032 405.695 103.064C405.887 103.096 406.116 103.128 406.383 103.16C406.66 103.192 406.938 103.208 407.215 103.208C407.898 103.208 408.484 103.096 408.975 102.872C409.466 102.648 409.866 102.355 410.175 101.992C410.484 101.619 410.719 101.219 410.879 100.792C411.05 100.365 411.146 99.9547 411.167 99.56C411.071 99.72 410.911 99.912 410.687 100.136C410.474 100.36 410.17 100.557 409.775 100.728C409.391 100.899 408.9 100.984 408.303 100.984C407.439 100.984 406.719 100.797 406.143 100.424C405.567 100.051 405.135 99.5707 404.847 98.984C404.559 98.3867 404.415 97.7627 404.415 97.112C404.415 96.6 404.506 96.104 404.687 95.624C404.868 95.1333 405.135 94.6907 405.487 94.296C405.85 93.9013 406.298 93.5867 406.831 93.352C407.375 93.1173 408.01 93 408.735 93ZM408.735 94.808C408.127 94.808 407.604 95.0107 407.167 95.416C406.74 95.8107 406.527 96.3547 406.527 97.048C406.527 97.7413 406.74 98.2907 407.167 98.696C407.604 99.0907 408.127 99.288 408.735 99.288C409.343 99.288 409.866 99.0907 410.303 98.696C410.74 98.2907 410.959 97.7413 410.959 97.048C410.959 96.3547 410.74 95.8107 410.303 95.416C409.866 95.0107 409.343 94.808 408.735 94.808ZM415.781 107.192L417.045 105.128C416.714 105.107 416.442 104.979 416.229 104.744C416.015 104.509 415.909 104.221 415.909 103.88C415.909 103.517 416.031 103.224 416.277 103C416.522 102.765 416.821 102.648 417.173 102.648C417.546 102.648 417.855 102.765 418.101 103C418.357 103.224 418.485 103.539 418.485 103.944C418.485 104.285 418.357 104.68 418.101 105.128C417.845 105.576 417.423 106.211 416.837 107.032L416.709 107.192H415.781ZM425.141 93C425.941 93 426.635 93.1493 427.221 93.448C427.819 93.736 428.309 94.1307 428.693 94.632C429.077 95.1333 429.36 95.7093 429.541 96.36C429.733 97.0107 429.829 97.6933 429.829 98.408C429.829 99.016 429.755 99.64 429.605 100.28C429.467 100.909 429.243 101.517 428.933 102.104C428.635 102.68 428.24 103.203 427.749 103.672C427.259 104.131 426.672 104.493 425.989 104.76C425.307 105.027 424.517 105.16 423.621 105.16C423.141 105.16 422.72 105.128 422.357 105.064C422.005 105 421.829 104.968 421.829 104.968V103.016C421.829 103.016 421.92 103.032 422.101 103.064C422.293 103.096 422.523 103.128 422.789 103.16C423.067 103.192 423.344 103.208 423.621 103.208C424.304 103.208 424.891 103.096 425.381 102.872C425.872 102.648 426.272 102.355 426.581 101.992C426.891 101.619 427.125 101.219 427.285 100.792C427.456 100.365 427.552 99.9547 427.573 99.56C427.477 99.72 427.317 99.912 427.093 100.136C426.88 100.36 426.576 100.557 426.181 100.728C425.797 100.899 425.307 100.984 424.709 100.984C423.845 100.984 423.125 100.797 422.549 100.424C421.973 100.051 421.541 99.5707 421.253 98.984C420.965 98.3867 420.821 97.7627 420.821 97.112C420.821 96.6 420.912 96.104 421.093 95.624C421.275 95.1333 421.541 94.6907 421.893 94.296C422.256 93.9013 422.704 93.5867 423.237 93.352C423.781 93.1173 424.416 93 425.141 93ZM425.141 94.808C424.533 94.808 424.011 95.0107 423.573 95.416C423.147 95.8107 422.933 96.3547 422.933 97.048C422.933 97.7413 423.147 98.2907 423.573 98.696C424.011 99.0907 424.533 99.288 425.141 99.288C425.749 99.288 426.272 99.0907 426.709 98.696C427.147 98.2907 427.365 97.7413 427.365 97.048C427.365 96.3547 427.147 95.8107 426.709 95.416C426.272 95.0107 425.749 94.808 425.141 94.808ZM436.235 93C437.035 93 437.728 93.1493 438.315 93.448C438.912 93.736 439.403 94.1307 439.787 94.632C440.171 95.1333 440.454 95.7093 440.635 96.36C440.827 97.0107 440.923 97.6933 440.923 98.408C440.923 99.016 440.848 99.64 440.699 100.28C440.56 100.909 440.336 101.517 440.027 102.104C439.728 102.68 439.334 103.203 438.843 103.672C438.352 104.131 437.766 104.493 437.083 104.76C436.4 105.027 435.611 105.16 434.715 105.16C434.235 105.16 433.814 105.128 433.451 105.064C433.099 105 432.923 104.968 432.923 104.968V103.016C432.923 103.016 433.014 103.032 433.195 103.064C433.387 103.096 433.616 103.128 433.883 103.16C434.16 103.192 434.438 103.208 434.715 103.208C435.398 103.208 435.984 103.096 436.475 102.872C436.966 102.648 437.366 102.355 437.675 101.992C437.984 101.619 438.219 101.219 438.379 100.792C438.55 100.365 438.646 99.9547 438.667 99.56C438.571 99.72 438.411 99.912 438.187 100.136C437.974 100.36 437.67 100.557 437.275 100.728C436.891 100.899 436.4 100.984 435.803 100.984C434.939 100.984 434.219 100.797 433.643 100.424C433.067 100.051 432.635 99.5707 432.347 98.984C432.059 98.3867 431.915 97.7627 431.915 97.112C431.915 96.6 432.006 96.104 432.187 95.624C432.368 95.1333 432.635 94.6907 432.987 94.296C433.35 93.9013 433.798 93.5867 434.331 93.352C434.875 93.1173 435.51 93 436.235 93ZM436.235 94.808C435.627 94.808 435.104 95.0107 434.667 95.416C434.24 95.8107 434.027 96.3547 434.027 97.048C434.027 97.7413 434.24 98.2907 434.667 98.696C435.104 99.0907 435.627 99.288 436.235 99.288C436.843 99.288 437.366 99.0907 437.803 98.696C438.24 98.2907 438.459 97.7413 438.459 97.048C438.459 96.3547 438.24 95.8107 437.803 95.416C437.366 95.0107 436.843 94.808 436.235 94.808ZM447.217 105.16C446.395 105.16 445.654 105.021 444.993 104.744C444.342 104.456 443.825 104.056 443.441 103.544C443.057 103.032 442.865 102.429 442.865 101.736C442.865 101.181 442.966 100.717 443.169 100.344C443.382 99.96 443.622 99.6613 443.889 99.448C444.166 99.224 444.411 99.064 444.625 98.968C444.838 98.872 444.95 98.824 444.961 98.824V98.728C444.95 98.728 444.854 98.6907 444.673 98.616C444.491 98.5307 444.283 98.392 444.049 98.2C443.814 98.008 443.606 97.752 443.425 97.432C443.243 97.112 443.153 96.712 443.153 96.232C443.153 95.592 443.329 95.032 443.681 94.552C444.033 94.0613 444.513 93.6827 445.121 93.416C445.739 93.1387 446.438 93 447.217 93C447.995 93 448.689 93.1387 449.297 93.416C449.915 93.6827 450.395 94.0613 450.737 94.552C451.089 95.032 451.265 95.5867 451.265 96.216C451.265 96.696 451.174 97.1013 450.993 97.432C450.822 97.752 450.614 98.008 450.369 98.2C450.134 98.392 449.926 98.5307 449.745 98.616C449.563 98.6907 449.473 98.728 449.473 98.728V98.824C449.473 98.824 449.579 98.872 449.793 98.968C450.006 99.064 450.251 99.224 450.529 99.448C450.806 99.6613 451.046 99.96 451.249 100.344C451.462 100.717 451.569 101.181 451.569 101.736C451.569 102.429 451.377 103.032 450.993 103.544C450.609 104.056 450.086 104.456 449.425 104.744C448.774 105.021 448.038 105.16 447.217 105.16ZM447.217 98.024C447.825 98.024 448.31 97.8587 448.673 97.528C449.035 97.1973 449.217 96.8027 449.217 96.344C449.217 95.8853 449.035 95.4907 448.673 95.16C448.31 94.8293 447.825 94.664 447.217 94.664C446.609 94.664 446.123 94.8293 445.761 95.16C445.398 95.4907 445.217 95.8907 445.217 96.36C445.217 96.808 445.398 97.1973 445.761 97.528C446.123 97.8587 446.609 98.024 447.217 98.024ZM447.217 103.448C447.718 103.448 448.134 103.357 448.465 103.176C448.806 102.984 449.062 102.739 449.233 102.44C449.414 102.141 449.505 101.832 449.505 101.512C449.505 101.192 449.419 100.888 449.249 100.6C449.078 100.312 448.822 100.077 448.481 99.896C448.139 99.7147 447.718 99.624 447.217 99.624C446.705 99.624 446.278 99.7147 445.937 99.896C445.606 100.077 445.355 100.312 445.185 100.6C445.014 100.888 444.929 101.192 444.929 101.512C444.929 101.832 445.014 102.141 445.185 102.44C445.355 102.739 445.611 102.984 445.953 103.176C446.294 103.357 446.715 103.448 447.217 103.448ZM459.644 98.104C459.122 98.104 458.663 97.992 458.268 97.768C457.874 97.544 457.564 97.24 457.34 96.856C457.127 96.4613 457.02 96.024 457.02 95.544C457.02 95.064 457.127 94.632 457.34 94.248C457.564 93.864 457.874 93.56 458.268 93.336C458.663 93.112 459.122 93 459.644 93C460.167 93 460.62 93.112 461.004 93.336C461.399 93.56 461.703 93.864 461.916 94.248C462.14 94.632 462.252 95.064 462.252 95.544C462.252 96.024 462.14 96.4613 461.916 96.856C461.703 97.24 461.399 97.544 461.004 97.768C460.62 97.992 460.167 98.104 459.644 98.104ZM458.924 105L465.42 93.16H467.212L460.7 105H458.924ZM459.628 96.76C459.97 96.76 460.247 96.648 460.46 96.424C460.684 96.2 460.796 95.912 460.796 95.56C460.796 95.1973 460.684 94.904 460.46 94.68C460.247 94.456 459.97 94.344 459.628 94.344C459.298 94.344 459.02 94.456 458.796 94.68C458.583 94.904 458.476 95.1973 458.476 95.56C458.476 95.912 458.583 96.2 458.796 96.424C459.02 96.648 459.298 96.76 459.628 96.76ZM466.492 105.16C465.97 105.16 465.511 105.048 465.116 104.824C464.722 104.6 464.412 104.296 464.188 103.912C463.975 103.528 463.868 103.091 463.868 102.6C463.868 102.12 463.975 101.688 464.188 101.304C464.412 100.92 464.722 100.616 465.116 100.392C465.511 100.168 465.97 100.056 466.492 100.056C467.015 100.056 467.468 100.168 467.852 100.392C468.247 100.616 468.551 100.92 468.764 101.304C468.988 101.688 469.1 102.12 469.1 102.6C469.1 103.08 468.994 103.517 468.78 103.912C468.567 104.296 468.263 104.6 467.868 104.824C467.474 105.048 467.015 105.16 466.492 105.16ZM466.492 103.832C466.823 103.832 467.095 103.72 467.308 103.496C467.532 103.261 467.644 102.968 467.644 102.616C467.644 102.253 467.532 101.96 467.308 101.736C467.095 101.512 466.823 101.4 466.492 101.4C466.151 101.4 465.868 101.512 465.644 101.736C465.431 101.96 465.324 102.253 465.324 102.616C465.324 102.968 465.431 103.261 465.644 103.496C465.868 103.72 466.151 103.832 466.492 103.832Z" fill="url(#paint3_linear_26_15753)"/>
    <rect x="527.25" y="32.5" width="132.25" height="124" rx="7.5" stroke="#535355"/>
    <rect x="534.75" y="40" width="117.25" height="22" rx="4" fill="white"/>
    <path d="M559.153 55V47.0034H560.623V53.7249H564.599V55H559.153ZM568.03 49.1647C568.398 49.1647 568.7 49.2259 568.938 49.3484C569.176 49.4636 569.363 49.5933 569.5 49.7374C569.637 49.8743 569.73 49.9859 569.781 50.0724H569.846V49.2727H571.283V55H569.846V54.2003H569.781C569.73 54.2868 569.637 54.4021 569.5 54.5461C569.363 54.6902 569.176 54.8199 568.938 54.9352C568.7 55.0504 568.398 55.1081 568.03 55.1081C567.605 55.1081 567.234 55.0252 566.917 54.8595C566.6 54.6866 566.334 54.4597 566.118 54.1787C565.909 53.8906 565.75 53.57 565.642 53.217C565.541 52.864 565.491 52.5038 565.491 52.1364C565.491 51.769 565.541 51.4087 565.642 51.0557C565.75 50.7027 565.909 50.3858 566.118 50.1048C566.334 49.8166 566.6 49.5897 566.917 49.424C567.234 49.2511 567.605 49.1647 568.03 49.1647ZM568.408 50.3425C568.084 50.3425 567.811 50.4326 567.587 50.6127C567.371 50.7856 567.209 51.0089 567.101 51.2827C566.993 51.5564 566.939 51.841 566.939 52.1364C566.939 52.4317 566.993 52.7163 567.101 52.9901C567.209 53.2638 567.371 53.4907 567.587 53.6708C567.811 53.8437 568.084 53.9302 568.408 53.9302C568.733 53.9302 569.003 53.8437 569.219 53.6708C569.435 53.4907 569.597 53.2638 569.705 52.9901C569.813 52.7163 569.867 52.4317 569.867 52.1364C569.867 51.841 569.813 51.5564 569.705 51.2827C569.597 51.0089 569.435 50.7856 569.219 50.6127C569.003 50.4326 568.733 50.3425 568.408 50.3425ZM574.939 55.1081C574.471 55.1081 574.085 55.0468 573.783 54.9244C573.48 54.7947 573.239 54.6362 573.059 54.4489C572.886 54.2544 572.756 54.0635 572.67 53.8762C572.583 53.6889 572.526 53.534 572.497 53.4115C572.475 53.2818 572.464 53.217 572.464 53.217H573.826C573.826 53.217 573.837 53.2566 573.858 53.3358C573.887 53.4151 573.938 53.5087 574.01 53.6168C574.089 53.7177 574.208 53.8077 574.366 53.887C574.525 53.9662 574.734 54.0058 574.993 54.0058C575.303 54.0058 575.526 53.941 575.663 53.8113C575.8 53.6744 575.868 53.5232 575.868 53.3575C575.868 53.199 575.807 53.0729 575.685 52.9792C575.569 52.8784 575.397 52.8027 575.166 52.7523L574.377 52.5902C574.06 52.5254 573.765 52.4317 573.491 52.3093C573.217 52.1796 572.994 52.0067 572.821 51.7906C572.648 51.5672 572.562 51.2827 572.562 50.9369C572.562 50.4254 572.756 50.0039 573.145 49.6726C573.534 49.334 574.064 49.1647 574.734 49.1647C575.159 49.1647 575.508 49.2223 575.782 49.3376C576.063 49.4528 576.286 49.5969 576.452 49.7698C576.625 49.9427 576.751 50.1156 576.83 50.2885C576.917 50.4614 576.971 50.6091 576.992 50.7316C577.021 50.8468 577.035 50.9045 577.035 50.9045H575.717C575.717 50.9045 575.706 50.872 575.685 50.8072C575.663 50.7352 575.616 50.6559 575.544 50.5695C575.479 50.483 575.379 50.4074 575.242 50.3425C575.112 50.2705 574.935 50.2345 574.712 50.2345C574.41 50.2345 574.193 50.2993 574.064 50.429C573.941 50.5587 573.88 50.6955 573.88 50.8396C573.88 50.9981 573.949 51.1206 574.085 51.207C574.222 51.2935 574.399 51.3583 574.615 51.4015L575.361 51.5636C575.894 51.6717 576.329 51.859 576.668 52.1256C577.014 52.3921 577.187 52.7775 577.187 53.2818C577.187 53.6204 577.097 53.9302 576.917 54.2111C576.744 54.4849 576.488 54.7046 576.149 54.8703C575.818 55.0288 575.415 55.1081 574.939 55.1081ZM580.802 55.1081C580.413 55.1081 580.093 55.0504 579.841 54.9352C579.588 54.8199 579.39 54.6686 579.246 54.4813C579.109 54.294 579.012 54.0887 578.954 53.8654C578.897 53.642 578.868 53.4223 578.868 53.2062V50.429H577.885V49.2727H578.868V47.8463H580.305V49.2727H581.591V50.429H580.305V53.1738C580.305 53.6852 580.593 53.941 581.17 53.941C581.307 53.941 581.433 53.9338 581.548 53.9194C581.67 53.8978 581.732 53.887 581.732 53.887V55.0108C581.732 55.0108 581.638 55.0252 581.451 55.054C581.271 55.0901 581.054 55.1081 580.802 55.1081ZM588.346 46.8954C588.886 46.8954 589.354 46.9962 589.75 47.1979C590.154 47.3925 590.485 47.659 590.745 47.9976C591.004 48.3362 591.195 48.7252 591.317 49.1647C591.447 49.6041 591.512 50.0652 591.512 50.5479C591.512 50.9585 591.461 51.3799 591.361 51.8122C591.267 52.2372 591.116 52.6479 590.907 53.0441C590.705 53.4331 590.438 53.7861 590.107 54.1031C589.776 54.4129 589.379 54.6578 588.918 54.8379C588.457 55.018 587.924 55.1081 587.319 55.1081C586.995 55.1081 586.71 55.0864 586.465 55.0432C586.228 55 586.109 54.9784 586.109 54.9784V53.66C586.109 53.66 586.17 53.6708 586.293 53.6925C586.422 53.7141 586.577 53.7357 586.757 53.7573C586.944 53.7789 587.132 53.7897 587.319 53.7897C587.78 53.7897 588.176 53.7141 588.508 53.5628C588.839 53.4115 589.109 53.2134 589.318 52.9684C589.527 52.7163 589.686 52.4461 589.794 52.158C589.909 51.8698 589.974 51.5925 589.988 51.3259C589.923 51.434 589.815 51.5636 589.664 51.7149C589.52 51.8662 589.315 51.9995 589.048 52.1148C588.789 52.23 588.457 52.2876 588.054 52.2876C587.47 52.2876 586.984 52.1616 586.595 51.9094C586.206 51.6573 585.914 51.3331 585.72 50.9369C585.525 50.5334 585.428 50.112 585.428 49.6726C585.428 49.3268 585.489 48.9918 585.612 48.6676C585.734 48.3362 585.914 48.0372 586.152 47.7707C586.397 47.5041 586.7 47.2916 587.06 47.1331C587.427 46.9746 587.856 46.8954 588.346 46.8954ZM588.346 48.1165C587.935 48.1165 587.582 48.2533 587.287 48.5271C586.999 48.7937 586.854 49.1611 586.854 49.6293C586.854 50.0976 586.999 50.4686 587.287 50.7424C587.582 51.0089 587.935 51.1422 588.346 51.1422C588.756 51.1422 589.109 51.0089 589.405 50.7424C589.7 50.4686 589.848 50.0976 589.848 49.6293C589.848 49.1611 589.7 48.7937 589.405 48.5271C589.109 48.2533 588.756 48.1165 588.346 48.1165ZM595.957 55.0973C595.438 55.0973 594.974 54.9892 594.563 54.7731C594.16 54.5569 593.821 54.2616 593.547 53.887C593.274 53.5051 593.065 53.0693 592.921 52.5794C592.776 52.0823 592.704 51.5528 592.704 50.9909C592.704 50.4362 592.776 49.9103 592.921 49.4132C593.065 48.9161 593.274 48.4803 593.547 48.1057C593.821 47.7238 594.16 47.4249 594.563 47.2087C594.974 46.9926 595.438 46.8846 595.957 46.8846C596.476 46.8846 596.937 46.9926 597.34 47.2087C597.751 47.4249 598.093 47.7238 598.367 48.1057C598.641 48.4803 598.85 48.9161 598.994 49.4132C599.138 49.9103 599.21 50.4362 599.21 50.9909C599.21 51.5528 599.138 52.0823 598.994 52.5794C598.85 53.0693 598.641 53.5051 598.367 53.887C598.093 54.2616 597.751 54.5569 597.34 54.7731C596.937 54.9892 596.476 55.0973 595.957 55.0973ZM595.957 53.7897C596.461 53.7897 596.876 53.5556 597.2 53.0873C597.531 52.619 597.697 51.9202 597.697 50.9909C597.697 50.0688 597.531 49.3772 597.2 48.9161C596.876 48.4479 596.461 48.2137 595.957 48.2137C595.453 48.2137 595.035 48.4479 594.704 48.9161C594.379 49.3772 594.217 50.0688 594.217 50.9909C594.217 51.913 594.379 52.6118 594.704 53.0873C595.035 53.5556 595.453 53.7897 595.957 53.7897ZM605.314 55.1081C604.889 55.1081 604.518 55.0252 604.201 54.8595C603.884 54.6866 603.617 54.4597 603.401 54.1787C603.192 53.8906 603.034 53.57 602.925 53.217C602.825 52.864 602.774 52.5038 602.774 52.1364C602.774 51.769 602.825 51.4087 602.925 51.0557C603.034 50.7027 603.192 50.3858 603.401 50.1048C603.617 49.8166 603.884 49.5897 604.201 49.424C604.518 49.2511 604.889 49.1647 605.314 49.1647C605.681 49.1647 605.984 49.2259 606.221 49.3484C606.459 49.4636 606.646 49.5933 606.783 49.7374C606.92 49.8743 607.014 49.9859 607.064 50.0724H607.129V46.7873H608.566V55H607.129V54.2003H607.064C607.014 54.2868 606.92 54.4021 606.783 54.5461C606.646 54.6902 606.459 54.8199 606.221 54.9352C605.984 55.0504 605.681 55.1081 605.314 55.1081ZM605.692 53.9302C606.016 53.9302 606.286 53.8437 606.502 53.6708C606.718 53.4907 606.881 53.2638 606.989 52.9901C607.097 52.7163 607.151 52.4317 607.151 52.1364C607.151 51.841 607.097 51.5564 606.989 51.2827C606.881 51.0089 606.718 50.7856 606.502 50.6127C606.286 50.4326 606.016 50.3425 605.692 50.3425C605.368 50.3425 605.094 50.4326 604.871 50.6127C604.654 50.7856 604.492 51.0089 604.384 51.2827C604.276 51.5564 604.222 51.841 604.222 52.1364C604.222 52.4317 604.276 52.7163 604.384 52.9901C604.492 53.2638 604.654 53.4907 604.871 53.6708C605.094 53.8437 605.368 53.9302 605.692 53.9302ZM612.426 49.1647C612.794 49.1647 613.096 49.2259 613.334 49.3484C613.572 49.4636 613.759 49.5933 613.896 49.7374C614.033 49.8743 614.126 49.9859 614.177 50.0724H614.242V49.2727H615.679V55H614.242V54.2003H614.177C614.126 54.2868 614.033 54.4021 613.896 54.5461C613.759 54.6902 613.572 54.8199 613.334 54.9352C613.096 55.0504 612.794 55.1081 612.426 55.1081C612.001 55.1081 611.63 55.0252 611.313 54.8595C610.996 54.6866 610.73 54.4597 610.514 54.1787C610.305 53.8906 610.146 53.57 610.038 53.217C609.937 52.864 609.887 52.5038 609.887 52.1364C609.887 51.769 609.937 51.4087 610.038 51.0557C610.146 50.7027 610.305 50.3858 610.514 50.1048C610.73 49.8166 610.996 49.5897 611.313 49.424C611.63 49.2511 612.001 49.1647 612.426 49.1647ZM612.805 50.3425C612.48 50.3425 612.207 50.4326 611.983 50.6127C611.767 50.7856 611.605 51.0089 611.497 51.2827C611.389 51.5564 611.335 51.841 611.335 52.1364C611.335 52.4317 611.389 52.7163 611.497 52.9901C611.605 53.2638 611.767 53.4907 611.983 53.6708C612.207 53.8437 612.48 53.9302 612.805 53.9302C613.129 53.9302 613.399 53.8437 613.615 53.6708C613.831 53.4907 613.993 53.2638 614.101 52.9901C614.209 52.7163 614.263 52.4317 614.263 52.1364C614.263 51.841 614.209 51.5564 614.101 51.2827C613.993 51.0089 613.831 50.7856 613.615 50.6127C613.399 50.4326 613.129 50.3425 612.805 50.3425ZM617.274 57.1072C617.087 57.1072 616.932 57.1 616.81 57.0856C616.695 57.0712 616.637 57.064 616.637 57.064V55.8861C616.637 55.8861 616.691 55.8897 616.799 55.8969C616.907 55.9113 617.033 55.9185 617.177 55.9185C617.545 55.9185 617.847 55.8573 618.085 55.7348C618.33 55.6196 618.535 55.3998 618.701 55.0756L616.55 49.2727H618.009L619.447 53.3575L620.862 49.2727H622.321L620.225 54.8595C619.936 55.6232 619.565 56.1887 619.112 56.5561C618.658 56.9235 618.045 57.1072 617.274 57.1072ZM625.403 55.1081C624.935 55.1081 624.549 55.0468 624.247 54.9244C623.944 54.7947 623.703 54.6362 623.523 54.4489C623.35 54.2544 623.22 54.0635 623.134 53.8762C623.047 53.6889 622.99 53.534 622.961 53.4115C622.939 53.2818 622.928 53.217 622.928 53.217H624.29C624.29 53.217 624.301 53.2566 624.322 53.3358C624.351 53.4151 624.402 53.5087 624.474 53.6168C624.553 53.7177 624.672 53.8077 624.83 53.887C624.989 53.9662 625.198 54.0058 625.457 54.0058C625.767 54.0058 625.99 53.941 626.127 53.8113C626.264 53.6744 626.332 53.5232 626.332 53.3575C626.332 53.199 626.271 53.0729 626.149 52.9792C626.033 52.8784 625.861 52.8027 625.63 52.7523L624.841 52.5902C624.524 52.5254 624.229 52.4317 623.955 52.3093C623.681 52.1796 623.458 52.0067 623.285 51.7906C623.112 51.5672 623.026 51.2827 623.026 50.9369C623.026 50.4254 623.22 50.0039 623.609 49.6726C623.998 49.334 624.528 49.1647 625.198 49.1647C625.623 49.1647 625.972 49.2223 626.246 49.3376C626.527 49.4528 626.75 49.5969 626.916 49.7698C627.089 49.9427 627.215 50.1156 627.294 50.2885C627.381 50.4614 627.435 50.6091 627.456 50.7316C627.485 50.8468 627.499 50.9045 627.499 50.9045H626.181C626.181 50.9045 626.17 50.872 626.149 50.8072C626.127 50.7352 626.08 50.6559 626.008 50.5695C625.943 50.483 625.843 50.4074 625.706 50.3425C625.576 50.2705 625.399 50.2345 625.176 50.2345C624.874 50.2345 624.657 50.2993 624.528 50.429C624.405 50.5587 624.344 50.6955 624.344 50.8396C624.344 50.9981 624.413 51.1206 624.549 51.207C624.686 51.2935 624.863 51.3583 625.079 51.4015L625.825 51.5636C626.358 51.6717 626.793 51.859 627.132 52.1256C627.478 52.3921 627.651 52.7775 627.651 53.2818C627.651 53.6204 627.561 53.9302 627.381 54.2111C627.208 54.4849 626.952 54.7046 626.613 54.8703C626.282 55.0288 625.879 55.1081 625.403 55.1081Z" fill="#535355"/>
    <path d="M559.891 93C560.691 93 561.385 93.1493 561.971 93.448C562.569 93.736 563.059 94.1307 563.443 94.632C563.827 95.1333 564.11 95.7093 564.291 96.36C564.483 97.0107 564.579 97.6933 564.579 98.408C564.579 99.016 564.505 99.64 564.355 100.28C564.217 100.909 563.993 101.517 563.683 102.104C563.385 102.68 562.99 103.203 562.499 103.672C562.009 104.131 561.422 104.493 560.739 104.76C560.057 105.027 559.267 105.16 558.371 105.16C557.891 105.16 557.47 105.128 557.107 105.064C556.755 105 556.579 104.968 556.579 104.968V103.016C556.579 103.016 556.67 103.032 556.851 103.064C557.043 103.096 557.273 103.128 557.539 103.16C557.817 103.192 558.094 103.208 558.371 103.208C559.054 103.208 559.641 103.096 560.131 102.872C560.622 102.648 561.022 102.355 561.331 101.992C561.641 101.619 561.875 101.219 562.035 100.792C562.206 100.365 562.302 99.9547 562.323 99.56C562.227 99.72 562.067 99.912 561.843 100.136C561.63 100.36 561.326 100.557 560.931 100.728C560.547 100.899 560.057 100.984 559.459 100.984C558.595 100.984 557.875 100.797 557.299 100.424C556.723 100.051 556.291 99.5707 556.003 98.984C555.715 98.3867 555.571 97.7627 555.571 97.112C555.571 96.6 555.662 96.104 555.843 95.624C556.025 95.1333 556.291 94.6907 556.643 94.296C557.006 93.9013 557.454 93.5867 557.987 93.352C558.531 93.1173 559.166 93 559.891 93ZM559.891 94.808C559.283 94.808 558.761 95.0107 558.323 95.416C557.897 95.8107 557.683 96.3547 557.683 97.048C557.683 97.7413 557.897 98.2907 558.323 98.696C558.761 99.0907 559.283 99.288 559.891 99.288C560.499 99.288 561.022 99.0907 561.459 98.696C561.897 98.2907 562.115 97.7413 562.115 97.048C562.115 96.3547 561.897 95.8107 561.459 95.416C561.022 95.0107 560.499 94.808 559.891 94.808ZM570.985 93C571.785 93 572.478 93.1493 573.065 93.448C573.662 93.736 574.153 94.1307 574.537 94.632C574.921 95.1333 575.204 95.7093 575.385 96.36C575.577 97.0107 575.673 97.6933 575.673 98.408C575.673 99.016 575.598 99.64 575.449 100.28C575.31 100.909 575.086 101.517 574.777 102.104C574.478 102.68 574.084 103.203 573.593 103.672C573.102 104.131 572.516 104.493 571.833 104.76C571.15 105.027 570.361 105.16 569.465 105.16C568.985 105.16 568.564 105.128 568.201 105.064C567.849 105 567.673 104.968 567.673 104.968V103.016C567.673 103.016 567.764 103.032 567.945 103.064C568.137 103.096 568.366 103.128 568.633 103.16C568.91 103.192 569.188 103.208 569.465 103.208C570.148 103.208 570.734 103.096 571.225 102.872C571.716 102.648 572.116 102.355 572.425 101.992C572.734 101.619 572.969 101.219 573.129 100.792C573.3 100.365 573.396 99.9547 573.417 99.56C573.321 99.72 573.161 99.912 572.937 100.136C572.724 100.36 572.42 100.557 572.025 100.728C571.641 100.899 571.15 100.984 570.553 100.984C569.689 100.984 568.969 100.797 568.393 100.424C567.817 100.051 567.385 99.5707 567.097 98.984C566.809 98.3867 566.665 97.7627 566.665 97.112C566.665 96.6 566.756 96.104 566.937 95.624C567.118 95.1333 567.385 94.6907 567.737 94.296C568.1 93.9013 568.548 93.5867 569.081 93.352C569.625 93.1173 570.26 93 570.985 93ZM570.985 94.808C570.377 94.808 569.854 95.0107 569.417 95.416C568.99 95.8107 568.777 96.3547 568.777 97.048C568.777 97.7413 568.99 98.2907 569.417 98.696C569.854 99.0907 570.377 99.288 570.985 99.288C571.593 99.288 572.116 99.0907 572.553 98.696C572.99 98.2907 573.209 97.7413 573.209 97.048C573.209 96.3547 572.99 95.8107 572.553 95.416C572.116 95.0107 571.593 94.808 570.985 94.808ZM578.031 107.192L579.295 105.128C578.964 105.107 578.692 104.979 578.479 104.744C578.265 104.509 578.159 104.221 578.159 103.88C578.159 103.517 578.281 103.224 578.527 103C578.772 102.765 579.071 102.648 579.423 102.648C579.796 102.648 580.105 102.765 580.351 103C580.607 103.224 580.735 103.539 580.735 103.944C580.735 104.285 580.607 104.68 580.351 105.128C580.095 105.576 579.673 106.211 579.087 107.032L578.959 107.192H578.031ZM587.391 93C588.191 93 588.885 93.1493 589.471 93.448C590.069 93.736 590.559 94.1307 590.943 94.632C591.327 95.1333 591.61 95.7093 591.791 96.36C591.983 97.0107 592.079 97.6933 592.079 98.408C592.079 99.016 592.005 99.64 591.855 100.28C591.717 100.909 591.493 101.517 591.183 102.104C590.885 102.68 590.49 103.203 589.999 103.672C589.509 104.131 588.922 104.493 588.239 104.76C587.557 105.027 586.767 105.16 585.871 105.16C585.391 105.16 584.97 105.128 584.607 105.064C584.255 105 584.079 104.968 584.079 104.968V103.016C584.079 103.016 584.17 103.032 584.351 103.064C584.543 103.096 584.773 103.128 585.039 103.16C585.317 103.192 585.594 103.208 585.871 103.208C586.554 103.208 587.141 103.096 587.631 102.872C588.122 102.648 588.522 102.355 588.831 101.992C589.141 101.619 589.375 101.219 589.535 100.792C589.706 100.365 589.802 99.9547 589.823 99.56C589.727 99.72 589.567 99.912 589.343 100.136C589.13 100.36 588.826 100.557 588.431 100.728C588.047 100.899 587.557 100.984 586.959 100.984C586.095 100.984 585.375 100.797 584.799 100.424C584.223 100.051 583.791 99.5707 583.503 98.984C583.215 98.3867 583.071 97.7627 583.071 97.112C583.071 96.6 583.162 96.104 583.343 95.624C583.525 95.1333 583.791 94.6907 584.143 94.296C584.506 93.9013 584.954 93.5867 585.487 93.352C586.031 93.1173 586.666 93 587.391 93ZM587.391 94.808C586.783 94.808 586.261 95.0107 585.823 95.416C585.397 95.8107 585.183 96.3547 585.183 97.048C585.183 97.7413 585.397 98.2907 585.823 98.696C586.261 99.0907 586.783 99.288 587.391 99.288C587.999 99.288 588.522 99.0907 588.959 98.696C589.397 98.2907 589.615 97.7413 589.615 97.048C589.615 96.3547 589.397 95.8107 588.959 95.416C588.522 95.0107 587.999 94.808 587.391 94.808ZM598.485 93C599.285 93 599.978 93.1493 600.565 93.448C601.162 93.736 601.653 94.1307 602.037 94.632C602.421 95.1333 602.704 95.7093 602.885 96.36C603.077 97.0107 603.173 97.6933 603.173 98.408C603.173 99.016 603.098 99.64 602.949 100.28C602.81 100.909 602.586 101.517 602.277 102.104C601.978 102.68 601.584 103.203 601.093 103.672C600.602 104.131 600.016 104.493 599.333 104.76C598.65 105.027 597.861 105.16 596.965 105.16C596.485 105.16 596.064 105.128 595.701 105.064C595.349 105 595.173 104.968 595.173 104.968V103.016C595.173 103.016 595.264 103.032 595.445 103.064C595.637 103.096 595.866 103.128 596.133 103.16C596.41 103.192 596.688 103.208 596.965 103.208C597.648 103.208 598.234 103.096 598.725 102.872C599.216 102.648 599.616 102.355 599.925 101.992C600.234 101.619 600.469 101.219 600.629 100.792C600.8 100.365 600.896 99.9547 600.917 99.56C600.821 99.72 600.661 99.912 600.437 100.136C600.224 100.36 599.92 100.557 599.525 100.728C599.141 100.899 598.65 100.984 598.053 100.984C597.189 100.984 596.469 100.797 595.893 100.424C595.317 100.051 594.885 99.5707 594.597 98.984C594.309 98.3867 594.165 97.7627 594.165 97.112C594.165 96.6 594.256 96.104 594.437 95.624C594.618 95.1333 594.885 94.6907 595.237 94.296C595.6 93.9013 596.048 93.5867 596.581 93.352C597.125 93.1173 597.76 93 598.485 93ZM598.485 94.808C597.877 94.808 597.354 95.0107 596.917 95.416C596.49 95.8107 596.277 96.3547 596.277 97.048C596.277 97.7413 596.49 98.2907 596.917 98.696C597.354 99.0907 597.877 99.288 598.485 99.288C599.093 99.288 599.616 99.0907 600.053 98.696C600.49 98.2907 600.709 97.7413 600.709 97.048C600.709 96.3547 600.49 95.8107 600.053 95.416C599.616 95.0107 599.093 94.808 598.485 94.808ZM609.467 105.16C608.645 105.16 607.904 105.021 607.243 104.744C606.592 104.456 606.075 104.056 605.691 103.544C605.307 103.032 605.115 102.429 605.115 101.736C605.115 101.181 605.216 100.717 605.419 100.344C605.632 99.96 605.872 99.6613 606.139 99.448C606.416 99.224 606.661 99.064 606.875 98.968C607.088 98.872 607.2 98.824 607.211 98.824V98.728C607.2 98.728 607.104 98.6907 606.923 98.616C606.741 98.5307 606.533 98.392 606.299 98.2C606.064 98.008 605.856 97.752 605.675 97.432C605.493 97.112 605.403 96.712 605.403 96.232C605.403 95.592 605.579 95.032 605.931 94.552C606.283 94.0613 606.763 93.6827 607.371 93.416C607.989 93.1387 608.688 93 609.467 93C610.245 93 610.939 93.1387 611.547 93.416C612.165 93.6827 612.645 94.0613 612.987 94.552C613.339 95.032 613.515 95.5867 613.515 96.216C613.515 96.696 613.424 97.1013 613.243 97.432C613.072 97.752 612.864 98.008 612.619 98.2C612.384 98.392 612.176 98.5307 611.995 98.616C611.813 98.6907 611.723 98.728 611.723 98.728V98.824C611.723 98.824 611.829 98.872 612.043 98.968C612.256 99.064 612.501 99.224 612.779 99.448C613.056 99.6613 613.296 99.96 613.499 100.344C613.712 100.717 613.819 101.181 613.819 101.736C613.819 102.429 613.627 103.032 613.243 103.544C612.859 104.056 612.336 104.456 611.675 104.744C611.024 105.021 610.288 105.16 609.467 105.16ZM609.467 98.024C610.075 98.024 610.56 97.8587 610.923 97.528C611.285 97.1973 611.467 96.8027 611.467 96.344C611.467 95.8853 611.285 95.4907 610.923 95.16C610.56 94.8293 610.075 94.664 609.467 94.664C608.859 94.664 608.373 94.8293 608.011 95.16C607.648 95.4907 607.467 95.8907 607.467 96.36C607.467 96.808 607.648 97.1973 608.011 97.528C608.373 97.8587 608.859 98.024 609.467 98.024ZM609.467 103.448C609.968 103.448 610.384 103.357 610.715 103.176C611.056 102.984 611.312 102.739 611.483 102.44C611.664 102.141 611.755 101.832 611.755 101.512C611.755 101.192 611.669 100.888 611.499 100.6C611.328 100.312 611.072 100.077 610.731 99.896C610.389 99.7147 609.968 99.624 609.467 99.624C608.955 99.624 608.528 99.7147 608.187 99.896C607.856 100.077 607.605 100.312 607.435 100.6C607.264 100.888 607.179 101.192 607.179 101.512C607.179 101.832 607.264 102.141 607.435 102.44C607.605 102.739 607.861 102.984 608.203 103.176C608.544 103.357 608.965 103.448 609.467 103.448ZM621.894 98.104C621.372 98.104 620.913 97.992 620.518 97.768C620.124 97.544 619.814 97.24 619.59 96.856C619.377 96.4613 619.27 96.024 619.27 95.544C619.27 95.064 619.377 94.632 619.59 94.248C619.814 93.864 620.124 93.56 620.518 93.336C620.913 93.112 621.372 93 621.894 93C622.417 93 622.87 93.112 623.254 93.336C623.649 93.56 623.953 93.864 624.166 94.248C624.39 94.632 624.502 95.064 624.502 95.544C624.502 96.024 624.39 96.4613 624.166 96.856C623.953 97.24 623.649 97.544 623.254 97.768C622.87 97.992 622.417 98.104 621.894 98.104ZM621.174 105L627.67 93.16H629.462L622.95 105H621.174ZM621.878 96.76C622.22 96.76 622.497 96.648 622.71 96.424C622.934 96.2 623.046 95.912 623.046 95.56C623.046 95.1973 622.934 94.904 622.71 94.68C622.497 94.456 622.22 94.344 621.878 94.344C621.548 94.344 621.27 94.456 621.046 94.68C620.833 94.904 620.726 95.1973 620.726 95.56C620.726 95.912 620.833 96.2 621.046 96.424C621.27 96.648 621.548 96.76 621.878 96.76ZM628.742 105.16C628.22 105.16 627.761 105.048 627.366 104.824C626.972 104.6 626.662 104.296 626.438 103.912C626.225 103.528 626.118 103.091 626.118 102.6C626.118 102.12 626.225 101.688 626.438 101.304C626.662 100.92 626.972 100.616 627.366 100.392C627.761 100.168 628.22 100.056 628.742 100.056C629.265 100.056 629.718 100.168 630.102 100.392C630.497 100.616 630.801 100.92 631.014 101.304C631.238 101.688 631.35 102.12 631.35 102.6C631.35 103.08 631.244 103.517 631.03 103.912C630.817 104.296 630.513 104.6 630.118 104.824C629.724 105.048 629.265 105.16 628.742 105.16ZM628.742 103.832C629.073 103.832 629.345 103.72 629.558 103.496C629.782 103.261 629.894 102.968 629.894 102.616C629.894 102.253 629.782 101.96 629.558 101.736C629.345 101.512 629.073 101.4 628.742 101.4C628.401 101.4 628.118 101.512 627.894 101.736C627.681 101.96 627.574 102.253 627.574 102.616C627.574 102.968 627.681 103.261 627.894 103.496C628.118 103.72 628.401 103.832 628.742 103.832Z" fill="url(#paint4_linear_26_15753)"/>
    <rect x="16" y="197" width="17" height="61" rx="4" fill="#B1DDE0"/>
    <rect x="44" y="191" width="17" height="67" rx="4" fill="#B1DDE0"/>
    <rect x="72" y="191" width="17" height="67" rx="4" fill="#B1DDE0"/>
    <rect x="100" y="201" width="17" height="57" rx="4" fill="#B1DDE0"/>
    <rect x="128" y="191" width="17" height="67" rx="4" fill="#B1DDE0"/>
    <rect x="156" y="197" width="17" height="61" rx="4" fill="#B1DDE0"/>
    <rect x="184" y="191" width="17" height="67" rx="4" fill="#B1DDE0"/>
    <rect x="212" y="201" width="17" height="57" rx="4" fill="#B1DDE0"/>
    <rect x="240" y="197" width="17" height="61" rx="4" fill="#B1DDE0"/>
    <rect x="268" y="191" width="17" height="67" rx="4" fill="#B1DDE0"/>
    <rect x="296" y="191" width="17" height="67" rx="4" fill="#B1DDE0"/>
    <rect x="324" y="201" width="17" height="57" rx="4" fill="#B1DDE0"/>
    <rect x="352" y="197" width="17" height="61" rx="4" fill="#B1DDE0"/>
    <rect x="380" y="197" width="17" height="61" rx="4" fill="#B1DDE0"/>
    <rect x="408" y="191" width="17" height="67" rx="4" fill="#B1DDE0"/>
    <rect x="436" y="201" width="17" height="57" rx="4" fill="#B1DDE0"/>
    <rect x="464" y="191" width="17" height="67" rx="4" fill="#B1DDE0"/>
    <rect x="492" y="201" width="17" height="57" rx="4" fill="#B1DDE0"/>
    <rect x="520" y="191" width="17" height="67" rx="4" fill="#B1DDE0"/>
    <rect x="548" y="191" width="17" height="67" rx="4" fill="#B1DDE0"/>
    <rect x="576" y="201" width="17" height="57" rx="4" fill="#B1DDE0"/>
    <rect x="604" y="197" width="17" height="61" rx="4" fill="#B1DDE0"/>
    <rect x="632" y="191" width="17" height="67" rx="4" fill="#B1DDE0"/>
    <rect x="660" y="191" width="17" height="67" rx="4" fill="#B1DDE0"/>
    <g filter="url(#filter0_d_26_15753)">
        <rect x="444" y="162" width="204.026" height="157" rx="10.5128" fill="white" shape-rendering="crispEdges"/>
        <rect x="444" y="162" width="204.026" height="157" rx="10.5128" fill="url(#paint5_linear_26_15753)" fill-opacity="0.4" shape-rendering="crispEdges"/>
        <rect x="444.5" y="162.5" width="203.026" height="156" rx="10.0128" stroke="#6BFDFF" shape-rendering="crispEdges"/>
        <rect x="503" y="227" width="81" height="81" rx="40.5" fill="url(#paint6_radial_26_15753)"/>
        <path d="M539.633 255.49V261.082M547.368 255.49V261.082M554.41 265.881V249.686C554.41 246.491 550.928 244.515 548.186 246.154L543.5 248.955L538.814 246.154C536.072 244.515 532.59 246.491 532.59 249.686V265.881M557.742 278.934L557.927 278.678C558.12 277.832 558.039 276.919 557.636 276.079C557.115 274.994 557.115 273.732 557.636 272.647C558.552 270.739 557.808 268.448 555.945 267.443L555.945 267.443C554.887 266.871 554.146 265.851 553.929 264.669L553.928 264.663C553.546 262.583 551.601 261.169 549.505 261.448L549.496 261.449C548.307 261.607 547.11 261.218 546.241 260.391L546.233 260.384C544.702 258.927 542.298 258.927 540.767 260.384L540.759 260.391C539.89 261.218 538.693 261.607 537.504 261.449L537.495 261.448C535.399 261.169 533.454 262.584 533.072 264.663L533.071 264.669C532.854 265.851 532.113 266.872 531.055 267.443L531.055 267.443C529.192 268.449 528.448 270.74 529.364 272.648C529.885 273.732 529.885 274.995 529.364 276.079C528.448 277.987 529.193 280.279 531.055 281.284L531.055 281.284C532.113 281.855 532.855 282.876 533.071 284.058L533.073 284.064C533.454 286.143 535.4 287.558 537.495 287.279L537.504 287.278C538.693 287.12 539.89 287.509 540.759 288.336L540.767 288.343C542.298 289.799 544.702 289.8 546.233 288.343L546.241 288.336C547.11 287.509 548.307 287.12 549.496 287.278L549.505 287.279C550.46 287.406 551.383 287.182 552.142 286.703L552.299 286.485" stroke="url(#paint7_linear_26_15753)" stroke-width="3.71777" stroke-miterlimit="10" stroke-linecap="round" stroke-linejoin="round"/>
        <path opacity="0.2" d="M632.188 234.688V250.062C632.188 250.742 631.918 251.394 631.437 251.874C630.956 252.355 630.305 252.625 629.625 252.625H578.375C577.695 252.625 577.044 252.355 576.563 251.874C576.082 251.394 575.812 250.742 575.812 250.062V234.688C575.812 234.008 576.082 233.356 576.563 232.876C577.044 232.395 577.695 232.125 578.375 232.125H629.625C630.305 232.125 630.956 232.395 631.437 232.876C631.918 233.356 632.188 234.008 632.188 234.688ZM629.625 201.375H578.375C577.695 201.375 577.044 201.645 576.563 202.126C576.082 202.606 575.812 203.258 575.812 203.938V219.312C575.812 219.992 576.082 220.644 576.563 221.124C577.044 221.605 577.695 221.875 578.375 221.875H629.625C630.305 221.875 630.956 221.605 631.437 221.124C631.918 220.644 632.188 219.992 632.188 219.312V203.938C632.188 203.258 631.918 202.606 631.437 202.126C630.956 201.645 630.305 201.375 629.625 201.375Z" fill="url(#paint8_linear_26_15753)"/>
        <path d="M629.625 229.562H578.375C577.016 229.562 575.712 230.102 574.751 231.064C573.79 232.025 573.25 233.328 573.25 234.688V250.062C573.25 251.422 573.79 252.725 574.751 253.686C575.712 254.648 577.016 255.188 578.375 255.188H629.625C630.984 255.188 632.288 254.648 633.249 253.686C634.21 252.725 634.75 251.422 634.75 250.062V234.688C634.75 233.328 634.21 232.025 633.249 231.064C632.288 230.102 630.984 229.562 629.625 229.562ZM629.625 250.062H578.375V234.688H629.625V250.062ZM629.625 198.812H578.375C577.016 198.812 575.712 199.352 574.751 200.314C573.79 201.275 573.25 202.578 573.25 203.938V219.312C573.25 220.672 573.79 221.975 574.751 222.936C575.712 223.898 577.016 224.438 578.375 224.438H629.625C630.984 224.438 632.288 223.898 633.249 222.936C634.21 221.975 634.75 220.672 634.75 219.312V203.938C634.75 202.578 634.21 201.275 633.249 200.314C632.288 199.352 630.984 198.812 629.625 198.812ZM629.625 219.312H578.375V203.938H629.625V219.312ZM624.5 211.625C624.5 212.385 624.275 213.128 623.852 213.76C623.43 214.393 622.83 214.885 622.127 215.176C621.425 215.467 620.652 215.543 619.906 215.395C619.161 215.247 618.476 214.881 617.938 214.343C617.401 213.805 617.035 213.12 616.886 212.375C616.738 211.629 616.814 210.856 617.105 210.154C617.396 209.452 617.889 208.851 618.521 208.429C619.153 208.007 619.896 207.781 620.656 207.781C621.676 207.781 622.653 208.186 623.374 208.907C624.095 209.628 624.5 210.606 624.5 211.625ZM624.5 242.375C624.5 243.135 624.275 243.878 623.852 244.51C623.43 245.143 622.83 245.635 622.127 245.926C621.425 246.217 620.652 246.293 619.906 246.145C619.161 245.997 618.476 245.63 617.938 245.093C617.401 244.555 617.035 243.87 616.886 243.125C616.738 242.379 616.814 241.606 617.105 240.904C617.396 240.202 617.889 239.601 618.521 239.179C619.153 238.757 619.896 238.531 620.656 238.531C621.676 238.531 622.653 238.936 623.374 239.657C624.095 240.378 624.5 241.356 624.5 242.375Z" fill="url(#paint9_linear_26_15753)"/>
        <path d="M512.288 214.594H493.896V209.049C493.896 205.183 496.937 201.94 500.794 201.844C504.705 201.756 507.947 204.849 508.035 208.759V208.917V209.418C508.009 211.035 509.292 212.362 510.909 212.388C512.525 212.415 513.852 211.132 513.879 209.515C513.879 209.48 513.879 209.445 513.879 209.409V208.917C513.888 201.782 508.105 196 500.97 196C493.835 196 488.053 201.782 488.053 208.917V214.796C485.083 215.534 483 218.197 483 221.264V234.339C483 238.021 485.979 241 489.661 241H512.297C515.979 241 518.958 238.021 518.958 234.339V221.255C518.949 217.582 515.961 214.594 512.288 214.594Z" fill="#FF8D28"/>
        <path d="M497.333 241C497.333 242.473 498.527 243.667 500 243.667C501.473 243.667 502.667 242.473 502.667 241C502.667 239.527 501.473 238.333 500 238.333C498.527 238.333 497.333 239.527 497.333 241ZM500 266.5V267H500.5V266.5H500ZM465.5 266.5H465V267H465.5V266.5ZM465.5 177.5V177H465V177.5H465.5ZM609 177.5H609.5V177H609V177.5ZM606.333 199C606.333 200.473 607.527 201.667 609 201.667C610.473 201.667 611.667 200.473 611.667 199C611.667 197.527 610.473 196.333 609 196.333C607.527 196.333 606.333 197.527 606.333 199ZM500 241H499.5V266.5H500H500.5V241H500ZM500 266.5V266H465.5V266.5V267H500V266.5ZM465.5 266.5H466V177.5H465.5H465V266.5H465.5ZM465.5 177.5V178H609V177.5V177H465.5V177.5ZM609 177.5H608.5V199H609H609.5V177.5H609Z" fill="#23FFED"/>
    </g>
    <defs>
        <filter id="filter0_d_26_15753" x="438" y="162" width="216.026" height="169" filterUnits="userSpaceOnUse" color-interpolation-filters="sRGB">
            <feFlood flood-opacity="0" result="BackgroundImageFix"/>
            <feColorMatrix in="SourceAlpha" type="matrix" values="0 0 0 0 0 0 0 0 0 0 0 0 0 0 0 0 0 0 127 0" result="hardAlpha"/>
            <feOffset dy="6"/>
            <feGaussianBlur stdDeviation="3"/>
            <feComposite in2="hardAlpha" operator="out"/>
            <feColorMatrix type="matrix" values="0 0 0 0 0 0 0 0 0 0 0 0 0 0 0 0 0 0 0.25 0"/>
            <feBlend mode="normal" in2="BackgroundImageFix" result="effect1_dropShadow_26_15753"/>
            <feBlend mode="normal" in="SourceGraphic" in2="effect1_dropShadow_26_15753" result="shape"/>
        </filter>
        <linearGradient id="paint0_linear_26_15753" x1="17.1098" y1="262.884" x2="700.126" y2="30.4147" gradientUnits="userSpaceOnUse">
            <stop stop-color="#7EFFF4"/>
            <stop offset="1" stop-color="#7EFFF4" stop-opacity="0"/>
        </linearGradient>
        <linearGradient id="paint1_linear_26_15753" x1="106.625" y1="89" x2="106.625" y2="109" gradientUnits="userSpaceOnUse">
            <stop stop-color="#001D54"/>
            <stop offset="1" stop-color="#008C99"/>
        </linearGradient>
        <linearGradient id="paint2_linear_26_15753" x1="268.875" y1="89" x2="268.875" y2="109" gradientUnits="userSpaceOnUse">
            <stop stop-color="#001D54"/>
            <stop offset="1" stop-color="#008C99"/>
        </linearGradient>
        <linearGradient id="paint3_linear_26_15753" x1="431.125" y1="89" x2="431.125" y2="109" gradientUnits="userSpaceOnUse">
            <stop stop-color="#001D54"/>
            <stop offset="1" stop-color="#008C99"/>
        </linearGradient>
        <linearGradient id="paint4_linear_26_15753" x1="593.375" y1="89" x2="593.375" y2="109" gradientUnits="userSpaceOnUse">
            <stop stop-color="#001D54"/>
            <stop offset="1" stop-color="#008C99"/>
        </linearGradient>
        <linearGradient id="paint5_linear_26_15753" x1="448.987" y1="312.63" x2="664.659" y2="275.291" gradientUnits="userSpaceOnUse">
            <stop stop-color="#7EFFF4"/>
            <stop offset="1" stop-color="#7EFFF4" stop-opacity="0"/>
        </linearGradient>
        <radialGradient id="paint6_radial_26_15753" cx="0" cy="0" r="1" gradientUnits="userSpaceOnUse" gradientTransform="translate(543.5 267.5) rotate(90) scale(40.5)">
            <stop stop-color="white"/>
            <stop offset="1" stop-color="#C9FFFA"/>
        </radialGradient>
        <linearGradient id="paint7_linear_26_15753" x1="531.468" y1="280.874" x2="561.442" y2="270.459" gradientUnits="userSpaceOnUse">
            <stop stop-color="#05F79E"/>
            <stop offset="1" stop-color="#03B0F0"/>
        </linearGradient>
        <linearGradient id="paint8_linear_26_15753" x1="580.653" y1="242.624" x2="629.549" y2="214.405" gradientUnits="userSpaceOnUse">
            <stop stop-color="#05F79E"/>
            <stop offset="1" stop-color="#03B0F0"/>
        </linearGradient>
        <linearGradient id="paint9_linear_26_15753" x1="578.531" y1="244.186" x2="632.092" y2="213.53" gradientUnits="userSpaceOnUse">
            <stop stop-color="#05F79E"/>
            <stop offset="1" stop-color="#03B0F0"/>
        </linearGradient>
    </defs>
</svg>
