<svg width="700" height="346" viewBox="0 0 700 346" fill="none" xmlns="http://www.w3.org/2000/svg">
    <rect x="0.300172" y="0.300172" width="699.4" height="273.156" rx="15.6998" fill="white"/>
    <rect x="0.300172" y="0.300172" width="699.4" height="273.156" rx="15.6998" fill="url(#paint0_linear_26_15567)" fill-opacity="0.4"/>
    <rect x="0.300172" y="0.300172" width="699.4" height="273.156" rx="15.6998" stroke="#6BFDFF" stroke-width="0.600343"/>
    <path d="M66.0378 219.726C111.447 213.673 183.28 193.58 208.661 180.674C251.194 159.046 318.713 120.596 355.596 128.072C392.478 135.549 403.781 208.977 445.125 195.894C486.469 182.81 552.798 -90.0768 670.583 128.072" stroke="#23FFED" stroke-width="2.40137"/>
    <path d="M16.1696 23.8711C16.1984 23.2011 16.2849 22.5671 16.429 21.9692C16.5802 21.3713 16.7639 20.8202 16.9801 20.3159C17.2034 19.8044 17.4375 19.3433 17.6825 18.9327C17.9274 18.522 18.1579 18.169 18.3741 17.8737C18.5974 17.5711 18.7847 17.3334 18.936 17.1605H14.8621V15.8745H20.5677V16.9335C20.5677 16.9335 20.4993 17.0092 20.3624 17.1605C20.2327 17.3045 20.0598 17.5207 19.8437 17.8088C19.6348 18.0898 19.4079 18.4356 19.1629 18.8462C18.918 19.2497 18.6838 19.7107 18.4605 20.2294C18.2444 20.7409 18.0571 21.3028 17.8986 21.9152C17.7473 22.5275 17.6609 23.1795 17.6392 23.8711H16.1696ZM24.2573 23.9683C23.7386 23.9683 23.2739 23.8603 22.8633 23.6442C22.4598 23.428 22.1213 23.1327 21.8475 22.7581C21.5737 22.3762 21.3648 21.9404 21.2207 21.4505C21.0767 20.9534 21.0046 20.4239 21.0046 19.862C21.0046 19.3073 21.0767 18.7814 21.2207 18.2843C21.3648 17.7872 21.5737 17.3514 21.8475 16.9768C22.1213 16.5949 22.4598 16.296 22.8633 16.0798C23.2739 15.8637 23.7386 15.7557 24.2573 15.7557C24.776 15.7557 25.237 15.8637 25.6405 16.0798C26.0511 16.296 26.3933 16.5949 26.667 16.9768C26.9408 17.3514 27.1497 17.7872 27.2938 18.2843C27.4379 18.7814 27.5099 19.3073 27.5099 19.862C27.5099 20.4239 27.4379 20.9534 27.2938 21.4505C27.1497 21.9404 26.9408 22.3762 26.667 22.7581C26.3933 23.1327 26.0511 23.428 25.6405 23.6442C25.237 23.8603 24.776 23.9683 24.2573 23.9683ZM24.2573 22.6608C24.7616 22.6608 25.1758 22.4267 25.5 21.9584C25.8314 21.4901 25.9971 20.7913 25.9971 19.862C25.9971 18.9399 25.8314 18.2483 25.5 17.7872C25.1758 17.3189 24.7616 17.0848 24.2573 17.0848C23.753 17.0848 23.3351 17.3189 23.0038 17.7872C22.6796 18.2483 22.5175 18.9399 22.5175 19.862C22.5175 20.7841 22.6796 21.4829 23.0038 21.9584C23.3351 22.4267 23.753 22.6608 24.2573 22.6608Z" fill="#535355"/>
    <path d="M18.2768 57.1901C17.7365 57.1901 17.2682 57.0928 16.872 56.8983C16.4758 56.6966 16.1444 56.4265 15.8778 56.0879C15.6185 55.7493 15.424 55.3602 15.2943 54.9208C15.1718 54.4813 15.1106 54.0203 15.1106 53.5376C15.1106 53.127 15.1574 52.7091 15.2511 52.2841C15.3519 51.8518 15.5068 51.4412 15.7158 51.0522C15.9247 50.656 16.1912 50.303 16.5154 49.9932C16.8468 49.6762 17.243 49.4277 17.7041 49.2476C18.1652 49.0675 18.6983 48.9774 19.3034 48.9774C19.6348 48.9774 19.9194 48.999 20.1571 49.0422C20.3948 49.0855 20.5137 49.1071 20.5137 49.1071V50.4254C20.5137 50.4254 20.4489 50.4146 20.3192 50.393C20.1967 50.3714 20.0418 50.3498 19.8545 50.3282C19.6744 50.3066 19.4907 50.2958 19.3034 50.2958C18.8423 50.2958 18.4461 50.3714 18.1147 50.5227C17.7905 50.674 17.5204 50.8757 17.3043 51.1278C17.0953 51.3728 16.9368 51.6393 16.8288 51.9275C16.7207 52.2157 16.6559 52.493 16.6343 52.7596C16.6991 52.6515 16.8072 52.5218 16.9585 52.3705C17.1097 52.2193 17.3151 52.086 17.5744 51.9707C17.841 51.8554 18.176 51.7978 18.5794 51.7978C19.1557 51.7978 19.6384 51.9239 20.0274 52.176C20.4164 52.4282 20.7082 52.756 20.9027 53.1594C21.0972 53.5556 21.1945 53.9735 21.1945 54.4129C21.1945 54.7587 21.1332 55.0973 21.0108 55.4287C20.8955 55.7529 20.7154 56.0482 20.4705 56.3148C20.2255 56.5813 19.9194 56.7939 19.5519 56.9524C19.1917 57.1108 18.7667 57.1901 18.2768 57.1901ZM18.2768 55.969C18.6874 55.969 19.0368 55.8357 19.325 55.5692C19.6204 55.2954 19.7681 54.9244 19.7681 54.4561C19.7681 53.9879 19.6204 53.6205 19.325 53.3539C19.0368 53.0801 18.6874 52.9433 18.2768 52.9433C17.8662 52.9433 17.5132 53.0801 17.2178 53.3539C16.9296 53.6205 16.7856 53.9879 16.7856 54.4561C16.7856 54.9244 16.9296 55.2954 17.2178 55.5692C17.5132 55.8357 17.8662 55.969 18.2768 55.969ZM25.6397 57.1793C25.121 57.1793 24.6563 57.0712 24.2457 56.8551C23.8423 56.639 23.5037 56.3436 23.2299 55.969C22.9562 55.5872 22.7472 55.1513 22.6032 54.6614C22.4591 54.1644 22.387 53.6349 22.387 53.0729C22.387 52.5182 22.4591 51.9923 22.6032 51.4952C22.7472 50.9982 22.9562 50.5623 23.2299 50.1877C23.5037 49.8059 23.8423 49.5069 24.2457 49.2908C24.6563 49.0747 25.121 48.9666 25.6397 48.9666C26.1584 48.9666 26.6195 49.0747 27.0229 49.2908C27.4335 49.5069 27.7757 49.8059 28.0495 50.1877C28.3232 50.5623 28.5322 50.9982 28.6762 51.4952C28.8203 51.9923 28.8924 52.5182 28.8924 53.0729C28.8924 53.6349 28.8203 54.1644 28.6762 54.6614C28.5322 55.1513 28.3232 55.5872 28.0495 55.969C27.7757 56.3436 27.4335 56.639 27.0229 56.8551C26.6195 57.0712 26.1584 57.1793 25.6397 57.1793ZM25.6397 55.8717C26.144 55.8717 26.5582 55.6376 26.8824 55.1693C27.2138 54.7011 27.3795 54.0023 27.3795 53.0729C27.3795 52.1508 27.2138 51.4592 26.8824 50.9982C26.5582 50.5299 26.144 50.2958 25.6397 50.2958C25.1354 50.2958 24.7176 50.5299 24.3862 50.9982C24.062 51.4592 23.8999 52.1508 23.8999 53.0729C23.8999 53.9951 24.062 54.6939 24.3862 55.1693C24.7176 55.6376 25.1354 55.8717 25.6397 55.8717Z" fill="#535355"/>
    <path d="M18.0391 90.401C17.5636 90.401 17.1566 90.3362 16.818 90.2065C16.4794 90.0768 16.1984 89.9075 15.9751 89.6986C15.7518 89.4897 15.5753 89.27 15.4456 89.0395C15.3159 88.8089 15.2223 88.5892 15.1646 88.3803C15.1142 88.1714 15.0854 88.0021 15.0782 87.8724H16.4506C16.4506 87.8724 16.4578 87.9192 16.4722 88.0129C16.4866 88.0993 16.519 88.2074 16.5694 88.3371C16.6271 88.4667 16.7099 88.6 16.818 88.7369C16.9332 88.8666 17.0881 88.9746 17.2826 89.0611C17.4772 89.1475 17.7221 89.1907 18.0175 89.1907C18.3777 89.1907 18.673 89.1151 18.9036 88.9638C19.1413 88.8125 19.3178 88.618 19.4331 88.3803C19.5483 88.1425 19.606 87.8904 19.606 87.6238C19.606 87.3573 19.5483 87.1051 19.4331 86.8674C19.3178 86.6225 19.1449 86.4208 18.9144 86.2623C18.6838 86.1038 18.3957 86.0245 18.0499 86.0245C17.7833 86.0245 17.56 86.0678 17.3799 86.1542C17.207 86.2407 17.0701 86.3379 16.9693 86.446C16.8684 86.554 16.7964 86.6513 16.7531 86.7377C16.7099 86.8242 16.6883 86.8674 16.6883 86.8674H15.2403L15.9211 82.2964H20.4921V83.5823H16.9368L16.6451 85.5599H16.6883C16.7387 85.5022 16.8252 85.4194 16.9477 85.3113C17.0701 85.2033 17.243 85.106 17.4664 85.0196C17.6897 84.9331 17.9814 84.8899 18.3417 84.8899C18.9252 84.8899 19.4151 85.0196 19.8113 85.2789C20.2147 85.5383 20.5209 85.8768 20.7298 86.2947C20.9387 86.7053 21.0432 87.1412 21.0432 87.6022C21.0432 87.948 20.9784 88.2866 20.8487 88.618C20.7262 88.9494 20.5389 89.252 20.2868 89.5257C20.0418 89.7923 19.732 90.0048 19.3574 90.1633C18.9828 90.3218 18.5434 90.401 18.0391 90.401ZM25.4286 90.3902C24.9099 90.3902 24.4453 90.2822 24.0346 90.066C23.6312 89.8499 23.2926 89.5545 23.0189 89.1799C22.7451 88.7981 22.5362 88.3623 22.3921 87.8724C22.248 87.3753 22.176 86.8458 22.176 86.2839C22.176 85.7292 22.248 85.2033 22.3921 84.7062C22.5362 84.2091 22.7451 83.7732 23.0189 83.3986C23.2926 83.0168 23.6312 82.7178 24.0346 82.5017C24.4453 82.2856 24.9099 82.1775 25.4286 82.1775C25.9473 82.1775 26.4084 82.2856 26.8118 82.5017C27.2225 82.7178 27.5647 83.0168 27.8384 83.3986C28.1122 83.7732 28.3211 84.2091 28.4652 84.7062C28.6093 85.2033 28.6813 85.7292 28.6813 86.2839C28.6813 86.8458 28.6093 87.3753 28.4652 87.8724C28.3211 88.3623 28.1122 88.7981 27.8384 89.1799C27.5647 89.5545 27.2225 89.8499 26.8118 90.066C26.4084 90.2822 25.9473 90.3902 25.4286 90.3902ZM25.4286 89.0827C25.9329 89.0827 26.3472 88.8485 26.6714 88.3803C27.0027 87.912 27.1684 87.2132 27.1684 86.2839C27.1684 85.3618 27.0027 84.6702 26.6714 84.2091C26.3472 83.7408 25.9329 83.5067 25.4286 83.5067C24.9244 83.5067 24.5065 83.7408 24.1751 84.2091C23.8509 84.6702 23.6889 85.3618 23.6889 86.2839C23.6889 87.206 23.8509 87.9048 24.1751 88.3803C24.5065 88.8485 24.9244 89.0827 25.4286 89.0827Z" fill="#535355"/>
    <path d="M18.7955 123.504V121.797L14.9161 121.786V120.5L18.4497 115.507H20.2543V120.554H21.5511V121.797H20.2543V123.504H18.7955ZM16.3641 120.554H18.7955V117.117L16.3641 120.554ZM25.8824 123.601C25.3637 123.601 24.8991 123.493 24.4884 123.277C24.085 123.061 23.7464 122.765 23.4726 122.391C23.1989 122.009 22.99 121.573 22.8459 121.083C22.7018 120.586 22.6298 120.057 22.6298 119.495C22.6298 118.94 22.7018 118.414 22.8459 117.917C22.99 117.42 23.1989 116.984 23.4726 116.61C23.7464 116.228 24.085 115.929 24.4884 115.713C24.8991 115.497 25.3637 115.388 25.8824 115.388C26.4011 115.388 26.8622 115.497 27.2656 115.713C27.6762 115.929 28.0184 116.228 28.2922 116.61C28.566 116.984 28.7749 117.42 28.919 117.917C29.063 118.414 29.1351 118.94 29.1351 119.495C29.1351 120.057 29.063 120.586 28.919 121.083C28.7749 121.573 28.566 122.009 28.2922 122.391C28.0184 122.765 27.6762 123.061 27.2656 123.277C26.8622 123.493 26.4011 123.601 25.8824 123.601ZM25.8824 122.294C26.3867 122.294 26.8009 122.059 27.1251 121.591C27.4565 121.123 27.6222 120.424 27.6222 119.495C27.6222 118.573 27.4565 117.881 27.1251 117.42C26.8009 116.952 26.3867 116.718 25.8824 116.718C25.3781 116.718 24.9603 116.952 24.6289 117.42C24.3047 117.881 24.1426 118.573 24.1426 119.495C24.1426 120.417 24.3047 121.116 24.6289 121.591C24.9603 122.059 25.3781 122.294 25.8824 122.294Z" fill="#535355"/>
    <path d="M18.0283 156.823C17.4808 156.823 17.0197 156.74 16.6451 156.574C16.2705 156.409 15.9679 156.196 15.7374 155.937C15.514 155.677 15.3519 155.4 15.2511 155.105C15.1502 154.809 15.0998 154.536 15.0998 154.283H16.483C16.483 154.5 16.537 154.712 16.6451 154.921C16.7603 155.123 16.9332 155.288 17.1638 155.418C17.3943 155.541 17.6789 155.602 18.0175 155.602C18.4353 155.602 18.7847 155.494 19.0657 155.278C19.3538 155.054 19.4979 154.748 19.4979 154.359C19.4979 154.013 19.3754 153.732 19.1305 153.516C18.8928 153.3 18.5614 153.192 18.1363 153.192H17.0557V152.057H18.1471C18.5073 152.057 18.8027 151.957 19.0332 151.755C19.2638 151.553 19.379 151.294 19.379 150.977C19.379 150.631 19.2458 150.354 18.9792 150.145C18.7199 149.929 18.3993 149.821 18.0175 149.821C17.7077 149.821 17.4483 149.889 17.2394 150.026C17.0305 150.155 16.872 150.325 16.7639 150.534C16.6559 150.743 16.6019 150.959 16.6019 151.182H15.2511C15.2511 150.923 15.2979 150.645 15.3916 150.35C15.4924 150.055 15.6509 149.777 15.867 149.518C16.0904 149.251 16.3785 149.035 16.7315 148.87C17.0917 148.697 17.5276 148.61 18.0391 148.61C18.5145 148.61 18.9612 148.7 19.379 148.88C19.8041 149.053 20.1463 149.309 20.4056 149.648C20.6722 149.979 20.8055 150.375 20.8055 150.836C20.8055 151.146 20.7442 151.42 20.6218 151.658C20.5065 151.895 20.3552 152.09 20.1679 152.241C19.9878 152.392 19.7969 152.504 19.5952 152.576V152.641C19.9698 152.771 20.2904 152.983 20.5569 153.278C20.8235 153.574 20.9567 153.959 20.9567 154.435C20.9567 154.939 20.8199 155.371 20.5461 155.731C20.2796 156.084 19.923 156.355 19.4763 156.542C19.0296 156.729 18.547 156.823 18.0283 156.823ZM25.302 156.812C24.7833 156.812 24.3186 156.704 23.908 156.488C23.5046 156.272 23.166 155.976 22.8922 155.602C22.6185 155.22 22.4096 154.784 22.2655 154.294C22.1214 153.797 22.0494 153.268 22.0494 152.706C22.0494 152.151 22.1214 151.625 22.2655 151.128C22.4096 150.631 22.6185 150.195 22.8922 149.821C23.166 149.439 23.5046 149.14 23.908 148.924C24.3186 148.707 24.7833 148.599 25.302 148.599C25.8207 148.599 26.2818 148.707 26.6852 148.924C27.0958 149.14 27.438 149.439 27.7118 149.821C27.9855 150.195 28.1945 150.631 28.3385 151.128C28.4826 151.625 28.5547 152.151 28.5547 152.706C28.5547 153.268 28.4826 153.797 28.3385 154.294C28.1945 154.784 27.9855 155.22 27.7118 155.602C27.438 155.976 27.0958 156.272 26.6852 156.488C26.2818 156.704 25.8207 156.812 25.302 156.812ZM25.302 155.505C25.8063 155.505 26.2205 155.27 26.5447 154.802C26.8761 154.334 27.0418 153.635 27.0418 152.706C27.0418 151.784 26.8761 151.092 26.5447 150.631C26.2205 150.163 25.8063 149.929 25.302 149.929C24.7977 149.929 24.3799 150.163 24.0485 150.631C23.7243 151.092 23.5622 151.784 23.5622 152.706C23.5622 153.628 23.7243 154.327 24.0485 154.802C24.3799 155.27 24.7977 155.505 25.302 155.505Z" fill="#535355"/>
    <path d="M15.1214 189.926V188.91L16.6235 187.581C17.171 187.113 17.6429 186.709 18.0391 186.371C18.4353 186.025 18.7415 185.701 18.9576 185.398C19.1737 185.095 19.2818 184.764 19.2818 184.404C19.2818 184.13 19.2133 183.896 19.0765 183.701C18.9468 183.507 18.7775 183.359 18.5686 183.258C18.3597 183.158 18.1435 183.107 17.9202 183.107C17.6104 183.107 17.3583 183.168 17.1638 183.291C16.9765 183.413 16.8324 183.561 16.7315 183.734C16.6379 183.907 16.573 184.076 16.537 184.242C16.501 184.4 16.483 184.519 16.483 184.598H15.0782C15.0782 184.44 15.1034 184.245 15.1538 184.015C15.2115 183.777 15.3051 183.532 15.4348 183.28C15.5645 183.028 15.7374 182.79 15.9535 182.567C16.1696 182.343 16.4434 182.163 16.7748 182.026C17.1061 181.89 17.4988 181.821 17.9526 181.821C18.4569 181.821 18.918 181.922 19.3358 182.124C19.7609 182.325 20.0995 182.614 20.3516 182.988C20.6109 183.363 20.7406 183.813 20.7406 184.339C20.7406 184.822 20.6182 185.261 20.3732 185.657C20.1355 186.054 19.8077 186.443 19.3899 186.824C18.972 187.199 18.4965 187.602 17.9634 188.035L17.2935 188.64H20.8811V189.926H15.1214ZM25.2809 190.023C24.7622 190.023 24.2975 189.915 23.8869 189.699C23.4835 189.483 23.1449 189.187 22.8711 188.813C22.5974 188.431 22.3885 187.995 22.2444 187.505C22.1003 187.008 22.0282 186.479 22.0282 185.917C22.0282 185.362 22.1003 184.836 22.2444 184.339C22.3885 183.842 22.5974 183.406 22.8711 183.031C23.1449 182.65 23.4835 182.351 23.8869 182.135C24.2975 181.918 24.7622 181.81 25.2809 181.81C25.7996 181.81 26.2607 181.918 26.6641 182.135C27.0747 182.351 27.4169 182.65 27.6907 183.031C27.9644 183.406 28.1734 183.842 28.3174 184.339C28.4615 184.836 28.5336 185.362 28.5336 185.917C28.5336 186.479 28.4615 187.008 28.3174 187.505C28.1734 187.995 27.9644 188.431 27.6907 188.813C27.4169 189.187 27.0747 189.483 26.6641 189.699C26.2607 189.915 25.7996 190.023 25.2809 190.023ZM25.2809 188.715C25.7852 188.715 26.1994 188.481 26.5236 188.013C26.855 187.545 27.0207 186.846 27.0207 185.917C27.0207 184.995 26.855 184.303 26.5236 183.842C26.1994 183.374 25.7852 183.14 25.2809 183.14C24.7766 183.14 24.3588 183.374 24.0274 183.842C23.7032 184.303 23.5411 184.995 23.5411 185.917C23.5411 186.839 23.7032 187.538 24.0274 188.013C24.3588 188.481 24.7766 188.715 25.2809 188.715Z" fill="#535355"/>
    <path d="M17.8338 215.14V223.137H16.3857V217.258H14.8621V216.383L15.1106 216.307C15.5356 216.185 15.8814 216.044 16.148 215.886C16.4145 215.727 16.6667 215.511 16.9044 215.237L17.0017 215.14H17.8338ZM22.6321 223.234C22.1134 223.234 21.6488 223.126 21.2381 222.91C20.8347 222.694 20.4961 222.398 20.2223 222.024C19.9486 221.642 19.7397 221.206 19.5956 220.716C19.4515 220.219 19.3795 219.69 19.3795 219.128C19.3795 218.573 19.4515 218.047 19.5956 217.55C19.7397 217.053 19.9486 216.617 20.2223 216.242C20.4961 215.861 20.8347 215.562 21.2381 215.345C21.6488 215.129 22.1134 215.021 22.6321 215.021C23.1508 215.021 23.6119 215.129 24.0153 215.345C24.4259 215.562 24.7681 215.861 25.0419 216.242C25.3157 216.617 25.5246 217.053 25.6687 217.55C25.8127 218.047 25.8848 218.573 25.8848 219.128C25.8848 219.69 25.8127 220.219 25.6687 220.716C25.5246 221.206 25.3157 221.642 25.0419 222.024C24.7681 222.398 24.4259 222.694 24.0153 222.91C23.6119 223.126 23.1508 223.234 22.6321 223.234ZM22.6321 221.926C23.1364 221.926 23.5506 221.692 23.8748 221.224C24.2062 220.756 24.3719 220.057 24.3719 219.128C24.3719 218.206 24.2062 217.514 23.8748 217.053C23.5506 216.585 23.1364 216.35 22.6321 216.35C22.1278 216.35 21.71 216.585 21.3786 217.053C21.0544 217.514 20.8923 218.206 20.8923 219.128C20.8923 220.05 21.0544 220.749 21.3786 221.224C21.71 221.692 22.1278 221.926 22.6321 221.926Z" fill="#535355"/>
    <path d="M18.1471 256.445C17.6284 256.445 17.1638 256.337 16.7531 256.121C16.3497 255.905 16.0111 255.609 15.7374 255.235C15.4636 254.853 15.2547 254.417 15.1106 253.927C14.9665 253.43 14.8945 252.9 14.8945 252.339C14.8945 251.784 14.9665 251.258 15.1106 250.761C15.2547 250.264 15.4636 249.828 15.7374 249.453C16.0111 249.071 16.3497 248.773 16.7531 248.556C17.1638 248.34 17.6284 248.232 18.1471 248.232C18.6658 248.232 19.1269 248.34 19.5303 248.556C19.941 248.773 20.2832 249.071 20.5569 249.453C20.8307 249.828 21.0396 250.264 21.1837 250.761C21.3278 251.258 21.3998 251.784 21.3998 252.339C21.3998 252.9 21.3278 253.43 21.1837 253.927C21.0396 254.417 20.8307 254.853 20.5569 255.235C20.2832 255.609 19.941 255.905 19.5303 256.121C19.1269 256.337 18.6658 256.445 18.1471 256.445ZM18.1471 255.137C18.6514 255.137 19.0657 254.903 19.3899 254.435C19.7212 253.967 19.8869 253.268 19.8869 252.339C19.8869 251.416 19.7212 250.725 19.3899 250.264C19.0657 249.796 18.6514 249.561 18.1471 249.561C17.6429 249.561 17.225 249.796 16.8936 250.264C16.5694 250.725 16.4073 251.416 16.4073 252.339C16.4073 253.261 16.5694 253.959 16.8936 254.435C17.225 254.903 17.6429 255.137 18.1471 255.137Z" fill="#535355"/>
    <path d="M59.9378 256.349V255.333L61.4399 254.004C61.9874 253.535 62.4593 253.132 62.8555 252.793C63.2517 252.448 63.5579 252.123 63.774 251.821C63.9901 251.518 64.0982 251.187 64.0982 250.827C64.0982 250.553 64.0298 250.319 63.8929 250.124C63.7632 249.93 63.5939 249.782 63.385 249.681C63.1761 249.58 62.9599 249.53 62.7366 249.53C62.4268 249.53 62.1747 249.591 61.9802 249.714C61.7929 249.836 61.6488 249.984 61.5479 250.157C61.4543 250.33 61.3894 250.499 61.3534 250.665C61.3174 250.823 61.2994 250.942 61.2994 251.021H59.8946C59.8946 250.863 59.9198 250.668 59.9702 250.438C60.0279 250.2 60.1215 249.955 60.2512 249.703C60.3809 249.451 60.5538 249.213 60.7699 248.99C60.986 248.766 61.2598 248.586 61.5912 248.449C61.9226 248.312 62.3152 248.244 62.769 248.244C63.2733 248.244 63.7344 248.345 64.1522 248.547C64.5773 248.748 64.9159 249.036 65.168 249.411C65.4274 249.786 65.557 250.236 65.557 250.762C65.557 251.245 65.4346 251.684 65.1896 252.08C64.9519 252.476 64.6241 252.865 64.2063 253.247C63.7884 253.622 63.3129 254.025 62.7798 254.458L62.1099 255.063H65.6975V256.349H59.9378Z" fill="#535355"/>
    <path d="M100.428 256.349V254.641L96.5489 254.63V253.345L100.083 248.352H101.887V253.399H103.184V254.641H101.887V256.349H100.428ZM97.9969 253.399H100.428V249.962L97.9969 253.399Z" fill="#535355"/>
    <path d="M136.726 256.457C136.186 256.457 135.717 256.359 135.321 256.165C134.925 255.963 134.594 255.693 134.327 255.354C134.068 255.016 133.873 254.627 133.744 254.187C133.621 253.748 133.56 253.287 133.56 252.804C133.56 252.394 133.607 251.976 133.7 251.551C133.801 251.118 133.956 250.708 134.165 250.319C134.374 249.923 134.64 249.57 134.965 249.26C135.296 248.943 135.692 248.694 136.153 248.514C136.614 248.334 137.147 248.244 137.753 248.244C138.084 248.244 138.369 248.266 138.606 248.309C138.844 248.352 138.963 248.374 138.963 248.374V249.692C138.963 249.692 138.898 249.681 138.768 249.66C138.646 249.638 138.491 249.616 138.304 249.595C138.124 249.573 137.94 249.562 137.753 249.562C137.292 249.562 136.895 249.638 136.564 249.789C136.24 249.941 135.97 250.142 135.753 250.394C135.545 250.639 135.386 250.906 135.278 251.194C135.17 251.482 135.105 251.76 135.083 252.026C135.148 251.918 135.256 251.788 135.408 251.637C135.559 251.486 135.764 251.353 136.024 251.237C136.29 251.122 136.625 251.064 137.029 251.064C137.605 251.064 138.088 251.19 138.477 251.443C138.866 251.695 139.157 252.023 139.352 252.426C139.546 252.822 139.644 253.24 139.644 253.68C139.644 254.025 139.582 254.364 139.46 254.695C139.345 255.019 139.165 255.315 138.92 255.581C138.675 255.848 138.369 256.06 138.001 256.219C137.641 256.377 137.216 256.457 136.726 256.457ZM136.726 255.236C137.137 255.236 137.486 255.102 137.774 254.836C138.07 254.562 138.217 254.191 138.217 253.723C138.217 253.254 138.07 252.887 137.774 252.621C137.486 252.347 137.137 252.21 136.726 252.21C136.315 252.21 135.962 252.347 135.667 252.621C135.379 252.887 135.235 253.254 135.235 253.723C135.235 254.191 135.379 254.562 135.667 254.836C135.962 255.102 136.315 255.236 136.726 255.236Z" fill="#535355"/>
    <path d="M173.218 256.457C172.664 256.457 172.163 256.363 171.716 256.176C171.277 255.981 170.928 255.711 170.668 255.365C170.409 255.019 170.279 254.612 170.279 254.144C170.279 253.77 170.348 253.456 170.485 253.204C170.629 252.945 170.791 252.743 170.971 252.599C171.158 252.448 171.324 252.34 171.468 252.275C171.612 252.21 171.688 252.177 171.695 252.177V252.113C171.688 252.113 171.623 252.087 171.5 252.037C171.378 251.979 171.237 251.886 171.079 251.756C170.92 251.626 170.78 251.453 170.657 251.237C170.535 251.021 170.474 250.751 170.474 250.427C170.474 249.995 170.593 249.616 170.83 249.292C171.068 248.961 171.392 248.705 171.803 248.525C172.221 248.338 172.693 248.244 173.218 248.244C173.744 248.244 174.213 248.338 174.623 248.525C175.041 248.705 175.365 248.961 175.596 249.292C175.834 249.616 175.952 249.991 175.952 250.416C175.952 250.74 175.891 251.014 175.769 251.237C175.653 251.453 175.513 251.626 175.347 251.756C175.189 251.886 175.048 251.979 174.926 252.037C174.803 252.087 174.742 252.113 174.742 252.113V252.177C174.742 252.177 174.814 252.21 174.958 252.275C175.102 252.34 175.268 252.448 175.455 252.599C175.643 252.743 175.805 252.945 175.942 253.204C176.086 253.456 176.158 253.77 176.158 254.144C176.158 254.612 176.028 255.019 175.769 255.365C175.509 255.711 175.156 255.981 174.71 256.176C174.27 256.363 173.773 256.457 173.218 256.457ZM173.218 251.637C173.629 251.637 173.957 251.525 174.202 251.302C174.447 251.079 174.569 250.812 174.569 250.502C174.569 250.193 174.447 249.926 174.202 249.703C173.957 249.48 173.629 249.368 173.218 249.368C172.808 249.368 172.48 249.48 172.235 249.703C171.99 249.926 171.868 250.196 171.868 250.513C171.868 250.816 171.99 251.079 172.235 251.302C172.48 251.525 172.808 251.637 173.218 251.637ZM173.218 255.3C173.557 255.3 173.838 255.239 174.061 255.117C174.292 254.987 174.465 254.821 174.58 254.62C174.703 254.418 174.764 254.209 174.764 253.993C174.764 253.777 174.706 253.571 174.591 253.377C174.476 253.182 174.303 253.024 174.072 252.901C173.842 252.779 173.557 252.718 173.218 252.718C172.873 252.718 172.585 252.779 172.354 252.901C172.131 253.024 171.961 253.182 171.846 253.377C171.731 253.571 171.673 253.777 171.673 253.993C171.673 254.209 171.731 254.418 171.846 254.62C171.961 254.821 172.134 254.987 172.365 255.117C172.595 255.239 172.88 255.3 173.218 255.3Z" fill="#535355"/>
    <path d="M209.916 248.352V256.349H208.468V250.47H206.944V249.595L207.193 249.519C207.618 249.397 207.964 249.256 208.23 249.098C208.497 248.939 208.749 248.723 208.987 248.449L209.084 248.352H209.916ZM214.714 256.446C214.196 256.446 213.731 256.338 213.32 256.122C212.917 255.906 212.578 255.61 212.305 255.236C212.031 254.854 211.822 254.418 211.678 253.928C211.534 253.431 211.462 252.901 211.462 252.34C211.462 251.785 211.534 251.259 211.678 250.762C211.822 250.265 212.031 249.829 212.305 249.454C212.578 249.072 212.917 248.774 213.32 248.557C213.731 248.341 214.196 248.233 214.714 248.233C215.233 248.233 215.694 248.341 216.098 248.557C216.508 248.774 216.85 249.072 217.124 249.454C217.398 249.829 217.607 250.265 217.751 250.762C217.895 251.259 217.967 251.785 217.967 252.34C217.967 252.901 217.895 253.431 217.751 253.928C217.607 254.418 217.398 254.854 217.124 255.236C216.85 255.61 216.508 255.906 216.098 256.122C215.694 256.338 215.233 256.446 214.714 256.446ZM214.714 255.138C215.219 255.138 215.633 254.904 215.957 254.436C216.288 253.968 216.454 253.269 216.454 252.34C216.454 251.417 216.288 250.726 215.957 250.265C215.633 249.796 215.219 249.562 214.714 249.562C214.21 249.562 213.792 249.796 213.461 250.265C213.137 250.726 212.975 251.417 212.975 252.34C212.975 253.262 213.137 253.96 213.461 254.436C213.792 254.904 214.21 255.138 214.714 255.138Z" fill="#535355"/>
    <path d="M250.732 248.352V256.349H249.284V250.47H247.761V249.595L248.009 249.519C248.434 249.397 248.78 249.256 249.047 249.098C249.313 248.939 249.565 248.723 249.803 248.449L249.9 248.352H250.732ZM252.505 256.349V255.333L254.007 254.004C254.555 253.535 255.027 253.132 255.423 252.793C255.819 252.448 256.125 252.123 256.341 251.821C256.557 251.518 256.665 251.187 256.665 250.827C256.665 250.553 256.597 250.319 256.46 250.124C256.33 249.93 256.161 249.782 255.952 249.681C255.743 249.58 255.527 249.53 255.304 249.53C254.994 249.53 254.742 249.591 254.547 249.714C254.36 249.836 254.216 249.984 254.115 250.157C254.022 250.33 253.957 250.499 253.921 250.665C253.885 250.823 253.867 250.942 253.867 251.021H252.462C252.462 250.863 252.487 250.668 252.537 250.438C252.595 250.2 252.689 249.955 252.818 249.703C252.948 249.451 253.121 249.213 253.337 248.99C253.553 248.766 253.827 248.586 254.158 248.449C254.49 248.312 254.882 248.244 255.336 248.244C255.841 248.244 256.302 248.345 256.719 248.547C257.145 248.748 257.483 249.036 257.735 249.411C257.995 249.786 258.124 250.236 258.124 250.762C258.124 251.245 258.002 251.684 257.757 252.08C257.519 252.476 257.191 252.865 256.774 253.247C256.356 253.622 255.88 254.025 255.347 254.458L254.677 255.063H258.265V256.349H252.505Z" fill="#535355"/>
    <path d="M291.549 248.352V256.349H290.101V250.47H288.577V249.595L288.826 249.519C289.251 249.397 289.597 249.256 289.863 249.098C290.13 248.939 290.382 248.723 290.62 248.449L290.717 248.352H291.549ZM296.996 256.349V254.641L293.116 254.63V253.345L296.65 248.352H298.455V253.399H299.751V254.641H298.455V256.349H296.996ZM294.564 253.399H296.996V249.962L294.564 253.399Z" fill="#535355"/>
    <path d="M333.365 248.352V256.349H331.917V250.47H330.394V249.595L330.642 249.519C331.067 249.397 331.413 249.256 331.68 249.098C331.946 248.939 332.198 248.723 332.436 248.449L332.533 248.352H333.365ZM338.294 256.457C337.753 256.457 337.285 256.359 336.889 256.165C336.493 255.963 336.161 255.693 335.895 255.354C335.635 255.016 335.441 254.627 335.311 254.187C335.189 253.748 335.127 253.287 335.127 252.804C335.127 252.394 335.174 251.976 335.268 251.551C335.369 251.118 335.524 250.708 335.732 250.319C335.941 249.923 336.208 249.57 336.532 249.26C336.864 248.943 337.26 248.694 337.721 248.514C338.182 248.334 338.715 248.244 339.32 248.244C339.652 248.244 339.936 248.266 340.174 248.309C340.412 248.352 340.53 248.374 340.53 248.374V249.692C340.53 249.692 340.466 249.681 340.336 249.66C340.213 249.638 340.059 249.616 339.871 249.595C339.691 249.573 339.507 249.562 339.32 249.562C338.859 249.562 338.463 249.638 338.131 249.789C337.807 249.941 337.537 250.142 337.321 250.394C337.112 250.639 336.954 250.906 336.846 251.194C336.737 251.482 336.673 251.76 336.651 252.026C336.716 251.918 336.824 251.788 336.975 251.637C337.126 251.486 337.332 251.353 337.591 251.237C337.858 251.122 338.193 251.064 338.596 251.064C339.172 251.064 339.655 251.19 340.044 251.443C340.433 251.695 340.725 252.023 340.919 252.426C341.114 252.822 341.211 253.24 341.211 253.68C341.211 254.025 341.15 254.364 341.027 254.695C340.912 255.019 340.732 255.315 340.487 255.581C340.242 255.848 339.936 256.06 339.569 256.219C339.208 256.377 338.783 256.457 338.294 256.457ZM338.294 255.236C338.704 255.236 339.054 255.102 339.342 254.836C339.637 254.562 339.785 254.191 339.785 253.723C339.785 253.254 339.637 252.887 339.342 252.621C339.054 252.347 338.704 252.21 338.294 252.21C337.883 252.21 337.53 252.347 337.235 252.621C336.946 252.887 336.802 253.254 336.802 253.723C336.802 254.191 336.946 254.562 337.235 254.836C337.53 255.102 337.883 255.236 338.294 255.236Z" fill="#535355"/>
    <path d="M374.182 248.352V256.349H372.734V250.47H371.21V249.595L371.459 249.519C371.884 249.397 372.23 249.256 372.496 249.098C372.763 248.939 373.015 248.723 373.253 248.449L373.35 248.352H374.182ZM378.786 256.457C378.231 256.457 377.73 256.363 377.284 256.176C376.844 255.981 376.495 255.711 376.236 255.365C375.976 255.019 375.846 254.612 375.846 254.144C375.846 253.77 375.915 253.456 376.052 253.204C376.196 252.945 376.358 252.743 376.538 252.599C376.725 252.448 376.891 252.34 377.035 252.275C377.179 252.21 377.255 252.177 377.262 252.177V252.113C377.255 252.113 377.19 252.087 377.068 252.037C376.945 251.979 376.805 251.886 376.646 251.756C376.488 251.626 376.347 251.453 376.225 251.237C376.102 251.021 376.041 250.751 376.041 250.427C376.041 249.995 376.16 249.616 376.398 249.292C376.635 248.961 376.96 248.705 377.37 248.525C377.788 248.338 378.26 248.244 378.786 248.244C379.312 248.244 379.78 248.338 380.191 248.525C380.608 248.705 380.933 248.961 381.163 249.292C381.401 249.616 381.52 249.991 381.52 250.416C381.52 250.74 381.458 251.014 381.336 251.237C381.221 251.453 381.08 251.626 380.915 251.756C380.756 251.886 380.616 251.979 380.493 252.037C380.371 252.087 380.309 252.113 380.309 252.113V252.177C380.309 252.177 380.381 252.21 380.526 252.275C380.67 252.34 380.835 252.448 381.023 252.599C381.21 252.743 381.372 252.945 381.509 253.204C381.653 253.456 381.725 253.77 381.725 254.144C381.725 254.612 381.595 255.019 381.336 255.365C381.077 255.711 380.724 255.981 380.277 256.176C379.838 256.363 379.34 256.457 378.786 256.457ZM378.786 251.637C379.196 251.637 379.524 251.525 379.769 251.302C380.014 251.079 380.137 250.812 380.137 250.502C380.137 250.193 380.014 249.926 379.769 249.703C379.524 249.48 379.196 249.368 378.786 249.368C378.375 249.368 378.047 249.48 377.802 249.703C377.557 249.926 377.435 250.196 377.435 250.513C377.435 250.816 377.557 251.079 377.802 251.302C378.047 251.525 378.375 251.637 378.786 251.637ZM378.786 255.3C379.124 255.3 379.405 255.239 379.629 255.117C379.859 254.987 380.032 254.821 380.147 254.62C380.27 254.418 380.331 254.209 380.331 253.993C380.331 253.777 380.273 253.571 380.158 253.377C380.043 253.182 379.87 253.024 379.639 252.901C379.409 252.779 379.124 252.718 378.786 252.718C378.44 252.718 378.152 252.779 377.921 252.901C377.698 253.024 377.529 253.182 377.413 253.377C377.298 253.571 377.24 253.777 377.24 253.993C377.24 254.209 377.298 254.418 377.413 254.62C377.529 254.821 377.702 254.987 377.932 255.117C378.163 255.239 378.447 255.3 378.786 255.3Z" fill="#535355"/>
    <path d="M412.286 256.349V255.333L413.788 254.004C414.336 253.535 414.807 253.132 415.204 252.793C415.6 252.448 415.906 252.123 416.122 251.821C416.338 251.518 416.446 251.187 416.446 250.827C416.446 250.553 416.378 250.319 416.241 250.124C416.111 249.93 415.942 249.782 415.733 249.681C415.524 249.58 415.308 249.53 415.085 249.53C414.775 249.53 414.523 249.591 414.328 249.714C414.141 249.836 413.997 249.984 413.896 250.157C413.802 250.33 413.738 250.499 413.702 250.665C413.666 250.823 413.648 250.942 413.648 251.021H412.243C412.243 250.863 412.268 250.668 412.318 250.438C412.376 250.2 412.47 249.955 412.599 249.703C412.729 249.451 412.902 249.213 413.118 248.99C413.334 248.766 413.608 248.586 413.939 248.449C414.271 248.312 414.663 248.244 415.117 248.244C415.621 248.244 416.083 248.345 416.5 248.547C416.925 248.748 417.264 249.036 417.516 249.411C417.775 249.786 417.905 250.236 417.905 250.762C417.905 251.245 417.783 251.684 417.538 252.08C417.3 252.476 416.972 252.865 416.554 253.247C416.137 253.622 415.661 254.025 415.128 254.458L414.458 255.063H418.046V256.349H412.286ZM422.445 256.446C421.927 256.446 421.462 256.338 421.051 256.122C420.648 255.906 420.309 255.61 420.036 255.236C419.762 254.854 419.553 254.418 419.409 253.928C419.265 253.431 419.193 252.901 419.193 252.34C419.193 251.785 419.265 251.259 419.409 250.762C419.553 250.265 419.762 249.829 420.036 249.454C420.309 249.072 420.648 248.774 421.051 248.557C421.462 248.341 421.927 248.233 422.445 248.233C422.964 248.233 423.425 248.341 423.829 248.557C424.239 248.774 424.581 249.072 424.855 249.454C425.129 249.829 425.338 250.265 425.482 250.762C425.626 251.259 425.698 251.785 425.698 252.34C425.698 252.901 425.626 253.431 425.482 253.928C425.338 254.418 425.129 254.854 424.855 255.236C424.581 255.61 424.239 255.906 423.829 256.122C423.425 256.338 422.964 256.446 422.445 256.446ZM422.445 255.138C422.95 255.138 423.364 254.904 423.688 254.436C424.02 253.968 424.185 253.269 424.185 252.34C424.185 251.417 424.02 250.726 423.688 250.265C423.364 249.796 422.95 249.562 422.445 249.562C421.941 249.562 421.523 249.796 421.192 250.265C420.868 250.726 420.706 251.417 420.706 252.34C420.706 253.262 420.868 253.96 421.192 254.436C421.523 254.904 421.941 255.138 422.445 255.138Z" fill="#535355"/>
    <path d="M456.102 256.349V255.333L457.604 254.004C458.152 253.535 458.624 253.132 459.02 252.793C459.416 252.448 459.722 252.123 459.939 251.821C460.155 251.518 460.263 251.187 460.263 250.827C460.263 250.553 460.194 250.319 460.057 250.124C459.928 249.93 459.758 249.782 459.55 249.681C459.341 249.58 459.124 249.53 458.901 249.53C458.591 249.53 458.339 249.591 458.145 249.714C457.957 249.836 457.813 249.984 457.712 250.157C457.619 250.33 457.554 250.499 457.518 250.665C457.482 250.823 457.464 250.942 457.464 251.021H456.059C456.059 250.863 456.084 250.668 456.135 250.438C456.192 250.2 456.286 249.955 456.416 249.703C456.545 249.451 456.718 249.213 456.934 248.99C457.151 248.766 457.424 248.586 457.756 248.449C458.087 248.312 458.48 248.244 458.934 248.244C459.438 248.244 459.899 248.345 460.317 248.547C460.742 248.748 461.08 249.036 461.333 249.411C461.592 249.786 461.722 250.236 461.722 250.762C461.722 251.245 461.599 251.684 461.354 252.08C461.116 252.476 460.789 252.865 460.371 253.247C459.953 253.622 459.477 254.025 458.944 254.458L458.274 255.063H461.862V256.349H456.102ZM463.236 256.349V255.333L464.738 254.004C465.286 253.535 465.758 253.132 466.154 252.793C466.55 252.448 466.856 252.123 467.072 251.821C467.288 251.518 467.397 251.187 467.397 250.827C467.397 250.553 467.328 250.319 467.191 250.124C467.062 249.93 466.892 249.782 466.683 249.681C466.474 249.58 466.258 249.53 466.035 249.53C465.725 249.53 465.473 249.591 465.278 249.714C465.091 249.836 464.947 249.984 464.846 250.157C464.753 250.33 464.688 250.499 464.652 250.665C464.616 250.823 464.598 250.942 464.598 251.021H463.193C463.193 250.863 463.218 250.668 463.269 250.438C463.326 250.2 463.42 249.955 463.55 249.703C463.679 249.451 463.852 249.213 464.068 248.99C464.284 248.766 464.558 248.586 464.889 248.449C465.221 248.312 465.613 248.244 466.067 248.244C466.572 248.244 467.033 248.345 467.451 248.547C467.876 248.748 468.214 249.036 468.466 249.411C468.726 249.786 468.855 250.236 468.855 250.762C468.855 251.245 468.733 251.684 468.488 252.08C468.25 252.476 467.922 252.865 467.505 253.247C467.087 253.622 466.611 254.025 466.078 254.458L465.408 255.063H468.996V256.349H463.236Z" fill="#535355"/>
    <path d="M499.919 256.349V255.333L501.421 254.004C501.969 253.535 502.44 253.132 502.837 252.793C503.233 252.448 503.539 252.123 503.755 251.821C503.971 251.518 504.079 251.187 504.079 250.827C504.079 250.553 504.011 250.319 503.874 250.124C503.744 249.93 503.575 249.782 503.366 249.681C503.157 249.58 502.941 249.53 502.718 249.53C502.408 249.53 502.156 249.591 501.961 249.714C501.774 249.836 501.63 249.984 501.529 250.157C501.435 250.33 501.371 250.499 501.335 250.665C501.299 250.823 501.281 250.942 501.281 251.021H499.876C499.876 250.863 499.901 250.668 499.951 250.438C500.009 250.2 500.103 249.955 500.232 249.703C500.362 249.451 500.535 249.213 500.751 248.99C500.967 248.766 501.241 248.586 501.572 248.449C501.904 248.312 502.296 248.244 502.75 248.244C503.255 248.244 503.716 248.345 504.133 248.547C504.558 248.748 504.897 249.036 505.149 249.411C505.409 249.786 505.538 250.236 505.538 250.762C505.538 251.245 505.416 251.684 505.171 252.08C504.933 252.476 504.605 252.865 504.187 253.247C503.77 253.622 503.294 254.025 502.761 254.458L502.091 255.063H505.679V256.349H499.919ZM510.537 256.349V254.641L506.658 254.63V253.345L510.191 248.352H511.996V253.399H513.293V254.641H511.996V256.349H510.537ZM508.106 253.399H510.537V249.962L508.106 253.399Z" fill="#535355"/>
    <path d="M543.735 256.349V255.333L545.237 254.004C545.785 253.535 546.257 253.132 546.653 252.793C547.049 252.448 547.355 252.123 547.572 251.821C547.788 251.518 547.896 251.187 547.896 250.827C547.896 250.553 547.827 250.319 547.69 250.124C547.561 249.93 547.392 249.782 547.183 249.681C546.974 249.58 546.758 249.53 546.534 249.53C546.224 249.53 545.972 249.591 545.778 249.714C545.59 249.836 545.446 249.984 545.346 250.157C545.252 250.33 545.187 250.499 545.151 250.665C545.115 250.823 545.097 250.942 545.097 251.021H543.692C543.692 250.863 543.717 250.668 543.768 250.438C543.825 250.2 543.919 249.955 544.049 249.703C544.178 249.451 544.351 249.213 544.567 248.99C544.784 248.766 545.057 248.586 545.389 248.449C545.72 248.312 546.113 248.244 546.567 248.244C547.071 248.244 547.532 248.345 547.95 248.547C548.375 248.748 548.713 249.036 548.966 249.411C549.225 249.786 549.355 250.236 549.355 250.762C549.355 251.245 549.232 251.684 548.987 252.08C548.749 252.476 548.422 252.865 548.004 253.247C547.586 253.622 547.111 254.025 546.577 254.458L545.907 255.063H549.495V256.349H543.735ZM554.025 256.457C553.484 256.457 553.016 256.359 552.62 256.165C552.224 255.963 551.892 255.693 551.626 255.354C551.366 255.016 551.172 254.627 551.042 254.187C550.92 253.748 550.858 253.287 550.858 252.804C550.858 252.394 550.905 251.976 550.999 251.551C551.1 251.118 551.255 250.708 551.464 250.319C551.672 249.923 551.939 249.57 552.263 249.26C552.595 248.943 552.991 248.694 553.452 248.514C553.913 248.334 554.446 248.244 555.051 248.244C555.383 248.244 555.667 248.266 555.905 248.309C556.143 248.352 556.261 248.374 556.261 248.374V249.692C556.261 249.692 556.197 249.681 556.067 249.66C555.944 249.638 555.79 249.616 555.602 249.595C555.422 249.573 555.238 249.562 555.051 249.562C554.59 249.562 554.194 249.638 553.862 249.789C553.538 249.941 553.268 250.142 553.052 250.394C552.843 250.639 552.685 250.906 552.577 251.194C552.469 251.482 552.404 251.76 552.382 252.026C552.447 251.918 552.555 251.788 552.706 251.637C552.858 251.486 553.063 251.353 553.322 251.237C553.589 251.122 553.924 251.064 554.327 251.064C554.903 251.064 555.386 251.19 555.775 251.443C556.164 251.695 556.456 252.023 556.65 252.426C556.845 252.822 556.942 253.24 556.942 253.68C556.942 254.025 556.881 254.364 556.759 254.695C556.643 255.019 556.463 255.315 556.218 255.581C555.973 255.848 555.667 256.06 555.3 256.219C554.94 256.377 554.514 256.457 554.025 256.457ZM554.025 255.236C554.435 255.236 554.785 255.102 555.073 254.836C555.368 254.562 555.516 254.191 555.516 253.723C555.516 253.254 555.368 252.887 555.073 252.621C554.785 252.347 554.435 252.21 554.025 252.21C553.614 252.21 553.261 252.347 552.966 252.621C552.677 252.887 552.533 253.254 552.533 253.723C552.533 254.191 552.677 254.562 552.966 254.836C553.261 255.102 553.614 255.236 554.025 255.236Z" fill="#535355"/>
    <path d="M587.552 256.349V255.333L589.054 254.004C589.601 253.535 590.073 253.132 590.469 252.793C590.866 252.448 591.172 252.123 591.388 251.821C591.604 251.518 591.712 251.187 591.712 250.827C591.712 250.553 591.644 250.319 591.507 250.124C591.377 249.93 591.208 249.782 590.999 249.681C590.79 249.58 590.574 249.53 590.351 249.53C590.041 249.53 589.789 249.591 589.594 249.714C589.407 249.836 589.263 249.984 589.162 250.157C589.068 250.33 589.003 250.499 588.967 250.665C588.931 250.823 588.913 250.942 588.913 251.021H587.509C587.509 250.863 587.534 250.668 587.584 250.438C587.642 250.2 587.736 249.955 587.865 249.703C587.995 249.451 588.168 249.213 588.384 248.99C588.6 248.766 588.874 248.586 589.205 248.449C589.537 248.312 589.929 248.244 590.383 248.244C590.887 248.244 591.348 248.345 591.766 248.547C592.191 248.748 592.53 249.036 592.782 249.411C593.041 249.786 593.171 250.236 593.171 250.762C593.171 251.245 593.049 251.684 592.804 252.08C592.566 252.476 592.238 252.865 591.82 253.247C591.402 253.622 590.927 254.025 590.394 254.458L589.724 255.063H593.312V256.349H587.552ZM597.517 256.457C596.962 256.457 596.461 256.363 596.015 256.176C595.575 255.981 595.226 255.711 594.967 255.365C594.707 255.019 594.578 254.612 594.578 254.144C594.578 253.77 594.646 253.456 594.783 253.204C594.927 252.945 595.089 252.743 595.269 252.599C595.456 252.448 595.622 252.34 595.766 252.275C595.91 252.21 595.986 252.177 595.993 252.177V252.113C595.986 252.113 595.921 252.087 595.799 252.037C595.676 251.979 595.536 251.886 595.377 251.756C595.219 251.626 595.078 251.453 594.956 251.237C594.833 251.021 594.772 250.751 594.772 250.427C594.772 249.995 594.891 249.616 595.129 249.292C595.366 248.961 595.691 248.705 596.101 248.525C596.519 248.338 596.991 248.244 597.517 248.244C598.043 248.244 598.511 248.338 598.922 248.525C599.339 248.705 599.664 248.961 599.894 249.292C600.132 249.616 600.251 249.991 600.251 250.416C600.251 250.74 600.19 251.014 600.067 251.237C599.952 251.453 599.811 251.626 599.646 251.756C599.487 251.886 599.347 251.979 599.224 252.037C599.102 252.087 599.04 252.113 599.04 252.113V252.177C599.04 252.177 599.113 252.21 599.257 252.275C599.401 252.34 599.566 252.448 599.754 252.599C599.941 252.743 600.103 252.945 600.24 253.204C600.384 253.456 600.456 253.77 600.456 254.144C600.456 254.612 600.326 255.019 600.067 255.365C599.808 255.711 599.455 255.981 599.008 256.176C598.569 256.363 598.072 256.457 597.517 256.457ZM597.517 251.637C597.927 251.637 598.255 251.525 598.5 251.302C598.745 251.079 598.868 250.812 598.868 250.502C598.868 250.193 598.745 249.926 598.5 249.703C598.255 249.48 597.927 249.368 597.517 249.368C597.106 249.368 596.778 249.48 596.533 249.703C596.289 249.926 596.166 250.196 596.166 250.513C596.166 250.816 596.289 251.079 596.533 251.302C596.778 251.525 597.106 251.637 597.517 251.637ZM597.517 255.3C597.855 255.3 598.136 255.239 598.36 255.117C598.59 254.987 598.763 254.821 598.878 254.62C599.001 254.418 599.062 254.209 599.062 253.993C599.062 253.777 599.004 253.571 598.889 253.377C598.774 253.182 598.601 253.024 598.371 252.901C598.14 252.779 597.855 252.718 597.517 252.718C597.171 252.718 596.883 252.779 596.652 252.901C596.429 253.024 596.26 253.182 596.144 253.377C596.029 253.571 595.972 253.777 595.972 253.993C595.972 254.209 596.029 254.418 596.144 254.62C596.26 254.821 596.433 254.987 596.663 255.117C596.894 255.239 597.178 255.3 597.517 255.3Z" fill="#535355"/>
    <path d="M634.275 256.457C633.728 256.457 633.267 256.374 632.892 256.208C632.518 256.042 632.215 255.83 631.984 255.571C631.761 255.311 631.599 255.034 631.498 254.739C631.397 254.443 631.347 254.169 631.347 253.917H632.73C632.73 254.133 632.784 254.346 632.892 254.555C633.007 254.757 633.18 254.922 633.411 255.052C633.641 255.174 633.926 255.236 634.265 255.236C634.682 255.236 635.032 255.128 635.313 254.911C635.601 254.688 635.745 254.382 635.745 253.993C635.745 253.647 635.623 253.366 635.378 253.15C635.14 252.934 634.808 252.826 634.383 252.826H633.303V251.691H634.394C634.754 251.691 635.05 251.59 635.28 251.389C635.511 251.187 635.626 250.928 635.626 250.611C635.626 250.265 635.493 249.987 635.226 249.778C634.967 249.562 634.646 249.454 634.265 249.454C633.955 249.454 633.695 249.523 633.486 249.66C633.278 249.789 633.119 249.959 633.011 250.168C632.903 250.376 632.849 250.593 632.849 250.816H631.498C631.498 250.557 631.545 250.279 631.639 249.984C631.739 249.688 631.898 249.411 632.114 249.152C632.337 248.885 632.626 248.669 632.979 248.503C633.339 248.33 633.775 248.244 634.286 248.244C634.762 248.244 635.208 248.334 635.626 248.514C636.051 248.687 636.393 248.943 636.653 249.281C636.919 249.613 637.053 250.009 637.053 250.47C637.053 250.78 636.991 251.054 636.869 251.291C636.754 251.529 636.602 251.724 636.415 251.875C636.235 252.026 636.044 252.138 635.842 252.21V252.275C636.217 252.404 636.537 252.617 636.804 252.912C637.071 253.208 637.204 253.593 637.204 254.069C637.204 254.573 637.067 255.005 636.793 255.365C636.527 255.718 636.17 255.988 635.723 256.176C635.277 256.363 634.794 256.457 634.275 256.457ZM641.549 256.446C641.03 256.446 640.566 256.338 640.155 256.122C639.752 255.906 639.413 255.61 639.139 255.236C638.866 254.854 638.657 254.418 638.513 253.928C638.368 253.431 638.296 252.901 638.296 252.34C638.296 251.785 638.368 251.259 638.513 250.762C638.657 250.265 638.866 249.829 639.139 249.454C639.413 249.072 639.752 248.774 640.155 248.557C640.566 248.341 641.03 248.233 641.549 248.233C642.068 248.233 642.529 248.341 642.932 248.557C643.343 248.774 643.685 249.072 643.959 249.454C644.233 249.829 644.442 250.265 644.586 250.762C644.73 251.259 644.802 251.785 644.802 252.34C644.802 252.901 644.73 253.431 644.586 253.928C644.442 254.418 644.233 254.854 643.959 255.236C643.685 255.61 643.343 255.906 642.932 256.122C642.529 256.338 642.068 256.446 641.549 256.446ZM641.549 255.138C642.053 255.138 642.468 254.904 642.792 254.436C643.123 253.968 643.289 253.269 643.289 252.34C643.289 251.417 643.123 250.726 642.792 250.265C642.468 249.796 642.053 249.562 641.549 249.562C641.045 249.562 640.627 249.796 640.296 250.265C639.971 250.726 639.809 251.417 639.809 252.34C639.809 253.262 639.971 253.96 640.296 254.436C640.627 254.904 641.045 255.138 641.549 255.138Z" fill="#535355"/>
    <path d="M678.092 256.457C677.544 256.457 677.083 256.374 676.709 256.208C676.334 256.042 676.031 255.83 675.801 255.571C675.578 255.311 675.415 255.034 675.315 254.739C675.214 254.443 675.163 254.169 675.163 253.917H676.546C676.546 254.133 676.6 254.346 676.709 254.555C676.824 254.757 676.997 254.922 677.227 255.052C677.458 255.174 677.742 255.236 678.081 255.236C678.499 255.236 678.848 255.128 679.129 254.911C679.417 254.688 679.561 254.382 679.561 253.993C679.561 253.647 679.439 253.366 679.194 253.15C678.956 252.934 678.625 252.826 678.2 252.826H677.119V251.691H678.211C678.571 251.691 678.866 251.59 679.097 251.389C679.327 251.187 679.443 250.928 679.443 250.611C679.443 250.265 679.309 249.987 679.043 249.778C678.783 249.562 678.463 249.454 678.081 249.454C677.771 249.454 677.512 249.523 677.303 249.66C677.094 249.789 676.935 249.959 676.827 250.168C676.719 250.376 676.665 250.593 676.665 250.816H675.315C675.315 250.557 675.361 250.279 675.455 249.984C675.556 249.688 675.714 249.411 675.931 249.152C676.154 248.885 676.442 248.669 676.795 248.503C677.155 248.33 677.591 248.244 678.103 248.244C678.578 248.244 679.025 248.334 679.443 248.514C679.868 248.687 680.21 248.943 680.469 249.281C680.736 249.613 680.869 250.009 680.869 250.47C680.869 250.78 680.808 251.054 680.685 251.291C680.57 251.529 680.419 251.724 680.231 251.875C680.051 252.026 679.86 252.138 679.659 252.21V252.275C680.033 252.404 680.354 252.617 680.62 252.912C680.887 253.208 681.02 253.593 681.02 254.069C681.02 254.573 680.883 255.005 680.61 255.365C680.343 255.718 679.986 255.988 679.54 256.176C679.093 256.363 678.61 256.457 678.092 256.457ZM682.466 256.349V255.333L683.968 254.004C684.516 253.535 684.988 253.132 685.384 252.793C685.78 252.448 686.086 252.123 686.303 251.821C686.519 251.518 686.627 251.187 686.627 250.827C686.627 250.553 686.558 250.319 686.421 250.124C686.292 249.93 686.122 249.782 685.914 249.681C685.705 249.58 685.489 249.53 685.265 249.53C684.955 249.53 684.703 249.591 684.509 249.714C684.321 249.836 684.177 249.984 684.077 250.157C683.983 250.33 683.918 250.499 683.882 250.665C683.846 250.823 683.828 250.942 683.828 251.021H682.423C682.423 250.863 682.448 250.668 682.499 250.438C682.556 250.2 682.65 249.955 682.78 249.703C682.909 249.451 683.082 249.213 683.298 248.99C683.515 248.766 683.788 248.586 684.12 248.449C684.451 248.312 684.844 248.244 685.298 248.244C685.802 248.244 686.263 248.345 686.681 248.547C687.106 248.748 687.444 249.036 687.697 249.411C687.956 249.786 688.086 250.236 688.086 250.762C688.086 251.245 687.963 251.684 687.718 252.08C687.48 252.476 687.153 252.865 686.735 253.247C686.317 253.622 685.842 254.025 685.308 254.458L684.638 255.063H688.226V256.349H682.466Z" fill="#535355"/>
    <rect x="33.0188" y="21.6123" width="638.165" height="0.600343" fill="#B0B0B0"/>
    <rect x="33.0188" y="54.6309" width="638.165" height="0.600343" fill="#B0B0B0"/>
    <rect x="33.0188" y="87.6504" width="638.165" height="0.600343" fill="#B0B0B0"/>
    <rect x="33.0188" y="120.669" width="638.165" height="0.600343" fill="#B0B0B0"/>
    <rect x="33.0188" y="153.688" width="638.165" height="0.600343" fill="#B0B0B0"/>
    <rect x="33.0188" y="186.706" width="638.165" height="0.600343" fill="#B0B0B0"/>
    <rect x="33.0188" y="219.726" width="638.165" height="0.600343" fill="#B0B0B0"/>
    <circle cx="343.396" cy="127.272" r="4.80274" fill="#D9D9D9"/>
    <circle cx="581.732" cy="42.0234" r="4.80274" fill="url(#paint1_linear_26_15567)"/>
    <path d="M324.363 118.461V110.464H325.833V118.461H324.363ZM327.392 118.461V110.464H330.547C331.188 110.464 331.721 110.594 332.146 110.853C332.571 111.106 332.888 111.437 333.097 111.848C333.313 112.251 333.422 112.672 333.422 113.112C333.422 113.551 333.313 113.976 333.097 114.387C332.888 114.79 332.571 115.122 332.146 115.381C331.721 115.641 331.188 115.77 330.547 115.77H328.861V118.461H327.392ZM330.536 111.739H328.861V114.495H330.536C330.853 114.495 331.116 114.43 331.325 114.301C331.534 114.164 331.689 113.991 331.79 113.782C331.898 113.566 331.952 113.346 331.952 113.123C331.952 112.892 331.898 112.672 331.79 112.464C331.689 112.255 331.534 112.082 331.325 111.945C331.116 111.808 330.853 111.739 330.536 111.739ZM337.09 118.461V110.248H338.527V115.003L340.548 112.734H342.244L339.867 115.349L342.32 118.461H340.602L338.527 115.824V118.461H337.09ZM343.4 118.461V110.248H344.838V113.555H344.903C344.96 113.454 345.05 113.332 345.173 113.188C345.295 113.036 345.464 112.907 345.681 112.799C345.897 112.683 346.17 112.626 346.502 112.626C346.941 112.626 347.301 112.726 347.582 112.928C347.871 113.123 348.083 113.382 348.22 113.706C348.364 114.03 348.436 114.38 348.436 114.754V118.461H346.999V114.949C346.999 114.639 346.912 114.373 346.74 114.149C346.567 113.926 346.307 113.814 345.962 113.814C345.695 113.814 345.479 113.883 345.313 114.02C345.147 114.149 345.025 114.319 344.946 114.527C344.874 114.736 344.838 114.956 344.838 115.187V118.461H343.4ZM353.177 111.912L352.085 111.902L352.972 109.967H354.344L353.177 111.912ZM352.215 112.626C352.582 112.626 352.885 112.687 353.123 112.809C353.361 112.925 353.548 113.054 353.685 113.198C353.822 113.335 353.915 113.447 353.966 113.533H354.031V112.734H355.468V118.461H354.031V117.661H353.966C353.915 117.748 353.822 117.863 353.685 118.007C353.548 118.151 353.361 118.281 353.123 118.396C352.885 118.511 352.582 118.569 352.215 118.569C351.79 118.569 351.419 118.486 351.102 118.32C350.785 118.148 350.519 117.921 350.302 117.64C350.093 117.352 349.935 117.031 349.827 116.678C349.726 116.325 349.676 115.965 349.676 115.597C349.676 115.23 349.726 114.87 349.827 114.517C349.935 114.164 350.093 113.847 350.302 113.566C350.519 113.278 350.785 113.051 351.102 112.885C351.419 112.712 351.79 112.626 352.215 112.626ZM352.593 113.803C352.269 113.803 351.995 113.894 351.772 114.074C351.556 114.247 351.394 114.47 351.286 114.744C351.178 115.017 351.124 115.302 351.124 115.597C351.124 115.893 351.178 116.177 351.286 116.451C351.394 116.725 351.556 116.952 351.772 117.132C351.995 117.305 352.269 117.391 352.593 117.391C352.917 117.391 353.188 117.305 353.404 117.132C353.62 116.952 353.782 116.725 353.89 116.451C353.998 116.177 354.052 115.893 354.052 115.597C354.052 115.302 353.998 115.017 353.89 114.744C353.782 114.47 353.62 114.247 353.404 114.074C353.188 113.894 352.917 113.803 352.593 113.803ZM359.748 118.569C359.258 118.569 358.829 118.486 358.462 118.32C358.094 118.148 357.788 117.921 357.543 117.64C357.298 117.352 357.115 117.031 356.992 116.678C356.877 116.325 356.819 115.965 356.819 115.597C356.819 115.23 356.877 114.87 356.992 114.517C357.115 114.164 357.295 113.847 357.532 113.566C357.777 113.278 358.084 113.051 358.451 112.885C358.818 112.712 359.251 112.626 359.748 112.626C360.238 112.626 360.645 112.698 360.969 112.842C361.293 112.986 361.549 113.166 361.736 113.382C361.931 113.598 362.075 113.814 362.168 114.03C362.262 114.239 362.323 114.416 362.352 114.56C362.381 114.704 362.395 114.776 362.395 114.776H361.044C361.044 114.776 361.03 114.729 361.001 114.636C360.972 114.535 360.915 114.419 360.828 114.29C360.742 114.16 360.612 114.045 360.439 113.944C360.274 113.843 360.05 113.793 359.769 113.793C359.438 113.793 359.157 113.879 358.926 114.052C358.703 114.218 358.534 114.437 358.418 114.711C358.303 114.985 358.246 115.28 358.246 115.597C358.246 115.914 358.303 116.21 358.418 116.483C358.534 116.757 358.703 116.98 358.926 117.153C359.157 117.319 359.438 117.402 359.769 117.402C360.05 117.402 360.274 117.352 360.439 117.251C360.612 117.15 360.742 117.035 360.828 116.905C360.915 116.775 360.972 116.664 361.001 116.57C361.03 116.469 361.044 116.419 361.044 116.419H362.395C362.395 116.419 362.381 116.491 362.352 116.635C362.323 116.779 362.262 116.959 362.168 117.175C362.075 117.384 361.931 117.596 361.736 117.813C361.549 118.029 361.293 118.209 360.969 118.353C360.645 118.497 360.238 118.569 359.748 118.569Z" fill="#B0B0B0"/>
    <path d="M543.488 33.2129V25.2163H544.958V33.2129H543.488ZM546.517 33.2129V25.2163H549.672C550.314 25.2163 550.847 25.346 551.272 25.6053C551.697 25.8575 552.014 26.1889 552.223 26.5995C552.439 27.0029 552.547 27.4244 552.547 27.8638C552.547 28.3033 552.439 28.7283 552.223 29.139C552.014 29.5424 551.697 29.8738 551.272 30.1331C550.847 30.3925 550.314 30.5222 549.672 30.5222H547.987V33.2129H546.517ZM549.662 26.4914H547.987V29.247H549.662C549.979 29.247 550.241 29.1822 550.45 29.0525C550.659 28.9156 550.814 28.7427 550.915 28.5338C551.023 28.3177 551.077 28.098 551.077 27.8746C551.077 27.6441 551.023 27.4244 550.915 27.2155C550.814 27.0065 550.659 26.8336 550.45 26.6968C550.241 26.5599 549.979 26.4914 549.662 26.4914ZM556.215 33.2129V25.2163H557.685V28.5014H561.024V25.2163H562.493V33.2129H561.024V29.7765H557.685V33.2129H556.215ZM566.748 33.321C566.121 33.321 565.588 33.1805 565.149 32.8995C564.709 32.6186 564.374 32.2547 564.144 31.8081C563.92 31.3542 563.809 30.868 563.809 30.3493C563.809 29.8306 563.92 29.3479 564.144 28.9012C564.374 28.4474 564.709 28.08 565.149 27.799C565.588 27.518 566.121 27.3776 566.748 27.3776C567.382 27.3776 567.915 27.518 568.347 27.799C568.787 28.08 569.118 28.4474 569.341 28.9012C569.572 29.3479 569.687 29.8306 569.687 30.3493C569.687 30.868 569.572 31.3542 569.341 31.8081C569.118 32.2547 568.787 32.6186 568.347 32.8995C567.915 33.1805 567.382 33.321 566.748 33.321ZM566.748 32.1215C567.072 32.1215 567.342 32.0386 567.558 31.8729C567.782 31.7072 567.951 31.4911 568.066 31.2246C568.181 30.9508 568.239 30.659 568.239 30.3493C568.239 30.0323 568.181 29.7405 568.066 29.474C567.951 29.2074 567.782 28.9913 567.558 28.8256C567.342 28.6599 567.072 28.577 566.748 28.577C566.431 28.577 566.161 28.6599 565.937 28.8256C565.714 28.9913 565.545 29.2074 565.43 29.474C565.314 29.7405 565.257 30.0323 565.257 30.3493C565.257 30.659 565.314 30.9508 565.43 31.2246C565.545 31.4911 565.714 31.7072 565.937 31.8729C566.161 32.0386 566.431 32.1215 566.748 32.1215ZM570.902 33.2129V27.4856H572.339V28.2853H572.393C572.465 28.1556 572.566 28.0223 572.696 27.8854C572.826 27.7414 572.991 27.6225 573.193 27.5288C573.402 27.428 573.658 27.3776 573.96 27.3776C574.385 27.3776 574.735 27.4784 575.009 27.6801C575.282 27.8818 575.484 28.1412 575.614 28.4582H575.635C575.779 28.1844 575.992 27.9359 576.273 27.7125C576.561 27.4892 576.943 27.3776 577.418 27.3776C577.822 27.3776 578.157 27.4712 578.423 27.6585C578.697 27.8386 578.899 28.0836 579.028 28.3933C579.165 28.7031 579.234 29.0381 579.234 29.3983V33.2129H577.797V29.7009C577.797 29.3695 577.714 29.0993 577.548 28.8904C577.389 28.6743 577.152 28.5662 576.835 28.5662C576.583 28.5662 576.377 28.6347 576.219 28.7716C576.068 28.9012 575.956 29.0669 575.884 29.2686C575.819 29.4704 575.787 29.6757 575.787 29.8846V33.2129H574.349V29.7009C574.349 29.3695 574.27 29.0993 574.112 28.8904C573.953 28.6743 573.712 28.5662 573.388 28.5662C573.135 28.5662 572.93 28.6347 572.772 28.7716C572.62 28.9012 572.509 29.0705 572.437 29.2794C572.372 29.4812 572.339 29.6829 572.339 29.8846V33.2129H570.902ZM583.293 33.321C582.803 33.321 582.378 33.2381 582.018 33.0724C581.665 32.8995 581.369 32.6726 581.132 32.3916C580.901 32.1035 580.728 31.7829 580.613 31.4299C580.498 31.0769 580.44 30.7167 580.44 30.3493C580.44 29.9818 580.494 29.6252 580.602 29.2794C580.717 28.9264 580.887 28.6059 581.11 28.3177C581.34 28.0295 581.632 27.8026 581.985 27.6369C582.338 27.464 582.756 27.3776 583.239 27.3776C583.757 27.3776 584.215 27.4928 584.611 27.7234C585.007 27.9539 585.317 28.2925 585.54 28.7391C585.764 29.1786 585.875 29.7261 585.875 30.3817V30.7491H581.888C581.91 31.1381 582.043 31.4767 582.288 31.7649C582.533 32.0458 582.868 32.1863 583.293 32.1863C583.538 32.1863 583.739 32.1467 583.898 32.0674C584.056 31.9882 584.179 31.8981 584.265 31.7973C584.352 31.6892 584.413 31.5992 584.449 31.5271C584.485 31.4479 584.503 31.4083 584.503 31.4083H585.832C585.832 31.4083 585.814 31.4731 585.778 31.6028C585.742 31.7252 585.674 31.8837 585.573 32.0782C585.479 32.2655 585.339 32.4565 585.151 32.651C584.964 32.8383 584.719 32.9968 584.417 33.1264C584.114 33.2561 583.739 33.321 583.293 33.321ZM581.888 29.8089H584.492C584.471 29.3623 584.337 29.0309 584.092 28.8148C583.848 28.5987 583.559 28.4906 583.228 28.4906C582.861 28.4906 582.554 28.6095 582.309 28.8472C582.064 29.0777 581.924 29.3983 581.888 29.8089ZM589.731 33.2129V25.2163H592.886C593.528 25.2163 594.061 25.346 594.486 25.6053C594.911 25.8575 595.228 26.1889 595.437 26.5995C595.653 27.0029 595.761 27.4244 595.761 27.8638C595.761 28.3033 595.653 28.7283 595.437 29.139C595.228 29.5424 594.911 29.8738 594.486 30.1331C594.061 30.3925 593.528 30.5222 592.886 30.5222H591.201V33.2129H589.731ZM592.876 26.4914H591.201V29.247H592.876C593.193 29.247 593.456 29.1822 593.665 29.0525C593.873 28.9156 594.028 28.7427 594.129 28.5338C594.237 28.3177 594.291 28.098 594.291 27.8746C594.291 27.6441 594.237 27.4244 594.129 27.2155C594.028 27.0065 593.873 26.8336 593.665 26.6968C593.456 26.5599 593.193 26.4914 592.876 26.4914ZM596.831 33.2129V27.4856H598.257V28.2745H598.311C598.412 28.0511 598.578 27.8458 598.808 27.6585C599.039 27.4712 599.385 27.3776 599.846 27.3776C599.99 27.3776 600.109 27.3884 600.202 27.41C600.296 27.4244 600.343 27.4316 600.343 27.4316V28.8256C600.343 28.8256 600.289 28.8184 600.181 28.804C600.08 28.7896 599.954 28.7824 599.802 28.7824C599.298 28.7824 598.916 28.9228 598.657 29.2038C598.398 29.4848 598.268 29.9386 598.268 30.5654V33.2129H596.831ZM603.873 33.321C603.246 33.321 602.713 33.1805 602.274 32.8995C601.834 32.6186 601.499 32.2547 601.269 31.8081C601.045 31.3542 600.934 30.868 600.934 30.3493C600.934 29.8306 601.045 29.3479 601.269 28.9012C601.499 28.4474 601.834 28.08 602.274 27.799C602.713 27.518 603.246 27.3776 603.873 27.3776C604.507 27.3776 605.04 27.518 605.472 27.799C605.912 28.08 606.243 28.4474 606.466 28.9012C606.697 29.3479 606.812 29.8306 606.812 30.3493C606.812 30.868 606.697 31.3542 606.466 31.8081C606.243 32.2547 605.912 32.6186 605.472 32.8995C605.04 33.1805 604.507 33.321 603.873 33.321ZM603.873 32.1215C604.197 32.1215 604.467 32.0386 604.683 31.8729C604.907 31.7072 605.076 31.4911 605.191 31.2246C605.307 30.9508 605.364 30.659 605.364 30.3493C605.364 30.0323 605.307 29.7405 605.191 29.474C605.076 29.2074 604.907 28.9913 604.683 28.8256C604.467 28.6599 604.197 28.577 603.873 28.577C603.556 28.577 603.286 28.6599 603.063 28.8256C602.839 28.9913 602.67 29.2074 602.555 29.474C602.439 29.7405 602.382 30.0323 602.382 30.3493C602.382 30.659 602.439 30.9508 602.555 31.2246C602.67 31.4911 602.839 31.7072 603.063 31.8729C603.286 32.0386 603.556 32.1215 603.873 32.1215ZM607.515 33.2129L609.298 30.3601L607.505 27.4856H609.017L610.26 29.4956L611.525 27.4856H613.027L611.19 30.3601L613.027 33.2129H611.514L610.26 31.2029L609.017 33.2129H607.515ZM614.516 35.3201C614.329 35.3201 614.174 35.3129 614.051 35.2985C613.936 35.2841 613.878 35.2769 613.878 35.2769V34.099C613.878 34.099 613.932 34.1026 614.04 34.1098C614.148 34.1242 614.275 34.1314 614.419 34.1314C614.786 34.1314 615.089 34.0702 615.326 33.9477C615.571 33.8324 615.777 33.6127 615.942 33.2885L613.792 27.4856H615.251L616.688 31.5704L618.104 27.4856H619.562L617.466 33.0724C617.178 33.836 616.807 34.4016 616.353 34.769C615.899 35.1364 615.287 35.3201 614.516 35.3201Z" fill="url(#paint2_linear_26_15567)"/>
    <g filter="url(#filter0_d_26_15567)">
        <rect x="482" y="177" width="204.026" height="157" rx="10.5128" fill="white" shape-rendering="crispEdges"/>
        <rect x="482" y="177" width="204.026" height="157" rx="10.5128" fill="url(#paint3_linear_26_15567)" fill-opacity="0.4" shape-rendering="crispEdges"/>
        <rect x="482.5" y="177.5" width="203.026" height="156" rx="10.0128" stroke="#6BFDFF" shape-rendering="crispEdges"/>
        <path d="M659.207 310.487H658.717V270.791C658.717 269.178 658.035 267.658 656.796 266.512C655.558 265.365 653.917 264.734 652.175 264.734H643.218V236.324C643.218 234.135 641.295 232.354 638.93 232.354H604.504C602.14 232.354 600.216 234.135 600.216 236.324V241.513H558.235C555.465 241.514 553.211 243.6 553.211 246.166V289.15C553.211 291.715 555.465 293.802 558.235 293.802H581.19L577.772 300.238H572.943C570.693 300.238 568.862 301.934 568.862 304.017C568.862 306.101 570.693 307.796 572.943 307.796H584.718V310.487H584.228C583.354 310.487 582.646 311.143 582.646 311.952V314.431C582.646 319.086 586.736 322.873 591.763 322.873H651.672C656.699 322.873 660.789 319.086 660.789 314.431V311.952C660.789 311.143 660.081 310.487 659.207 310.487ZM652.175 267.663C653.072 267.663 653.918 267.99 654.559 268.583C655.2 269.176 655.553 269.96 655.553 270.791V310.487H653.133V271.057C653.133 270.248 652.425 269.592 651.551 269.592H643.218V267.663H652.175ZM614.699 313.417H628.735V315.215H614.699V313.417ZM593.465 310.487V272.521H600.216V290.214C600.216 292.403 602.14 294.184 604.504 294.184H638.93C641.295 294.184 643.218 292.403 643.218 290.214V272.521H649.969V310.487H593.465ZM586.638 266.511C585.4 267.658 584.718 269.177 584.718 270.791V286.671H560.911V248.644H600.216V264.734H591.26C589.517 264.733 587.875 265.365 586.638 266.511ZM603.381 285.849H640.054V290.214C640.054 290.788 639.55 291.255 638.93 291.255H604.504C603.884 291.255 603.381 290.788 603.381 290.214V285.849ZM628.757 235.283L628.386 236.291H615.049L614.677 235.284L628.757 235.283ZM603.381 236.324C603.381 235.75 603.885 235.283 604.504 235.283H611.334L612.42 238.229C612.638 238.822 613.24 239.22 613.917 239.22H629.518C630.194 239.22 630.796 238.822 631.015 238.229L632.1 235.283H638.93C639.55 235.283 640.054 235.75 640.054 236.324V282.92H603.381V236.324ZM556.375 289.15V246.166C556.375 245.216 557.209 244.443 558.235 244.443H600.216V245.714H559.329C558.455 245.714 557.747 246.37 557.747 247.179V288.136C557.747 288.945 558.455 289.601 559.329 289.601H584.718V290.872H558.235C557.209 290.872 556.375 290.099 556.375 289.15ZM584.716 293.802H584.718V300.238H581.298L584.716 293.802ZM572.943 304.866C572.446 304.866 572.026 304.477 572.026 304.017C572.026 303.557 572.446 303.168 572.943 303.168H584.718V304.866H572.943ZM587.882 270.791C587.882 269.96 588.234 269.176 588.875 268.583C589.516 267.99 590.362 267.663 591.26 267.663H600.216V269.592H591.883C591.009 269.592 590.301 270.248 590.301 271.057V310.487H587.882V270.791ZM657.625 314.431C657.625 317.47 654.954 319.943 651.671 319.943H591.763C588.481 319.943 585.81 317.47 585.81 314.431V313.417H611.535V316.68C611.535 317.489 612.243 318.145 613.117 318.145H630.317C631.191 318.145 631.899 317.489 631.899 316.68V313.417H657.625V314.431ZM618.544 288.552C618.544 287.743 619.252 287.087 620.126 287.087H623.309C624.183 287.087 624.891 287.743 624.891 288.552C624.891 289.361 624.183 290.017 623.309 290.017H620.126C619.252 290.017 618.544 289.361 618.544 288.552Z" fill="url(#paint4_linear_26_15567)"/>
        <path d="M532.488 216.024C530.223 214.349 527.487 213.377 524.668 213.245V210.546C528.819 210.706 532.593 212.365 535.461 214.996L532.673 215.927C532.607 215.949 532.545 215.981 532.488 216.024ZM540.956 226.832C540.796 222.68 539.136 218.906 536.504 216.039L535.575 218.826C535.553 218.894 535.52 218.956 535.478 219.013C537.152 221.28 538.124 224.016 538.256 226.832H540.956ZM534.55 237.104L536.452 239.005C539.115 236.13 540.795 232.333 540.956 228.154H538.257C538.106 231.497 536.807 234.633 534.55 237.104ZM527.26 225.37L534.37 218.26L534.934 216.566L533.239 217.132L526.129 224.24C526.58 224.534 526.965 224.92 527.26 225.37ZM520.753 229.617L519.046 231.323C518.897 231.472 518.814 231.673 518.814 231.888C518.814 232.103 518.897 232.304 519.047 232.453C519.359 232.764 519.866 232.764 520.177 232.453L521.883 230.747C521.433 230.453 521.048 230.067 520.753 229.617ZM533.158 236.648C535.603 234.202 536.951 230.951 536.951 227.493C536.951 224.755 536.118 222.168 534.535 219.965L527.809 226.691C527.864 226.95 527.893 227.219 527.893 227.493C527.893 229.636 526.15 231.38 524.007 231.38C523.731 231.38 523.463 231.351 523.204 231.296L521.112 233.388C520.699 233.801 520.156 234.008 519.613 234.008C519.07 234.008 518.527 233.802 518.112 233.389C517.284 232.561 517.284 231.214 518.111 230.387L520.204 228.297C520.149 228.038 520.12 227.769 520.12 227.493C520.12 225.351 521.863 223.608 524.007 223.608C524.281 223.608 524.549 223.637 524.807 223.691L531.536 216.966C529.352 215.404 526.706 214.551 524.007 214.551C516.869 214.551 511.063 220.357 511.063 227.493C511.063 230.95 512.41 234.202 514.854 236.647C514.978 236.771 515.048 236.939 515.048 237.115C515.048 237.29 514.978 237.458 514.854 237.582L512.496 239.941C515.522 242.741 519.568 244.455 524.007 244.455C528.446 244.455 532.491 242.741 535.517 239.941L533.158 237.582C532.9 237.324 532.9 236.906 533.158 236.648ZM513.462 237.104C511.205 234.633 509.907 231.497 509.755 228.154H507.057C507.218 232.333 508.898 236.13 511.561 239.005L513.462 237.104ZM511.56 215.982C508.899 218.857 507.218 222.653 507.057 226.832H509.755C509.913 223.396 511.293 220.273 513.468 217.889L511.56 215.982ZM523.345 213.245V210.546C519.167 210.707 515.37 212.387 512.496 215.048L514.403 216.955C516.787 214.78 519.91 213.403 523.345 213.245ZM524.007 230.058C525.421 230.058 526.572 228.907 526.572 227.493C526.572 226.08 525.421 224.93 524.007 224.93C522.593 224.93 521.442 226.08 521.442 227.493C521.442 228.907 522.592 230.058 524.007 230.058ZM505.389 215.154H510.514C510.697 214.954 510.884 214.758 511.077 214.565C511.33 214.312 511.589 214.068 511.854 213.832H505.389C505.024 213.832 504.728 214.128 504.728 214.493C504.728 214.858 505.024 215.154 505.389 215.154ZM500.301 220.333C499.936 220.333 499.64 220.629 499.64 220.994C499.64 221.359 499.936 221.655 500.301 221.655H506.67C506.819 221.208 506.987 220.767 507.172 220.333H500.301ZM496.705 228.154H503.9C504.265 228.154 504.561 227.858 504.561 227.493C504.561 227.128 504.265 226.832 503.9 226.832H496.705C496.34 226.832 496.044 227.128 496.044 227.493C496.044 227.858 496.34 228.154 496.705 228.154ZM496.044 233.994C496.044 234.359 496.34 234.655 496.705 234.655H507.172C506.987 234.221 506.82 233.78 506.67 233.333H496.705C496.34 233.333 496.044 233.629 496.044 233.994ZM510.515 239.834H505.235C504.869 239.834 504.573 240.13 504.573 240.495C504.573 240.861 504.869 241.157 505.235 241.157H511.855C511.59 240.921 511.33 240.675 511.077 240.422C510.884 240.23 510.697 240.034 510.515 239.834ZM496.705 215.154H501.544C501.909 215.154 502.205 214.858 502.205 214.493C502.205 214.128 501.909 213.832 501.544 213.832H496.705C496.34 213.832 496.044 214.128 496.044 214.493C496.044 214.858 496.34 215.154 496.705 215.154ZM502.566 239.834H496.705C496.34 239.834 496.044 240.13 496.044 240.496C496.044 240.861 496.34 241.157 496.705 241.157H502.566C502.931 241.157 503.227 240.861 503.227 240.496C503.227 240.13 502.931 239.834 502.566 239.834Z" fill="#FF8D28"/>
    </g>
    <defs>
        <filter id="filter0_d_26_15567" x="476" y="177" width="216.026" height="169" filterUnits="userSpaceOnUse" color-interpolation-filters="sRGB">
            <feFlood flood-opacity="0" result="BackgroundImageFix"/>
            <feColorMatrix in="SourceAlpha" type="matrix" values="0 0 0 0 0 0 0 0 0 0 0 0 0 0 0 0 0 0 127 0" result="hardAlpha"/>
            <feOffset dy="6"/>
            <feGaussianBlur stdDeviation="3"/>
            <feComposite in2="hardAlpha" operator="out"/>
            <feColorMatrix type="matrix" values="0 0 0 0 0 0 0 0 0 0 0 0 0 0 0 0 0 0 0.25 0"/>
            <feBlend mode="normal" in2="BackgroundImageFix" result="effect1_dropShadow_26_15567"/>
            <feBlend mode="normal" in="SourceGraphic" in2="effect1_dropShadow_26_15567" result="shape"/>
        </filter>
        <linearGradient id="paint0_linear_26_15567" x1="17.1098" y1="262.65" x2="700" y2="30.0172" gradientUnits="userSpaceOnUse">
            <stop stop-color="#7EFFF4"/>
            <stop offset="1" stop-color="#7EFFF4" stop-opacity="0"/>
        </linearGradient>
        <linearGradient id="paint1_linear_26_15567" x1="581.732" y1="37.2207" x2="581.732" y2="46.8262" gradientUnits="userSpaceOnUse">
            <stop stop-color="#001D54"/>
            <stop offset="1" stop-color="#008C99"/>
        </linearGradient>
        <linearGradient id="paint2_linear_26_15567" x1="581.71" y1="22.2129" x2="581.71" y2="36.2129" gradientUnits="userSpaceOnUse">
            <stop stop-color="#001D54"/>
            <stop offset="1" stop-color="#008C99"/>
        </linearGradient>
        <linearGradient id="paint3_linear_26_15567" x1="486.987" y1="327.63" x2="702.659" y2="290.291" gradientUnits="userSpaceOnUse">
            <stop stop-color="#7EFFF4"/>
            <stop offset="1" stop-color="#7EFFF4" stop-opacity="0"/>
        </linearGradient>
        <linearGradient id="paint4_linear_26_15567" x1="562.448" y1="305.209" x2="652.011" y2="249.363" gradientUnits="userSpaceOnUse">
            <stop stop-color="#05F79E"/>
            <stop offset="1" stop-color="#03B0F0"/>
        </linearGradient>
    </defs>
</svg>
