<svg width="150" height="54" viewBox="0 0 150 54" fill="none" xmlns="http://www.w3.org/2000/svg">
    <g clip-path="url(#clip0_60_8059)">
        <path d="M56.4594 5.94141V13.3235H66.6597V5.94141H69.958V23.9989H66.6597V16.6168H56.4594V23.9989H53.1611V5.94141H56.4594Z" fill="white"/>
        <path d="M72.812 10.5309C72.812 9.8967 72.9342 9.29589 73.1729 8.73959C73.4117 8.18329 73.7393 7.69375 74.1502 7.28209C74.5611 6.87043 75.0497 6.54221 75.605 6.303C76.1603 6.06379 76.76 5.94141 77.393 5.94141H85.0168C85.6498 5.94141 86.2495 6.06379 86.8048 6.303C87.36 6.54221 87.8487 6.87043 88.2596 7.28209C88.6704 7.69375 88.9981 8.18329 89.2368 8.73959C89.4756 9.30146 89.5977 9.8967 89.5977 10.5309V19.4094C89.5977 20.0436 89.4756 20.6444 89.2368 21.2007C88.9981 21.7626 88.6704 22.2465 88.2596 22.6582C87.8487 23.0699 87.36 23.3981 86.8048 23.6373C86.2439 23.8765 85.6498 23.9989 85.0168 23.9989H77.393C76.76 23.9989 76.1603 23.8765 75.605 23.6373C75.0442 23.3981 74.5611 23.0699 74.1502 22.6582C73.7393 22.2465 73.4117 21.7626 73.1729 21.2007C72.9342 20.6444 72.812 20.0436 72.812 19.4094V10.5309ZM85.0168 20.6945C85.3611 20.6945 85.6554 20.5721 85.9052 20.3217C86.1551 20.0714 86.2773 19.7766 86.2773 19.4317V10.5587C86.2773 10.2138 86.1551 9.91895 85.9052 9.66861C85.6554 9.41828 85.3611 9.29589 85.0168 9.29589H77.3652C77.0209 9.29589 76.7266 9.41828 76.4768 9.66861C76.2269 9.91895 76.1047 10.2138 76.1047 10.5587V19.4317C76.1047 19.7766 76.2269 20.0714 76.4768 20.3217C76.7266 20.5721 77.0209 20.6945 77.3652 20.6945H85.0168Z" fill="white"/>
        <path d="M97.7933 5.94141L104.079 20.7L110.365 5.94141H115.773V23.9989H112.475V9.24026L107.633 20.6945L106.217 23.9989H101.941L100.908 21.5456L95.7055 9.24026V23.9989H92.4072V5.94141H97.7878H97.7933Z" fill="white"/>
        <path d="M134.186 5.94141V9.24583H122.159V13.3235H131.893V16.6279H122.159V20.7056H134.186V24.01H118.888V5.94141H134.186Z" fill="white"/>
        <path d="M65.3715 29.8906C66.0045 29.8906 66.6042 30.013 67.1594 30.2522C67.7147 30.4914 68.2033 30.8196 68.6142 31.2313C69.0251 31.643 69.3527 32.1325 69.5915 32.6888C69.8303 33.2451 69.9524 33.8459 69.9524 34.4801V40.0542C69.9524 40.6884 69.8303 41.2892 69.5915 41.8455C69.3527 42.4018 69.0251 42.8913 68.6142 43.303C68.2033 43.7147 67.7147 44.0429 67.1594 44.2821C66.5986 44.5213 66.0045 44.6437 65.3715 44.6437H56.4594V47.9481H53.1611V29.8906H65.3659H65.3715ZM65.3715 41.3448C65.7157 41.3448 66.01 41.2224 66.2599 40.9721C66.5098 40.7218 66.6319 40.4269 66.6319 40.082V34.5079C66.6319 34.163 66.5098 33.8682 66.2599 33.6178C66.01 33.3675 65.7157 33.2451 65.3715 33.2451H56.4594V41.4005L65.3715 41.3504V41.3448Z" fill="white"/>
        <path d="M84.6892 29.8906C85.3222 29.8906 85.9219 30.013 86.4772 30.2522C87.0325 30.4914 87.5211 30.8196 87.932 31.2313C88.3429 31.643 88.6705 32.1325 88.9093 32.6888C89.148 33.2451 89.2702 33.8459 89.2702 34.4801V40.0542C89.2702 40.5716 89.1869 41.0611 89.0259 41.5228C88.8648 41.9846 88.6372 42.4129 88.354 42.8023C88.0708 43.1917 87.7265 43.5255 87.3212 43.8092C86.9158 44.093 86.4827 44.3043 86.0219 44.4434L89.2646 47.9537H84.7059L81.6908 44.6493H75.7661V47.9537H72.4678V29.8906H84.6726H84.6892ZM84.6892 41.3448C85.0335 41.3448 85.3278 41.2224 85.5776 40.9721C85.8275 40.7218 85.9497 40.4269 85.9497 40.082V34.5079C85.9497 34.163 85.8275 33.8682 85.5776 33.6178C85.3278 33.3675 85.0335 33.2451 84.6892 33.2451H75.7772V41.4005H84.6892V41.3504V41.3448Z" fill="white"/>
        <path d="M91.7412 34.5309C91.7412 33.8967 91.8634 33.2959 92.1021 32.7396C92.3409 32.1833 92.6685 31.6937 93.0794 31.2821C93.4903 30.8704 93.9789 30.5422 94.5342 30.303C95.0895 30.0638 95.6892 29.9414 96.3222 29.9414H103.946C104.579 29.9414 105.179 30.0638 105.734 30.303C106.289 30.5422 106.778 30.8704 107.189 31.2821C107.6 31.6937 107.927 32.1833 108.166 32.7396C108.405 33.3015 108.527 33.8967 108.527 34.5309V43.4039C108.527 44.038 108.405 44.6388 108.166 45.1951C107.927 45.757 107.6 46.241 107.189 46.6526C106.778 47.0643 106.289 47.3925 105.734 47.6317C105.173 47.8709 104.579 47.9933 103.946 47.9933H96.3222C95.6892 47.9933 95.0895 47.8709 94.5342 47.6317C93.9734 47.3925 93.4903 47.0643 93.0794 46.6526C92.6685 46.241 92.3409 45.757 92.1021 45.1951C91.8634 44.6388 91.7412 44.038 91.7412 43.4039V34.5309ZM103.946 44.6945C104.29 44.6945 104.585 44.5721 104.834 44.3217C105.084 44.0714 105.206 43.7766 105.206 43.4317V34.5587C105.206 34.2138 105.084 33.9189 104.834 33.6686C104.585 33.4183 104.29 33.2959 103.946 33.2959H96.2944C95.9501 33.2959 95.6559 33.4183 95.406 33.6686C95.1561 33.9189 95.0339 34.2138 95.0339 34.5587V43.4317C95.0339 43.7766 95.1561 44.0714 95.406 44.3217C95.6559 44.5721 95.9501 44.6945 96.2944 44.6945H103.946Z" fill="white"/>
        <path d="M109.721 29.9414H114.024L119.51 36.4167L124.968 29.9414H129.272L121.648 38.9702L129.272 47.9989H124.968L119.51 41.5236L114.024 47.9989H109.721L117.345 38.9702L109.721 29.9414Z" fill="white"/>
        <path d="M130.477 29.9414H134.78L140.238 36.4167L145.696 29.9414H150L141.86 39.5654V48.0045H138.561V39.5654L130.477 29.9414Z" fill="white"/>
        <path d="M20.1398 36.7266H17.1636V39.7083H20.1398V36.7266Z" fill="white"/>
        <path d="M24.6042 36.7266H21.6279V39.7083H24.6042V36.7266Z" fill="white"/>
        <path d="M20.1398 32.2422H17.1636V35.224H20.1398V32.2422Z" fill="white"/>
        <path d="M24.6042 32.2422H21.6279V35.224H24.6042V32.2422Z" fill="white"/>
        <path d="M0 53.9999H5.78589H5.99134H35.7814H41.5229H41.7728V35.998H35.7814V48.003H5.99134V35.998H0V53.9999Z" fill="white"/>
        <path d="M41.773 29.0555L38.7801 27.4701V18.0019C38.7801 17.9685 38.7801 17.9351 38.7801 17.9017C38.7801 8.01628 30.7787 0 20.906 0C11.0333 0 3.0375 8.01628 3.0375 17.9017C3.0375 17.9351 3.0375 17.9685 3.0375 18.0019H3.00418V27.4868L-0.00537109 29.0833V36.0037L20.9005 24.9222L41.7674 35.9815V29.0611L41.773 29.0555ZM8.96775 18.0019H9.00107C9.00107 17.9685 9.00107 17.9351 9.00107 17.9017C9.00107 11.3096 14.3316 5.96909 20.9116 5.96909C27.4915 5.96909 32.8221 11.3096 32.8221 17.9017C32.8221 17.9351 32.8221 17.9685 32.8221 18.0019V24.3159L20.9116 18.0019L8.97331 24.327V18.0019H8.96775Z" fill="white"/>
    </g>
    <defs>
        <clipPath id="clip0_60_8059">
            <rect width="150" height="54" fill="white"/>
        </clipPath>
    </defs>
</svg>
